<svg width="80" height="80" viewBox="0 0 80 80" fill="none" xmlns="http://www.w3.org/2000/svg">
<path d="M40.773 22.4974L54.8827 26.26C55.3204 26.3767 55.625 26.7732 55.625 27.2262V44.0802C55.625 46.0863 54.6224 47.9597 52.9532 49.0725L40.5547 57.3381C40.2188 57.5621 39.7812 57.5621 39.4453 57.3381L27.0468 49.0725C25.3776 47.9597 24.375 46.0863 24.375 44.0802V27.2262C24.375 26.7732 24.6796 26.3767 25.1173 26.26L39.227 22.4974C39.7335 22.3623 40.2665 22.3623 40.773 22.4974Z" stroke="white" stroke-width="3" stroke-linecap="round"/>
<path d="M34.7917 38.9587L38.7816 42.9486C38.8792 43.0463 39.0375 43.0463 39.1351 42.9486L46.25 35.8337" stroke="white" stroke-width="3" stroke-linecap="round"/>
</svg>
