<svg width="160" height="160" viewBox="0 0 160 160" fill="none" xmlns="http://www.w3.org/2000/svg">
<path d="M63.0755 74.5338V63.6373C63.0755 63.3072 63.1918 62.9906 63.3988 62.7571C63.6058 62.5237 63.8865 62.3925 64.1792 62.3925H65.283V74.5338H63.0755Z" fill="#5740A0"/>
<path d="M54.893 64.2145C55.2252 64.193 55.2061 64.3277 55.4499 64.5823C55.5441 64.6902 55.6187 64.8178 55.6696 64.958C55.9431 65.6188 56.0524 66.351 55.9857 67.0764C56.6092 66.4476 57.3295 65.9529 58.1109 65.6166C57.7617 65.0711 57.574 64.417 57.4175 63.7675C57.3705 63.5438 57.3033 63.3261 57.2168 63.1179C57.1779 63.0212 57.1191 62.9362 57.0453 62.8701C56.9073 62.7789 56.7433 62.7513 56.5877 62.7932C56.1653 62.8667 55.785 63.1078 55.4198 63.359C55.1429 63.5536 54.8723 63.7588 54.6081 63.9746C54.5158 64.0504 54.8981 64.1421 54.89 64.2711" fill="#FBB089"/>
<path d="M56.0291 72.8771C56.0291 72.8771 51.5751 75.7989 50.4674 74.9253C50.4674 74.9253 47.1272 74.1943 45.2619 64.6649C45.2067 64.3865 45.1535 64.0991 45.1014 63.8048L46.3857 63.2073C46.3857 63.2073 46.6104 63.5118 46.9676 64.0289C47.9409 65.4378 49.8975 68.4264 50.9811 71.1582C50.9811 71.1582 54.3806 67.546 56.5067 66.6973L56.0291 72.8771Z" fill="#5740A0"/>
<path d="M55.8583 67.3593C55.8152 67.3669 55.7746 67.387 55.7406 67.4177C55.7065 67.4484 55.6801 67.4886 55.664 67.5342C55.6479 67.5799 55.6426 67.6296 55.6487 67.6783C55.6548 67.727 55.6721 67.773 55.6987 67.8119C55.4419 67.8798 55.3385 68.2227 55.2833 68.5135C54.4676 72.8137 54.5699 77.2531 54.3723 81.6404C54.3572 82.2872 54.29 82.9311 54.1716 83.5642C55.0207 83.621 55.8728 83.5785 56.7142 83.4374C57.3684 83.3242 58.0185 83.1568 58.6838 83.1998C59.2858 83.2382 59.8647 83.4521 60.4567 83.5743C61.3667 83.7611 62.3012 83.7326 63.201 83.4906C63.4127 82.6985 63.3796 81.8418 63.3013 81.0135C63.0856 78.6518 62.5377 76.3478 61.9969 74.054C61.7651 73.0785 61.5303 72.0962 61.1501 71.1808C60.91 70.6296 60.644 70.0932 60.3534 69.5739L58.4911 66.1145C58.4473 66.0077 58.3717 65.9216 58.2774 65.8712C58.1359 65.8191 57.9945 65.9357 57.8761 66.0409C57.2004 66.6549 56.4442 67.1466 55.6345 67.4984" fill="#5740A0"/>
<path d="M58.3236 64.9229C57.2754 65.5478 56.2667 66.2533 55.3044 67.0345C55.4152 67.2213 55.481 67.4374 55.4955 67.6616C55.5099 67.8858 55.4724 68.1103 55.3867 68.3132C56.5058 67.2508 57.7232 66.3277 59.0179 65.56C58.7814 65.3433 58.5353 65.1405 58.2804 64.9523" fill="#8879B9"/>
<path d="M70.2607 74.7793H50.7993V86.5392H70.2607V74.7793Z" fill="#5740A0"/>
<path d="M55.7118 74.7793H50.7993V86.5392H55.7118V74.7793Z" fill="#5740A0"/>
<path d="M69.5553 75.4561H64.8314V76.6103H69.5553V75.4561Z" fill="white"/>
<path d="M69.5553 77.0347H64.8314V78.1889H69.5553V77.0347Z" fill="white"/>
<path d="M57.4647 65.9707L58.438 65.5837C58.438 65.5837 58.7661 65.1718 61.1772 67.8142C63.5883 70.4565 67.1352 76.5945 67.1352 76.5945L62.3501 85.8002L60.7838 84.6686L62.917 76.487C62.917 76.487 51.7063 63.222 59.8306 66.4211" fill="#5740A0"/>
<path d="M60.8009 84.6053C60.4317 84.7184 60.1407 84.9447 59.8146 85.1711C59.7813 85.1905 59.7514 85.2166 59.7263 85.248C59.7014 85.2895 59.685 85.3366 59.6781 85.3861C59.5776 85.8712 59.4246 86.3406 59.2226 86.7836C59.6367 86.9116 60.0627 86.9849 60.4919 87.002C60.5476 87.0082 60.6039 87.0017 60.6574 86.9828C60.7238 86.9483 60.7799 86.8929 60.819 86.8232C60.9201 86.6715 61.0047 86.5066 61.0708 86.3321C61.5564 86.219 62.0059 86.1952 62.3471 85.8036C61.9146 85.5773 61.5303 85.11 61.123 84.8282C61.0185 84.744 60.9089 84.6684 60.7949 84.6019" fill="#FBB089"/>
<path d="M58.5764 58.6446C58.6236 58.6333 58.6697 58.6197 58.7159 58.605C58.6697 58.6197 58.6226 58.6322 58.5764 58.6446Z" fill="#E1C2B0"/>
<path d="M53.2475 61.4228C53.2408 61.5416 53.2428 61.6608 53.2535 61.7792C53.3007 62.3563 53.4602 62.6381 53.6649 62.7468C53.6795 62.7547 53.6946 62.7615 53.7101 62.7671C53.83 62.8107 53.9585 62.8146 54.0803 62.7784C54.0331 62.4129 53.991 62.0621 53.9609 61.76C53.9388 61.5427 53.9208 61.3481 53.9097 61.1862C53.8405 61.2406 53.5947 60.9248 53.5947 60.9248C53.385 60.9701 53.2796 61.184 53.2475 61.4228Z" fill="#E88A78"/>
<path d="M55.6175 64.7893C55.78 64.8471 56.0309 64.3921 56.1603 64.4272C56.3269 64.4725 56.4533 64.4996 56.5115 64.5121H56.5245V64.5211L56.5336 64.5143H56.5446V64.5053C56.5747 64.4849 56.6389 64.4397 56.7252 64.3752C56.7834 64.3322 56.8516 64.279 56.9259 64.2201C57.0593 64.107 57.4366 64.133 57.5921 63.9836C57.6212 64.2643 57.547 64.3774 57.7055 64.7599C57.6786 64.7972 57.6498 64.8327 57.6192 64.8663C57.5248 64.9733 57.4186 65.0661 57.3031 65.1424C57.1393 65.2522 56.9596 65.3287 56.7724 65.3687C56.6109 65.4028 56.446 65.4101 56.2827 65.3902C56.1233 65.3707 55.9676 65.3234 55.8212 65.2499C55.786 65.2318 55.7901 65.2035 55.7559 65.182C55.8021 64.9229 55.8493 65.5803 55.6175 64.7893Z" fill="#E88A78"/>
<path d="M58.3717 62.9222C58.5139 63.0112 58.6763 63.0506 58.8383 63.0353C58.8799 63.0289 58.9207 63.0167 58.9597 62.9991C59.1604 62.9052 59.337 62.6449 59.4383 62.1063C59.5467 61.5303 59.4383 61.2972 59.2677 61.2304C59.2462 61.2546 59.2206 61.2738 59.1925 61.287C59.0982 61.3922 58.7299 61.4114 58.6707 61.5291C58.6607 61.588 58.6487 61.6502 58.6356 61.7159C58.6306 61.7453 58.6246 61.7747 58.6186 61.8053L58.6095 61.8505C58.6035 61.8811 58.5965 61.9116 58.5905 61.9444V61.958C58.5784 62.0146 58.5664 62.0712 58.5543 62.1323L58.5413 62.1923C58.5413 62.1923 58.5413 62.1923 58.5413 62.1991C58.5343 62.2296 58.5273 62.2613 58.5212 62.2919C58.5152 62.3224 58.5112 62.3394 58.5052 62.3632C58.46 62.5442 58.4179 62.7309 58.3717 62.9222Z" fill="#E88A78"/>
<path d="M54.6994 60.333L55.9034 60.0614C55.8683 60.0401 55.8317 60.0219 55.7941 60.0071C55.63 59.9425 55.4539 59.9265 55.2827 59.9608C55.1116 59.9951 54.9511 60.0784 54.8168 60.2029C54.7737 60.2415 54.7344 60.2851 54.6994 60.333Z" fill="#FFECE6"/>
<path d="M53.9097 61.1829C53.9218 61.3447 53.9388 61.5393 53.9609 61.7566C53.992 62.0621 54.0331 62.4118 54.0803 62.775C54.1014 62.9391 54.1245 63.1066 54.1485 63.2741C54.1987 63.626 54.4415 63.9599 54.7405 64.2473C54.9297 64.4272 55.131 64.5903 55.3425 64.735C55.488 64.8357 55.6265 64.9218 55.7439 64.9908C55.8954 65.0802 56.0128 65.1413 56.066 65.1684L56.078 65.1752H56.0881H56.0991C56.1322 65.1628 56.1994 65.1368 56.2998 65.0983C56.365 65.0723 56.4432 65.0394 56.5275 65.0021C56.68 64.9342 56.8586 64.8482 57.0413 64.7452C57.2707 64.6183 57.4888 64.4667 57.6924 64.2926C57.9433 64.0753 58.143 63.8218 58.2142 63.54C58.2674 63.3295 58.3145 63.1202 58.3657 62.9165C58.4169 62.7128 58.453 62.5374 58.4921 62.3609C58.4921 62.3371 58.5032 62.3134 58.5082 62.2896C58.5132 62.2658 58.5222 62.2262 58.5283 62.1968C58.5283 62.1968 58.5283 62.1968 58.5283 62.19C58.5283 62.1696 58.5373 62.1493 58.5413 62.13C58.5543 62.07 58.5664 62.0169 58.5774 61.9558V61.9422C58.5834 61.9105 58.5905 61.8788 58.5965 61.8483L58.6055 61.803C58.6115 61.7724 58.6176 61.743 58.6226 61.7136C58.6356 61.6479 58.6477 61.5846 58.6577 61.5269C58.6549 61.5327 58.6526 61.5387 58.6507 61.545C58.6386 61.4578 58.6276 61.3696 58.6165 61.2824C58.5303 61.1138 58.4018 60.8649 58.2533 60.5786L58.1731 60.4247L58.0667 60.2198L57.9854 60.0637C57.9573 60.0116 57.9302 59.9584 57.9021 59.9052L57.7697 59.6529C57.5984 59.8047 57.4195 59.9452 57.2339 60.0739C57.2026 60.0741 57.1714 60.0771 57.1406 60.0829L57.1847 60.1078C56.2905 60.707 55.2747 61.037 54.2348 61.0663H54.0843C54.0863 61.0753 53.9218 61.1964 53.9097 61.1829Z" fill="#FBB089"/>
<path d="M58.465 55.9762L58.4339 55.9559C58.6854 56.1867 58.9097 56.4529 59.1012 56.748C58.9559 56.4298 58.7358 56.1628 58.465 55.9762ZM57.1627 60.0954C55.7911 60.3217 54.1164 60.5242 52.7087 60.4643L52.7217 60.488C52.8221 60.6872 52.9575 61.0934 53.1231 61.3096C53.157 61.3558 53.1986 61.3943 53.2455 61.4228C53.2766 61.184 53.382 60.9701 53.5917 60.9226C53.5917 60.9226 53.8385 61.2372 53.9077 61.184C53.9137 61.1919 54.0843 61.0708 54.0933 61.0708H54.2439C55.284 61.0416 56.3001 60.7116 57.1948 60.1123L57.1627 60.0954ZM52.9716 56.7605L52.9926 56.7706C53.1693 56.4955 53.3744 56.2451 53.6037 56.0249C53.3508 56.2191 53.1358 56.4693 52.9716 56.7605Z" fill="#8879B9"/>
<path d="M59.8336 59.5477C59.7925 59.7434 59.7514 59.9403 59.7052 60.1327C59.6781 60.2459 59.649 60.359 59.6179 60.4722L59.3109 61.184L59.2798 61.2179L59.2687 61.2304C59.2473 61.2547 59.2217 61.274 59.1935 61.287C59.0992 61.3922 58.7309 61.4114 58.6717 61.5291C58.669 61.5349 58.6666 61.541 58.6647 61.5472C58.6537 61.4601 58.6416 61.3718 58.6306 61.2847C58.6306 61.2508 58.6216 61.2168 58.6176 61.1829C58.5594 60.74 58.5015 60.2983 58.444 59.8577L58.9216 59.7593C59.3229 59.6744 59.6089 59.6076 59.7433 59.5748L59.8226 59.5556V59.5477H59.8336Z" fill="#8879B9"/>
<path d="M57.7817 59.6597L57.9142 59.912L57.9975 60.0705L58.0787 60.2266L58.1851 60.4314L58.2654 60.5853C58.4139 60.8716 58.5413 61.1206 58.6286 61.2892C58.6286 61.2553 58.6196 61.2213 58.6155 61.1885C58.5393 60.6076 58.4634 60.0275 58.3878 59.4481C58.3717 59.3281 58.3567 59.2093 58.3406 59.0893L58.2403 59.2025C58.0947 59.364 57.9417 59.5166 57.7817 59.6597Z" fill="#E88A78"/>
<path d="M56.6078 56.4685C56.6449 56.4685 56.6831 56.4764 56.7202 56.4821C56.7573 56.4877 56.7834 56.4911 56.8145 56.4979L56.8787 56.5104L56.9459 56.5262L57.0122 56.5443C57.0416 56.5519 57.0707 56.5609 57.0994 56.5715C57.1366 56.5839 57.1747 56.5975 57.2108 56.6122L57.2419 56.6246C57.266 56.6348 57.2911 56.6439 57.3152 56.6552L57.3573 56.6744L57.3874 56.688C57.399 56.693 57.4104 56.6987 57.4215 56.705L57.5219 56.7582C57.555 56.7763 57.5881 56.7955 57.6222 56.8159C57.6563 56.8363 57.6573 56.8374 57.6744 56.8487L57.7115 56.8736L57.7215 56.8804L57.7426 56.8951L57.7697 56.9144C57.8819 56.9934 57.9889 57.0815 58.0898 57.178L58.1058 57.1939C58.1806 57.265 58.2519 57.3405 58.3196 57.4202C58.3296 57.4326 58.3396 57.4439 58.3486 57.4564C58.3577 57.4688 58.3787 57.4937 58.3928 57.513L58.4349 57.5696C58.452 57.5922 58.468 57.616 58.4841 57.6386C58.5002 57.6612 58.5032 57.6658 58.5122 57.6805C58.5212 57.6952 58.5433 57.7291 58.5584 57.754L58.5935 57.8117C58.6015 57.8253 58.6095 57.8389 58.6165 57.8525L58.6286 57.874C58.6336 57.8819 58.6366 57.8898 58.6416 57.8966C58.6567 57.9249 58.6717 57.9532 58.6858 57.9826C58.6998 58.012 58.7139 58.0403 58.7269 58.0709C58.74 58.1014 58.753 58.1297 58.7651 58.1603C58.7771 58.1908 58.7891 58.2202 58.8002 58.2508C58.8112 58.2814 58.8112 58.2814 58.8162 58.2961C58.8212 58.2825 58.8252 58.2678 58.8293 58.2542L58.8373 58.2248V58.2146C58.8373 58.2044 58.8423 58.1931 58.8453 58.1829C58.8483 58.1727 58.8564 58.1342 58.8614 58.1093C58.8664 58.0844 58.8614 58.0912 58.8664 58.0822C58.8669 58.0731 58.8669 58.0641 58.8664 58.055L58.8724 58.0086C58.8729 58.0056 58.8729 58.0026 58.8724 57.9996C58.8729 57.9954 58.8729 57.9913 58.8724 57.9871C58.8724 57.9736 58.8724 57.9611 58.8724 57.9475C58.8729 57.9445 58.8729 57.9415 58.8724 57.9385C58.8724 57.9181 58.8724 57.8989 58.8724 57.8785C58.8724 57.8581 58.8724 57.8445 58.8724 57.8276C58.8724 57.8106 58.8724 57.7699 58.8724 57.7416V57.7257C58.8729 57.7148 58.8729 57.7038 58.8724 57.6929C58.8729 57.6827 58.8729 57.6725 58.8724 57.6624C58.8724 57.6409 58.8724 57.6182 58.8724 57.5967C58.8724 57.5967 58.8724 57.5967 58.8724 57.5899C58.8724 57.5673 58.8674 57.5458 58.8644 57.5232C58.8614 57.5005 58.8644 57.4903 58.8564 57.4734L58.8473 57.4236C58.8473 57.4168 58.8473 57.4089 58.8473 57.4021C58.8456 57.3921 58.8432 57.3823 58.8403 57.3727C58.8403 57.3591 58.8343 57.3455 58.8303 57.3319C58.8307 57.3263 58.8307 57.3206 58.8303 57.3149C58.8303 57.3025 58.8242 57.2889 58.8202 57.2765C58.8112 57.2437 58.8012 57.212 58.7911 57.1803L58.7761 57.1361C58.764 57.1033 58.751 57.0716 58.738 57.04L58.7229 57.006L58.6958 56.9506C58.6958 56.9392 58.6848 56.9291 58.6788 56.9177C58.6727 56.9064 58.6667 56.8962 58.6617 56.8849C58.6567 56.8736 58.6376 56.8419 58.6246 56.8216L58.5985 56.7797C58.5844 56.7593 58.5714 56.7389 58.5574 56.7197L58.5132 56.662C58.5036 56.6488 58.4932 56.6363 58.4821 56.6246C58.4678 56.6072 58.4527 56.5906 58.4369 56.5749L58.3898 56.5273L58.3577 56.4968L58.3125 56.4583L58.2814 56.4334L58.2333 56.3972L58.1841 56.3644C58.173 56.3569 58.1617 56.3501 58.15 56.344L58.1159 56.3248L58.0838 56.3078L58.0396 56.2863L58.0065 56.2704H57.9914L57.9754 56.2637L57.9433 56.2512L57.9032 56.2365C57.871 56.2252 57.8379 56.215 57.8028 56.2071L57.7557 56.1958L57.7115 56.1867H57.6965H57.6894L57.6523 56.1811H57.6062H57.5851H57.55H57.4938H57.4336C57.4015 56.1811 57.3704 56.1811 57.3332 56.1811H57.3021L57.2389 56.1901L57.1767 56.2026L57.1145 56.2173L57.0533 56.2354L56.9981 56.2546H56.9861L56.9449 56.2704L56.9269 56.2784L56.8757 56.3021L56.8326 56.3248L56.7954 56.3451H56.7854L56.7493 56.3666C56.6998 56.3964 56.6525 56.4305 56.6078 56.4685Z" fill="#82635A"/>
<path d="M59.8256 59.5499V59.5578L59.7463 59.5771L59.8035 59.5578L59.8256 59.5499Z" fill="#82635A"/>
<path d="M58.1721 61.3277L56.968 60.8128C57.1909 60.736 57.4301 60.7449 57.6481 60.8381C57.866 60.9313 58.0503 61.1035 58.1721 61.3277Z" fill="#5740A0"/>
<path d="M55.2161 60.9701L54.1826 61.3322C54.3038 61.1633 54.4667 61.0387 54.6506 60.9742C54.8346 60.9098 55.0314 60.9083 55.2161 60.9701Z" fill="#5740A0"/>
<path d="M54.8479 61.3379C54.9853 61.2892 55.1489 61.4352 55.2101 61.6627C55.2713 61.8901 55.2101 62.1153 55.0757 62.1606C54.9412 62.2058 54.7746 62.0644 54.7134 61.8369C54.6522 61.6095 54.7114 61.3865 54.8479 61.3379Z" fill="#5740A0"/>
<path d="M57.1205 61.3718C57.263 61.3571 57.3944 61.537 57.4135 61.7747C57.4326 62.0123 57.3322 62.216 57.1888 62.2273C57.0453 62.2386 56.9148 62.061 56.8958 61.8245C56.8767 61.588 56.977 61.3865 57.1205 61.3718Z" fill="#5740A0"/>
<path d="M55.6867 61.1964C55.7449 61.5178 55.8021 61.8392 55.8603 62.1606C55.8497 62.1201 55.8307 62.0831 55.8048 62.0526C55.7789 62.0221 55.747 61.999 55.7116 61.9852C55.6762 61.9715 55.6384 61.9675 55.6014 61.9735C55.5644 61.9796 55.5292 61.9955 55.4987 62.0201C55.4682 62.0446 55.4434 62.077 55.4263 62.1145C55.4092 62.152 55.4003 62.1936 55.4003 62.2358C55.4004 62.2781 55.4093 62.3196 55.4265 62.3571C55.4437 62.3946 55.4686 62.4269 55.4991 62.4514L56.1282 62.9538" fill="#FB6562"/>
<path d="M55.5181 63.4382C55.8961 63.5548 56.2971 63.5344 56.6642 63.3798C57.0314 63.2253 57.3462 62.9444 57.564 62.577C57.5878 62.8623 57.5293 63.1486 57.3971 63.3933C57.2649 63.638 57.0662 63.828 56.8305 63.935C56.356 64.1387 55.771 63.9293 55.5181 63.4382Z" fill="white"/>
<path d="M46.2861 63.2594C46.3864 62.4914 46.4868 61.7234 46.5871 60.9554C46.6142 60.746 46.4065 60.5638 46.2209 60.5967C46.1291 60.6213 46.0451 60.6741 45.9781 60.7492C45.9112 60.8243 45.864 60.9187 45.8416 61.0222C45.7988 61.2291 45.791 61.4434 45.8185 61.6536C45.6252 61.5524 45.4184 61.4878 45.2065 61.4624C45.1002 61.4508 44.9931 61.4685 44.8942 61.5138C44.7953 61.5591 44.7076 61.6308 44.6386 61.7226C44.5301 61.8883 44.4614 62.0828 44.4394 62.2873C44.4173 62.4917 44.4426 62.6991 44.5127 62.8893C44.5828 63.0795 44.6954 63.2459 44.8395 63.3725C44.9836 63.499 45.1542 63.5813 45.3349 63.6113C45.3449 63.6826 45.354 63.7539 45.364 63.8252C45.6334 63.5668 45.9474 63.3742 46.2861 63.2594Z" fill="#FBB089"/>
<path d="M46.9644 64.0255L45.2586 64.6615C45.2035 64.3831 45.1503 64.0957 45.0981 63.8014L46.3824 63.2039C46.3824 63.2039 46.6072 63.5117 46.9644 64.0255Z" fill="#8879B9"/>
<path d="M59.8336 59.2727C59.8336 59.3677 59.8336 59.4628 59.8256 59.5556L59.8025 59.5635H52.2853C52.2793 59.4673 52.2762 59.3711 52.2762 59.2727C52.2762 59.1742 52.2762 59.0463 52.2883 58.9332C52.3233 58.427 52.4388 57.9322 52.6294 57.4722C52.7302 57.2275 52.8518 56.9944 52.9926 56.7763C53.3998 56.1414 53.9541 55.6453 54.5948 55.3423C55.2355 55.0394 55.9378 54.9413 56.6246 55.0589C57.3115 55.1765 57.9563 55.5053 58.4884 56.009C59.0205 56.5128 59.4193 57.1721 59.641 57.9147C59.6691 58.0086 59.6942 58.1048 59.7162 58.201C59.7945 58.5514 59.834 58.9113 59.8336 59.2727Z" fill="#5740A0"/>
<path d="M59.8025 59.5578L59.7453 59.5771C59.6109 59.6099 59.3219 59.6766 58.9236 59.7615C58.7781 59.7921 58.6226 59.826 58.446 59.86C58.0707 59.9347 57.6373 60.0161 57.1677 60.0942C55.7961 60.3205 54.1214 60.5231 52.7137 60.4631C52.0114 60.4337 51.3782 60.3387 50.8795 60.1497C50.8725 60.1497 50.8795 60.1497 50.8795 60.1361C50.8464 59.4571 52.2843 59.559 52.2843 59.559H59.8096L59.8025 59.5578Z" fill="#5740A0"/>
<path d="M73.6972 84.1571V104.793C73.6975 105.184 73.6726 105.574 73.623 105.96H23.8015C23.7519 105.574 23.7271 105.184 23.7273 104.793V84.1571C23.7273 82.0016 24.4865 79.9344 25.8379 78.4102C27.1894 76.8861 29.0223 76.0298 30.9335 76.0298H66.49C67.4364 76.0296 68.3736 76.2397 69.248 76.6481C70.1224 77.0565 70.917 77.6551 71.5862 78.4098C72.2555 79.1645 72.7864 80.0605 73.1486 81.0467C73.5108 82.0328 73.6972 83.0897 73.6972 84.1571Z" fill="#8879B9"/>
<path d="M42.7623 76.0298H42.7302V76.0286L42.7623 76.0298Z" fill="#A54545"/>
<path d="M38.0936 74.4772V74.5168H41.3124L38.0936 74.4772ZM38.0936 74.4772V74.5168H41.3124L38.0936 74.4772ZM38.0936 74.4772V74.5168H41.3124L38.0936 74.4772ZM48.2166 50.592C46.4 50.592 44.6321 51.2546 43.1769 52.481C41.7217 53.7073 40.6573 55.4316 40.1425 57.3964L35.2831 75.9449L41.9254 76.0287H65.282V74.9525H42.372L36.0577 74.8755L38.0936 67.3932L40.6773 57.8966C41.6806 54.203 44.8051 51.6727 48.351 51.6727H65.8188V52.0925H66.5924V50.5965L48.2166 50.592ZM38.0936 74.4772V74.5168H41.3124L38.0936 74.4772ZM38.0936 74.4772V74.5168H41.3124L38.0936 74.4772Z" fill="#8879B9"/>
<path d="M38.0936 74.4772V74.5168H41.3124L38.0936 74.4772Z" fill="#E87979"/>
<path d="M65.8198 52.088V51.6681H48.3511C44.8051 51.6681 41.6816 54.203 40.6773 57.8921L38.0936 67.3887L36.0617 74.8755L42.376 74.9525H65.283V102.028H66.5934V52.0868H65.8198V52.088ZM42.7101 74.5338H42.684L41.3154 74.5168H38.0936V68.9492L38.517 67.3943L41.0475 58.0935C42.0158 54.5334 45.0269 52.0959 48.4454 52.0959H65.283V74.5406H42.7071L42.7101 74.5338Z" fill="#5740A0"/>
<path d="M41.3124 74.5168H38.0936V74.4772L41.3124 74.5168Z" fill="#F7BCBC"/>
<path d="M23.7403 93.1083V99.9693H23.656C23.1214 99.9691 22.5962 99.8101 22.1333 99.5082C21.6705 99.2063 21.2863 98.7723 21.0194 98.2498C20.7525 97.7273 20.6124 97.1347 20.613 96.5317C20.6137 95.9287 20.7552 95.3365 21.0232 94.8148C21.2915 94.2956 21.6758 93.8649 22.1378 93.5655C22.5997 93.266 23.1232 93.1084 23.656 93.1083H23.7403Z" fill="#5740A0"/>
<path d="M23.7403 98.4269V99.9739H23.656C23.1214 99.9736 22.5962 99.8146 22.1333 99.5127C21.6705 99.2109 21.2863 98.7768 21.0194 98.2543C20.7525 97.7318 20.6124 97.1393 20.613 96.5363C20.6137 95.9332 20.7552 95.3411 21.0232 94.8193C21.1568 94.5592 21.3204 94.3202 21.5098 94.1086C21.794 95.7932 22.5812 97.3172 23.7403 98.4269Z" fill="#FDEC88"/>
<path d="M23.2186 99.9354C22.7266 99.854 22.2598 99.638 21.8589 99.3062C21.458 98.9743 21.1354 98.5368 20.9191 98.0318C20.7028 97.5269 20.5994 96.9698 20.6181 96.4094C20.6368 95.849 20.7769 95.3023 21.0262 94.817C21.0111 96.7646 21.864 98.7178 23.2186 99.9354Z" fill="#FDFDFC"/>
<path d="M23.8086 92.9634C25.121 95.0558 25.0457 98.1214 23.634 100.129C23.6199 97.7989 23.6019 95.4689 23.8086 92.9634Z" fill="#5740A0"/>
<path d="M136.037 42.9772H66.5934V102.029H136.037V42.9772Z" fill="#8879B9"/>
<path d="M58.7259 102.253H32.1064C32.8422 98.899 34.5527 95.9196 36.9651 93.79C39.3775 91.6605 42.3527 90.5034 45.4162 90.5034C48.4797 90.5034 51.4549 91.6605 53.8673 93.79C56.2796 95.9196 57.9901 98.899 58.7259 102.253Z" fill="#5740A0"/>
<path d="M128.835 102.253H101.422C101.422 95.7631 107.558 90.5022 115.128 90.5022C122.697 90.5022 128.835 95.7631 128.835 102.253Z" fill="#5740A0"/>
<path d="M139.979 103.995C139.979 104.516 139.795 105.016 139.468 105.384C139.141 105.753 138.698 105.96 138.236 105.96H21.7446C21.2824 105.96 20.8391 105.753 20.5122 105.384C20.1854 105.016 20.0018 104.516 20.0018 103.995C20.0018 103.473 20.1854 102.973 20.5122 102.605C20.8391 102.236 21.2824 102.029 21.7446 102.029H138.236C138.465 102.029 138.692 102.08 138.903 102.179C139.115 102.277 139.307 102.422 139.469 102.605C139.63 102.787 139.759 103.004 139.846 103.242C139.934 103.481 139.979 103.736 139.979 103.995Z" fill="#5740A0"/>
<path d="M45.4162 118.702C52.0055 118.702 57.3473 112.997 57.3473 105.96C57.3473 98.9229 52.0055 93.2181 45.4162 93.2181C38.8268 93.2181 33.4851 98.9229 33.4851 105.96C33.4851 112.997 38.8268 118.702 45.4162 118.702Z" fill="#5740A0"/>
<path d="M45.4162 115.784C50.4961 115.784 54.6141 111.386 54.6141 105.96C54.6141 100.535 50.4961 96.1365 45.4162 96.1365C40.3363 96.1365 36.2183 100.535 36.2183 105.96C36.2183 111.386 40.3363 115.784 45.4162 115.784Z" fill="#8879B9"/>
<path d="M45.4162 114.15C49.651 114.15 53.084 110.483 53.084 105.96C53.084 101.437 49.651 97.7706 45.4162 97.7706C41.1814 97.7706 37.7484 101.437 37.7484 105.96C37.7484 110.483 41.1814 114.15 45.4162 114.15Z" fill="#5740A0"/>
<path d="M115.129 118.702C121.718 118.702 127.06 112.997 127.06 105.96C127.06 98.9229 121.718 93.2181 115.129 93.2181C108.539 93.2181 103.197 98.9229 103.197 105.96C103.197 112.997 108.539 118.702 115.129 118.702Z" fill="#5740A0"/>
<path d="M115.129 115.784C120.208 115.784 124.326 111.386 124.326 105.96C124.326 100.535 120.208 96.1365 115.129 96.1365C110.049 96.1365 105.931 100.535 105.931 105.96C105.931 111.386 110.049 115.784 115.129 115.784Z" fill="#8879B9"/>
<path d="M115.129 114.15C119.363 114.15 122.796 110.483 122.796 105.96C122.796 101.437 119.363 97.7706 115.129 97.7706C110.894 97.7706 107.461 101.437 107.461 105.96C107.461 110.483 110.894 114.15 115.129 114.15Z" fill="#5740A0"/>
<path d="M39.1662 68.9492H38.0936V78.6257H39.1662V68.9492Z" fill="#5740A0"/>
<path d="M38.0936 74.4772H35.2841V75.9449H38.0936V74.4772Z" fill="#5740A0"/>
<path d="M42.5275 74.9536V66.5479C42.5275 66.1727 42.6596 65.8129 42.8948 65.5477C43.13 65.2824 43.449 65.1334 43.7817 65.1334V74.9536H42.5275Z" fill="#5740A0"/>
<path d="M95.4794 79.8151C95.4794 79.5432 95.5752 79.2824 95.7457 79.0901C95.9162 78.8978 96.1474 78.7898 96.3885 78.7898H131.105C131.346 78.7898 131.577 78.8978 131.748 79.0901C131.918 79.2824 132.014 79.5432 132.014 79.8151C132.014 80.087 131.918 80.3478 131.748 80.54C131.577 80.7323 131.346 80.8403 131.105 80.8403H96.3885C96.1474 80.8403 95.9162 80.7323 95.7457 80.54C95.5752 80.3478 95.4794 80.087 95.4794 79.8151Z" fill="#5740A0"/>
<path d="M68.7897 46.3721C68.7897 46.1002 68.8855 45.8394 69.056 45.6471C69.2265 45.4549 69.4577 45.3469 69.6988 45.3469H133.302C133.543 45.3469 133.774 45.4549 133.944 45.6471C134.115 45.8394 134.211 46.1002 134.211 46.3721C134.211 46.644 134.115 46.9048 133.944 47.0971C133.774 47.2893 133.543 47.3974 133.302 47.3974H69.6988C69.4577 47.3974 69.2265 47.2893 69.056 47.0971C68.8855 46.9048 68.7897 46.644 68.7897 46.3721Z" fill="#5740A0"/>
<path d="M108.83 83.5494C108.83 83.2775 108.926 83.0167 109.097 82.8245C109.267 82.6322 109.498 82.5242 109.739 82.5242H130.899C131.141 82.5242 131.372 82.6322 131.542 82.8245C131.713 83.0167 131.809 83.2775 131.809 83.5494C131.809 83.8213 131.713 84.0821 131.542 84.2744C131.372 84.4667 131.141 84.5747 130.899 84.5747H109.739C109.498 84.5747 109.267 84.4667 109.097 84.2744C108.926 84.0821 108.83 83.8213 108.83 83.5494Z" fill="#5740A0"/>
<path d="M115.152 87.2838C115.152 87.0119 115.247 86.7511 115.418 86.5588C115.588 86.3666 115.82 86.2585 116.061 86.2585H131.1C131.341 86.2585 131.572 86.3666 131.743 86.5588C131.913 86.7511 132.009 87.0119 132.009 87.2838C132.009 87.5557 131.913 87.8165 131.743 88.0088C131.572 88.201 131.341 88.3091 131.1 88.3091H116.061C115.82 88.3091 115.588 88.201 115.418 88.0088C115.247 87.8165 115.152 87.5557 115.152 87.2838Z" fill="#5740A0"/>
</svg>
