<svg xmlns="http://www.w3.org/2000/svg">









<symbol id="angle" viewBox="0 0 23 23">

  <path d="M5.72102 8.11677C6.0017 7.83608 6.45679 7.83608 6.73748 8.11677L11.9792 13.3585L17.221 8.11677C17.5017 7.83608 17.9568 7.83608 18.2375 8.11677C18.5182 8.39746 18.5182 8.85254 18.2375 9.13323L12.4875 14.8832C12.2068 15.1639 11.7517 15.1639 11.471 14.8832L5.72102 9.13323C5.44033 8.85254 5.44033 8.39746 5.72102 8.11677Z" fill="#6E627A"/>

</symbol>

<symbol id="plus" viewBox="0 0 23 23">
  <path fill-rule="evenodd" clip-rule="evenodd" d="M11.5301 4.073C11.927 4.07352 12.2484 4.39574 12.2479 4.79269L12.2303 18.2094C12.2298 18.6063 11.9076 18.9277 11.5106 18.9272C11.1136 18.9266 10.7923 18.6044 10.7928 18.2075L10.8104 4.79081C10.8109 4.39385 11.1331 4.07248 11.5301 4.073Z" fill="#6E627A"/>
  <path fill-rule="evenodd" clip-rule="evenodd" d="M4.073 11.5001C4.073 11.1031 4.39479 10.7813 4.79175 10.7813H18.2084C18.6054 10.7813 18.9272 11.1031 18.9272 11.5001C18.9272 11.897 18.6054 12.2188 18.2084 12.2188H4.79175C4.39479 12.2188 4.073 11.897 4.073 11.5001Z" fill="#6E627A"/>
</symbol>

<symbol id="check" viewBox="0 0 23 23">
  <path fill-rule="evenodd" clip-rule="evenodd" d="M20.5303 6.46967C20.8232 6.76256 20.8232 7.23744 20.5303 7.53033L10.5303 17.5303C10.2374 17.8232 9.76256 17.8232 9.46967 17.5303L4.46967 12.5303C4.17678 12.2374 4.17678 11.7626 4.46967 11.4697C4.76256 11.1768 5.23744 11.1768 5.53033 11.4697L10 15.9393L19.4697 6.46967C19.7626 6.17678 20.2374 6.17678 20.5303 6.46967Z" fill="white" stroke="white" stroke-linecap="round" stroke-linejoin="round"/>
</symbol>
  

<!-- partners -->








<!-- partners end -->

<!-- advantages -->

<symbol id="advantage1" viewBox="0 0 80 80" fill='none'>

  <path d="M40.773 22.4974L54.8827 26.26C55.3204 26.3767 55.625 26.7732 55.625 27.2262V44.0802C55.625 46.0863 54.6224 47.9597 52.9532 49.0725L40.5547 57.3381C40.2188 57.5621 39.7812 57.5621 39.4453 57.3381L27.0468 49.0725C25.3776 47.9597 24.375 46.0863 24.375 44.0802V27.2262C24.375 26.7732 24.6796 26.3767 25.1173 26.26L39.227 22.4974C39.7335 22.3623 40.2665 22.3623 40.773 22.4974Z" stroke="white" stroke-width="3" stroke-linecap="round"/>
  <path d="M34.7917 38.9587L38.7816 42.9486C38.8792 43.0463 39.0375 43.0463 39.1351 42.9486L46.25 35.8337" stroke="white" stroke-width="3" stroke-linecap="round"/>


</symbol>  

<symbol id="advantage2" viewBox="0 0 80 80" fill='none'>


  <path d="M20.2083 23.4083C20.2083 22.2882 20.2083 21.7282 20.4263 21.3003C20.6181 20.924 20.924 20.6181 21.3004 20.4263C21.7282 20.2083 22.2882 20.2083 23.4083 20.2083H56.5917C57.7118 20.2083 58.2718 20.2083 58.6997 20.4263C59.076 20.6181 59.3819 20.924 59.5737 21.3003C59.7917 21.7282 59.7917 22.2882 59.7917 23.4083V56.5917C59.7917 57.7118 59.7917 58.2718 59.5737 58.6996C59.3819 59.076 59.076 59.3819 58.6997 59.5737C58.2718 59.7917 57.7118 59.7917 56.5917 59.7917H23.4083C22.2882 59.7917 21.7282 59.7917 21.3004 59.5737C20.924 59.3819 20.6181 59.076 20.4263 58.6996C20.2083 58.2718 20.2083 57.7118 20.2083 56.5917V23.4083Z" stroke="white" stroke-width="3" stroke-linecap="round"/>
  <path d="M41.0417 46.3113C41.0417 51.215 35.7402 54.5278 34.1781 55.3974C33.9088 55.5474 33.5912 55.5474 33.3219 55.3974C31.7598 54.5278 26.4583 51.215 26.4583 46.3113C26.4583 41.8995 29.9914 38.9583 33.75 38.9583C37.6389 38.9583 41.0417 41.8995 41.0417 46.3113Z" stroke="white" stroke-width="2"/>
  <path d="M53.5417 59.7917L41.0417 28.5417" stroke="white" stroke-width="3"/>
  <path d="M59.7917 24.375L20.2083 32.7083" stroke="white" stroke-width="3"/>
  <ellipse cx="33.75" cy="46.25" rx="2.08333" ry="2.08333" fill="white"/>



</symbol>

<symbol id="advantage3" viewBox="0 0 80 80" fill='none'>
  
  <path d="M42.0833 50.417H33.75V56.2555C33.75 56.4224 33.5577 56.5159 33.4264 56.4128L19.1667 45.2087L33.4264 34.0046C33.5577 33.9014 33.75 33.9949 33.75 34.1618V40.0003H46.25" stroke="white" stroke-width="3"/>
  <path d="M37.9167 29.583H46.25V23.7445C46.25 23.5776 46.4423 23.4841 46.5736 23.5872L60.8333 34.7913L46.5736 45.9954C46.4423 46.0986 46.25 46.0051 46.25 45.8382V39.9997H33.75" stroke="white" stroke-width="3"/>

</symbol> 

<symbol id="advantages1" viewBox="0 0 50 50" >
  <path d="M22.9167 18.75H31.25C31.8025 18.75 32.3324 18.5305 32.7231 18.1398C33.1138 17.7491 33.3333 17.2192 33.3333 16.6667C33.3333 16.1141 33.1138 15.5842 32.7231 15.1935C32.3324 14.8028 31.8025 14.5833 31.25 14.5833H27.0833V12.5C27.0833 11.9475 26.8638 11.4176 26.4731 11.0269C26.0824 10.6362 25.5525 10.4167 25 10.4167C24.4475 10.4167 23.9176 10.6362 23.5269 11.0269C23.1361 11.4176 22.9167 11.9475 22.9167 12.5V14.5833C21.2591 14.5833 19.6693 15.2418 18.4972 16.4139C17.3251 17.586 16.6667 19.1757 16.6667 20.8333C16.6667 22.4909 17.3251 24.0806 18.4972 25.2527C19.6693 26.4249 21.2591 27.0833 22.9167 27.0833H27.0833C27.6359 27.0833 28.1658 27.3028 28.5565 27.6935C28.9472 28.0842 29.1667 28.6141 29.1667 29.1667C29.1667 29.7192 28.9472 30.2491 28.5565 30.6398C28.1658 31.0305 27.6359 31.25 27.0833 31.25H18.75C18.1975 31.25 17.6676 31.4695 17.2769 31.8602C16.8861 32.2509 16.6667 32.7808 16.6667 33.3333C16.6667 33.8859 16.8861 34.4158 17.2769 34.8065C17.6676 35.1972 18.1975 35.4167 18.75 35.4167H22.9167V37.5C22.9167 38.0525 23.1361 38.5824 23.5269 38.9731C23.9176 39.3638 24.4475 39.5833 25 39.5833C25.5525 39.5833 26.0824 39.3638 26.4731 38.9731C26.8638 38.5824 27.0833 38.0525 27.0833 37.5V35.4167C28.7409 35.4167 30.3306 34.7582 31.5027 33.5861C32.6748 32.414 33.3333 30.8243 33.3333 29.1667C33.3333 27.5091 32.6748 25.9193 31.5027 24.7472C30.3306 23.5751 28.7409 22.9167 27.0833 22.9167H22.9167C22.3641 22.9167 21.8342 22.6972 21.4435 22.3065C21.0528 21.9158 20.8333 21.3859 20.8333 20.8333C20.8333 20.2808 21.0528 19.7509 21.4435 19.3602C21.8342 18.9695 22.3641 18.75 22.9167 18.75V18.75ZM25 2.08333C20.4675 2.08333 16.0368 3.42737 12.2682 5.94548C8.49955 8.4636 5.56226 12.0427 3.82775 16.2302C2.09324 20.4176 1.63942 25.0254 2.52366 29.4708C3.40791 33.9162 5.59051 37.9996 8.79546 41.2045C12.0004 44.4095 16.0838 46.5921 20.5292 47.4763C24.9746 48.3606 29.5823 47.9067 33.7698 46.1722C37.9573 44.4377 41.5364 41.5004 44.0545 37.7318C46.5726 33.9632 47.9167 29.5325 47.9167 25C47.9167 18.9221 45.5022 13.0932 41.2045 8.79547C36.9068 4.49776 31.0779 2.08333 25 2.08333V2.08333ZM25 43.75C21.2916 43.75 17.6665 42.6503 14.583 40.5901C11.4996 38.5298 9.09639 35.6014 7.67725 32.1753C6.25811 28.7492 5.88679 24.9792 6.61027 21.3421C7.33374 17.7049 9.1195 14.364 11.7417 11.7417C14.364 9.11951 17.7049 7.33374 21.342 6.61027C24.9792 5.8868 28.7492 6.25811 32.1753 7.67725C35.6014 9.0964 38.5298 11.4996 40.59 14.5831C42.6503 17.6665 43.75 21.2916 43.75 25C43.75 29.9728 41.7745 34.7419 38.2582 38.2582C34.7419 41.7746 29.9728 43.75 25 43.75V43.75Z" fill="#5740A0"/>
 
  
</symbol>  

<symbol id="advantages2" viewBox="0 0 50 50" >
  
 
  <path d="M22.8379 32.6712C22.7322 32.7881 22.6337 32.9112 22.5429 33.04C22.4499 33.177 22.3755 33.3258 22.3217 33.4825C22.2508 33.6219 22.2011 33.771 22.1742 33.925C22.1621 34.0887 22.1621 34.253 22.1742 34.4167C22.1659 34.7391 22.2332 35.0591 22.3708 35.3508C22.4813 35.6559 22.6574 35.933 22.8868 36.1624C23.1162 36.3918 23.3933 36.5679 23.6983 36.6783C23.9926 36.8084 24.3108 36.8756 24.6325 36.8756C24.9542 36.8756 25.2724 36.8084 25.5667 36.6783C25.8717 36.5679 26.1488 36.3918 26.3782 36.1624C26.6076 35.933 26.7838 35.6559 26.8942 35.3508C27.0033 35.0519 27.0534 34.7347 27.0417 34.4167C27.0435 34.0931 26.9815 33.7724 26.8592 33.4729C26.7369 33.1734 26.5566 32.901 26.3288 32.6712C26.1002 32.4408 25.8283 32.2579 25.5288 32.1331C25.2292 32.0083 24.9079 31.9441 24.5833 31.9441C24.2588 31.9441 23.9375 32.0083 23.6379 32.1331C23.3384 32.2579 23.0665 32.4408 22.8379 32.6712ZM24.5833 0C19.7212 0 14.9683 1.44179 10.9256 4.14304C6.88287 6.84429 3.73196 10.6837 1.87131 15.1757C0.0106516 19.6677 -0.47618 24.6106 0.472373 29.3793C1.42093 34.148 3.76226 38.5283 7.2003 41.9664C10.6383 45.4044 15.0187 47.7458 19.7874 48.6943C24.5561 49.6429 29.499 49.156 33.991 47.2954C38.483 45.4347 42.3224 42.2838 45.0236 38.2411C47.7249 34.1984 49.1667 29.4455 49.1667 24.5833C49.1667 21.355 48.5308 18.1583 47.2954 15.1757C46.06 12.1931 44.2492 9.48306 41.9664 7.20029C39.6836 4.91752 36.9736 3.10672 33.991 1.87129C31.0084 0.635867 27.8117 0 24.5833 0V0ZM24.5833 44.25C20.6936 44.25 16.8913 43.0966 13.6571 40.9356C10.423 38.7746 7.90224 35.7031 6.41371 32.1094C4.92519 28.5158 4.53573 24.5615 5.29457 20.7466C6.05341 16.9316 7.92648 13.4273 10.6769 10.6769C13.4273 7.92647 16.9316 6.0534 20.7466 5.29456C24.5615 4.53571 28.5158 4.92518 32.1095 6.4137C35.7031 7.90223 38.7746 10.423 40.9356 13.6571C43.0966 16.8913 44.25 20.6936 44.25 24.5833C44.25 29.7993 42.178 34.8016 38.4898 38.4898C34.8016 42.178 29.7993 44.25 24.5833 44.25V44.25ZM24.5833 12.2917C23.288 12.2908 22.0152 12.6312 20.8932 13.2785C19.7711 13.9259 18.8394 14.8573 18.1917 15.9792C18.0138 16.259 17.8944 16.5719 17.8406 16.899C17.7868 17.2262 17.7997 17.5608 17.8786 17.8829C17.9574 18.2049 18.1006 18.5076 18.2996 18.7729C18.4985 19.0382 18.749 19.2604 19.036 19.4264C19.3231 19.5923 19.6407 19.6984 19.9699 19.7384C20.299 19.7784 20.6328 19.7514 20.9512 19.659C21.2697 19.5666 21.5661 19.4108 21.8228 19.2009C22.0794 18.9909 22.2909 18.7313 22.4446 18.4375C22.6612 18.0623 22.9731 17.7511 23.3486 17.5352C23.7242 17.3194 24.1502 17.2066 24.5833 17.2083C25.2353 17.2083 25.8606 17.4673 26.3216 17.9284C26.7827 18.3894 27.0417 19.0147 27.0417 19.6667C27.0417 20.3187 26.7827 20.9439 26.3216 21.405C25.8606 21.866 25.2353 22.125 24.5833 22.125C23.9314 22.125 23.3061 22.384 22.845 22.845C22.384 23.3061 22.125 23.9313 22.125 24.5833V27.0417C22.125 27.6937 22.384 28.3189 22.845 28.78C23.3061 29.241 23.9314 29.5 24.5833 29.5C25.2353 29.5 25.8606 29.241 26.3216 28.78C26.7827 28.3189 27.0417 27.6937 27.0417 27.0417V26.5992C28.6675 26.0092 30.0343 24.8666 30.9032 23.3711C31.772 21.8755 32.0875 20.1222 31.7946 18.4176C31.5017 16.7129 30.619 15.1655 29.3009 14.0457C27.9827 12.9259 26.3129 12.3051 24.5833 12.2917V12.2917Z" fill="#5740A0"/>


  
</symbol>  

<symbol id="advantages3" viewBox="0 0 50 50" >

  <path d="M41.4167 4C41.143 3.99984 40.8721 4.05362 40.6192 4.15827C40.3664 4.26291 40.1367 4.41636 39.9432 4.60985C39.7497 4.80333 39.5962 5.03306 39.4916 5.28589C39.387 5.53872 39.3332 5.8097 39.3333 6.08333V7.40983C37.5763 9.58838 35.3555 11.3477 32.8328 12.5598C30.3101 13.7719 27.5488 14.4063 24.75 14.4167H12.25C10.593 14.4185 9.00429 15.0775 7.83258 16.2492C6.66087 17.421 6.00181 19.0096 6 20.6667V24.8333C6.00181 26.4904 6.66087 28.079 7.83258 29.2508C9.00429 30.4225 10.593 31.0815 12.25 31.0833H13.2579L8.25221 42.7633C8.11618 43.0801 8.06095 43.4257 8.09148 43.7692C8.12202 44.1126 8.23736 44.443 8.42715 44.7308C8.61694 45.0187 8.87524 45.2549 9.17886 45.4182C9.48247 45.5815 9.8219 45.6669 10.1667 45.6667H18.5C18.9078 45.6669 19.3067 45.5473 19.6471 45.3227C19.9875 45.098 20.2543 44.7783 20.4145 44.4032L26.089 31.1625C28.6528 31.3507 31.1508 32.0626 33.4288 33.254C35.7068 34.4455 37.7163 36.0912 39.3333 38.0897V39.4167C39.3333 39.9692 39.5528 40.4991 39.9435 40.8898C40.3342 41.2805 40.8641 41.5 41.4167 41.5C41.9692 41.5 42.4991 41.2805 42.8898 40.8898C43.2805 40.4991 43.5 39.9692 43.5 39.4167V6.08333C43.5002 5.8097 43.4464 5.53872 43.3417 5.28589C43.2371 5.03306 43.0836 4.80333 42.8902 4.60984C42.6967 4.41635 42.4669 4.2629 42.2141 4.15826C41.9613 4.05362 41.6903 3.99984 41.4167 4V4ZM12.25 26.9167C11.6976 26.9163 11.1679 26.6967 10.7773 26.3061C10.3866 25.9154 10.167 25.3858 10.1667 24.8333V20.6667C10.167 20.1142 10.3867 19.5846 10.7773 19.1939C11.1679 18.8033 11.6976 18.5837 12.25 18.5833H14.3333V26.9167H12.25ZM17.1267 41.5H13.3263L17.79 31.0833H21.5904L17.1267 41.5ZM39.3333 32.1704C35.2255 28.7863 30.0722 26.9297 24.75 26.9166H18.5V18.5832H24.75C30.0723 18.5696 35.2256 16.7127 39.3333 13.3284V32.1704Z" fill="#5740A0"/>


  
</symbol>  

<symbol id="advantages4" viewBox="0 0 50 50" >
  
  <path d="M42.8958 34.6458L37.8542 29.6042C37.6605 29.4089 37.4301 29.2539 37.1762 29.1481C36.9223 29.0424 36.65 28.9879 36.375 28.9879C36.1 28.9879 35.8277 29.0424 35.5738 29.1481C35.3199 29.2539 35.0895 29.4089 34.8958 29.6042L27.4375 37.0625C27.2444 37.2572 27.0917 37.488 26.988 37.7419C26.8843 37.9957 26.8317 38.2675 26.8333 38.5417V43.5833C26.8333 44.1359 27.0528 44.6658 27.4435 45.0565C27.8342 45.4472 28.3641 45.6667 28.9167 45.6667H33.9583C34.2325 45.6683 34.5043 45.6157 34.7581 45.512C35.012 45.4083 35.2428 45.2556 35.4375 45.0625L42.8958 37.6042C43.0911 37.4105 43.2461 37.1801 43.3519 36.9262C43.4576 36.6723 43.5121 36.4 43.5121 36.125C43.5121 35.85 43.4576 35.5777 43.3519 35.3238C43.2461 35.0699 43.0911 34.8395 42.8958 34.6458V34.6458ZM33.0833 41.5H31V39.4167L36.375 34.0417L38.4583 36.125L33.0833 41.5ZM20.5833 41.5H12.25C11.6975 41.5 11.1676 41.2805 10.7769 40.8898C10.3862 40.4991 10.1667 39.9692 10.1667 39.4167V10.25C10.1667 9.69747 10.3862 9.16756 10.7769 8.77686C11.1676 8.38616 11.6975 8.16667 12.25 8.16667H22.6667V14.4167C22.6667 16.0743 23.3251 17.664 24.4972 18.8361C25.6694 20.0082 27.2591 20.6667 28.9167 20.6667H35.1667V22.75C35.1667 23.3025 35.3862 23.8324 35.7769 24.2231C36.1676 24.6138 36.6975 24.8333 37.25 24.8333C37.8025 24.8333 38.3324 24.6138 38.7231 24.2231C39.1138 23.8324 39.3333 23.3025 39.3333 22.75V18.5833C39.3333 18.5833 39.3333 18.5833 39.3333 18.4583C39.3116 18.2669 39.2697 18.0784 39.2083 17.8958V17.7083C39.1082 17.4941 38.9746 17.2972 38.8125 17.125L26.3125 4.625C26.1403 4.46295 25.9434 4.32934 25.7292 4.22917C25.667 4.22033 25.6039 4.22033 25.5417 4.22917L24.875 4H12.25C10.5924 4 9.00269 4.65848 7.83058 5.83058C6.65848 7.00269 6 8.5924 6 10.25V39.4167C6 41.0743 6.65848 42.664 7.83058 43.8361C9.00269 45.0082 10.5924 45.6667 12.25 45.6667H20.5833C21.1359 45.6667 21.6658 45.4472 22.0565 45.0565C22.4472 44.6658 22.6667 44.1359 22.6667 43.5833C22.6667 43.0308 22.4472 42.5009 22.0565 42.1102C21.6658 41.7195 21.1359 41.5 20.5833 41.5ZM26.8333 11.1042L32.2292 16.5H28.9167C28.3641 16.5 27.8342 16.2805 27.4435 15.8898C27.0528 15.4991 26.8333 14.9692 26.8333 14.4167V11.1042ZM16.4167 29H28.9167C29.4692 29 29.9991 28.7805 30.3898 28.3898C30.7805 27.9991 31 27.4692 31 26.9167C31 26.3641 30.7805 25.8342 30.3898 25.4435C29.9991 25.0528 29.4692 24.8333 28.9167 24.8333H16.4167C15.8641 24.8333 15.3342 25.0528 14.9435 25.4435C14.5528 25.8342 14.3333 26.3641 14.3333 26.9167C14.3333 27.4692 14.5528 27.9991 14.9435 28.3898C15.3342 28.7805 15.8641 29 16.4167 29ZM16.4167 20.6667H18.5C19.0525 20.6667 19.5824 20.4472 19.9731 20.0565C20.3638 19.6658 20.5833 19.1359 20.5833 18.5833C20.5833 18.0308 20.3638 17.5009 19.9731 17.1102C19.5824 16.7195 19.0525 16.5 18.5 16.5H16.4167C15.8641 16.5 15.3342 16.7195 14.9435 17.1102C14.5528 17.5009 14.3333 18.0308 14.3333 18.5833C14.3333 19.1359 14.5528 19.6658 14.9435 20.0565C15.3342 20.4472 15.8641 20.6667 16.4167 20.6667ZM20.5833 33.1667H16.4167C15.8641 33.1667 15.3342 33.3862 14.9435 33.7769C14.5528 34.1676 14.3333 34.6975 14.3333 35.25C14.3333 35.8025 14.5528 36.3324 14.9435 36.7231C15.3342 37.1138 15.8641 37.3333 16.4167 37.3333H20.5833C21.1359 37.3333 21.6658 37.1138 22.0565 36.7231C22.4472 36.3324 22.6667 35.8025 22.6667 35.25C22.6667 34.6975 22.4472 34.1676 22.0565 33.7769C21.6658 33.3862 21.1359 33.1667 20.5833 33.1667Z" fill="#5740A0"/>

  
</symbol> 

<symbol id="advantages5" viewBox="0 0 50 50" >
  

  <path d="M43.5298 34.8006L39.2173 30.3839C38.2896 29.5022 37.1195 28.9179 35.8573 28.7063C34.5951 28.4947 33.2984 28.6654 32.1339 29.1964L30.2589 27.3214C32.4684 24.3692 33.4775 20.6895 33.083 17.0232C32.6885 13.3568 30.9197 9.97607 28.1327 7.56143C25.3458 5.1468 21.7475 3.87759 18.0624 4.00932C14.3773 4.14104 10.8788 5.66391 8.27137 8.27137C5.66391 10.8788 4.14104 14.3773 4.00932 18.0624C3.87759 21.7475 5.1468 25.3458 7.56143 28.1327C9.97607 30.9197 13.3568 32.6885 17.0232 33.083C20.6895 33.4775 24.3692 32.4684 27.3214 30.2589L29.1756 32.1131C28.582 33.279 28.3693 34.6018 28.5674 35.895C28.7655 37.1882 29.3644 38.3867 30.2798 39.3214L34.6964 43.7381C35.8683 44.9085 37.4568 45.5659 39.1131 45.5659C40.7694 45.5659 42.3579 44.9085 43.5298 43.7381C44.1251 43.156 44.598 42.4609 44.921 41.6935C45.2439 40.9261 45.4102 40.1019 45.4102 39.2693C45.4102 38.4368 45.2439 37.6126 44.921 36.8452C44.598 36.0778 44.1251 35.3827 43.5298 34.8006V34.8006ZM25.8631 25.9673C24.4053 27.4214 22.5491 28.4109 20.5292 28.8107C18.5093 29.2105 16.4162 29.0027 14.5144 28.2135C12.6125 27.4243 10.9872 26.0892 9.84375 24.3767C8.70031 22.6643 8.09005 20.6514 8.09005 18.5923C8.09005 16.5332 8.70031 14.5203 9.84375 12.8078C10.9872 11.0954 12.6125 9.76023 14.5144 8.97104C16.4162 8.18186 18.5093 7.97403 20.5292 8.37383C22.5491 8.77363 24.4053 9.7631 25.8631 11.2173C26.8332 12.1849 27.6028 13.3344 28.1279 14.5999C28.6531 15.8654 28.9234 17.2221 28.9234 18.5923C28.9234 19.9624 28.6531 21.3191 28.1279 22.5846C27.6028 23.8502 26.8332 24.9996 25.8631 25.9673V25.9673ZM40.5923 40.6964C40.3986 40.8917 40.1682 41.0467 39.9143 41.1525C39.6604 41.2582 39.3881 41.3127 39.1131 41.3127C38.8381 41.3127 38.5658 41.2582 38.3119 41.1525C38.058 41.0467 37.8276 40.8917 37.6339 40.6964L33.2173 36.2798C33.022 36.0861 32.867 35.8557 32.7612 35.6018C32.6555 35.3479 32.601 35.0756 32.601 34.8006C32.601 34.5256 32.6555 34.2533 32.7612 33.9994C32.867 33.7455 33.022 33.5151 33.2173 33.3214C33.4109 33.1262 33.6414 32.9712 33.8952 32.8654C34.1491 32.7596 34.4214 32.7052 34.6964 32.7052C34.9715 32.7052 35.2438 32.7596 35.4976 32.8654C35.7515 32.9712 35.9819 33.1262 36.1756 33.3214L40.5923 37.7381C40.7875 37.9318 40.9425 38.1622 41.0483 38.4161C41.1541 38.6699 41.2085 38.9422 41.2085 39.2173C41.2085 39.4923 41.1541 39.7646 41.0483 40.0185C40.9425 40.2723 40.7875 40.5028 40.5923 40.6964V40.6964Z" fill="#5740A0"/>

    
</symbol>  

<symbol id="advantages6" viewBox="0 0 50 50" >
  
  
  <path d="M2 25.8333V36.25C2 36.8025 2.21949 37.3324 2.61019 37.7231C3.00089 38.1138 3.5308 38.3333 4.08333 38.3333H6.16667C6.16667 39.9909 6.82515 41.5807 7.99725 42.7528C9.16935 43.9249 10.7591 44.5833 12.4167 44.5833C14.0743 44.5833 15.664 43.9249 16.8361 42.7528C18.0082 41.5807 18.6667 39.9909 18.6667 38.3333H31.1667C31.1667 39.9909 31.8251 41.5807 32.9973 42.7528C34.1694 43.9249 35.7591 44.5833 37.4167 44.5833C39.0743 44.5833 40.664 43.9249 41.8361 42.7528C43.0082 41.5807 43.6667 39.9909 43.6667 38.3333H45.75C46.3025 38.3333 46.8324 38.1138 47.2231 37.7231C47.6138 37.3324 47.8333 36.8025 47.8333 36.25V11.25C47.8333 9.5924 47.1749 8.00269 46.0028 6.83058C44.8307 5.65848 43.2409 5 41.5833 5H22.8333C21.1757 5 19.586 5.65848 18.4139 6.83058C17.2418 8.00269 16.5833 9.5924 16.5833 11.25V15.4167H12.4167C11.4464 15.4167 10.4894 15.6426 9.62158 16.0765C8.75374 16.5104 7.99884 17.1404 7.41667 17.9167L2.41667 24.5833C2.35573 24.6739 2.30672 24.7719 2.27083 24.875L2.14583 25.1042C2.05389 25.3365 2.00449 25.5835 2 25.8333V25.8333ZM35.3333 38.3333C35.3333 37.9213 35.4555 37.5185 35.6844 37.1759C35.9134 36.8333 36.2387 36.5663 36.6194 36.4086C37.0001 36.2509 37.419 36.2096 37.8231 36.29C38.2272 36.3704 38.5985 36.5688 38.8898 36.8602C39.1812 37.1516 39.3796 37.5228 39.46 37.9269C39.5404 38.331 39.4991 38.7499 39.3414 39.1306C39.1837 39.5113 38.9167 39.8366 38.5741 40.0656C38.2315 40.2945 37.8287 40.4167 37.4167 40.4167C36.8641 40.4167 36.3342 40.1972 35.9435 39.8065C35.5528 39.4158 35.3333 38.8859 35.3333 38.3333ZM20.75 11.25C20.75 10.6975 20.9695 10.1676 21.3602 9.77686C21.7509 9.38616 22.2808 9.16667 22.8333 9.16667H41.5833C42.1359 9.16667 42.6658 9.38616 43.0565 9.77686C43.4472 10.1676 43.6667 10.6975 43.6667 11.25V34.1667H42.0417C41.4559 33.5222 40.7418 33.0072 39.9454 32.6549C39.1489 32.3025 38.2876 32.1205 37.4167 32.1205C36.5457 32.1205 35.6844 32.3025 34.888 32.6549C34.0915 33.0072 33.3775 33.5222 32.7917 34.1667H20.75V11.25ZM16.5833 23.75H8.25L10.75 20.4167C10.9441 20.1579 11.1957 19.9479 11.485 19.8033C11.7743 19.6586 12.0932 19.5833 12.4167 19.5833H16.5833V23.75ZM10.3333 38.3333C10.3333 37.9213 10.4555 37.5185 10.6844 37.1759C10.9134 36.8333 11.2387 36.5663 11.6194 36.4086C12.0001 36.2509 12.419 36.2096 12.8231 36.29C13.2272 36.3704 13.5984 36.5688 13.8898 36.8602C14.1812 37.1516 14.3796 37.5228 14.46 37.9269C14.5404 38.331 14.4991 38.7499 14.3414 39.1306C14.1837 39.5113 13.9167 39.8366 13.5741 40.0656C13.2315 40.2945 12.8287 40.4167 12.4167 40.4167C11.8641 40.4167 11.3342 40.1972 10.9435 39.8065C10.5528 39.4158 10.3333 38.8859 10.3333 38.3333ZM6.16667 27.9167H16.5833V33.7083C15.3538 32.6095 13.7399 32.0411 12.0931 32.1269C10.4464 32.2128 8.90026 32.9459 7.79167 34.1667H6.16667V27.9167Z" fill="#5740A0"/>


  
</symbol>  


<!-- advantages end -->

<!-- steps -->





<!-- social -->
<symbol id="discord" viewBox="0 0 32 33">
  <rect y="0.613281" width="32" height="32" rx="16" fill="#fff"></rect>
  <path d="M24.0251 11.1328C22.5572 9.95845 20.7958 9.3713 18.9364 9.27344L18.6429 9.56702C20.3065 9.95845 21.7744 10.7413 23.1444 11.8178C21.4808 10.937 19.6214 10.3499 17.6643 10.1542C17.0771 10.0563 16.5878 10.0563 16.0007 10.0563C15.4135 10.0563 14.9242 10.0563 14.337 10.1542C12.3799 10.3499 10.5205 10.937 8.85692 11.8178C10.227 10.7413 11.6948 9.95845 13.3584 9.56702L13.0649 9.27344C11.2055 9.3713 9.44408 9.95845 7.97619 11.1328C6.31258 14.2643 5.43184 17.7872 5.33398 21.408C6.80187 22.9737 8.85692 23.9523 11.0098 23.9523C11.0098 23.9523 11.6948 23.1695 12.1841 22.4844C10.912 22.1909 9.73765 21.5059 8.95478 20.4294C9.6398 20.8208 10.3248 21.2123 11.0098 21.5059C11.8906 21.8973 12.7713 22.093 13.652 22.2887C14.4349 22.3866 15.2178 22.4844 16.0007 22.4844C16.7835 22.4844 17.5664 22.3866 18.3493 22.2887C19.23 22.093 20.1107 21.8973 20.9915 21.5059C21.6765 21.2123 22.3615 20.8208 23.0465 20.4294C22.2636 21.5059 21.0893 22.1909 19.8172 22.4844C20.3065 23.1695 20.9915 23.9523 20.9915 23.9523C23.1444 23.9523 25.1994 22.9737 26.6673 21.408C26.5695 17.7872 25.6887 14.2643 24.0251 11.1328ZM12.7713 19.6465C11.7927 19.6465 10.912 18.7658 10.912 17.6893C10.912 16.6129 11.7927 15.7322 12.7713 15.7322C13.7499 15.7322 14.6306 16.6129 14.6306 17.6893C14.6306 18.7658 13.7499 19.6465 12.7713 19.6465ZM19.23 19.6465C18.2514 19.6465 17.3707 18.7658 17.3707 17.6893C17.3707 16.6129 18.2514 15.7322 19.23 15.7322C20.2086 15.7322 21.0893 16.6129 21.0893 17.6893C21.0893 18.7658 20.2086 19.6465 19.23 19.6465Z" fill="#5740A0"></path>
</symbol>

<symbol id="telegram" viewBox="0 0 32 33">
  <path d="M8.19158 15.314C12.8444 13.2442 15.9471 11.8796 17.4995 11.2204C21.932 9.338 22.853 9.01102 23.4533 9.0001C23.5853 8.99785 23.8806 9.03125 24.0718 9.18968C24.2333 9.32346 24.2777 9.50417 24.2989 9.63101C24.3202 9.75784 24.3467 10.0468 24.3256 10.2725C24.0854 12.8493 23.0461 19.1026 22.5174 21.9887C22.2936 23.2099 21.8531 23.6193 21.4266 23.6594C20.4997 23.7465 19.7959 23.034 18.8982 22.4332C17.4934 21.493 16.6998 20.9077 15.3363 19.9902C13.7605 18.93 14.782 18.3472 15.6801 17.3949C15.9151 17.1456 19.9989 13.353 20.0779 13.009C20.0878 12.9659 20.097 12.8056 20.0037 12.7209C19.9103 12.6362 19.7726 12.6651 19.6732 12.6882C19.5323 12.7208 17.2882 14.2353 12.9409 17.2315C12.3039 17.6781 11.7269 17.8957 11.21 17.8843C10.6401 17.8717 9.54391 17.5553 8.72898 17.2848C7.72944 16.9531 6.93502 16.7777 7.0042 16.2143C7.04023 15.9209 7.43602 15.6207 8.19158 15.314Z"/>
</symbol>

<symbol id="linkedin" viewBox="0 0 32 33">
  <rect y="0.613281" width="32" height="32" rx="16" fill="none"></rect>
  <path d="M24.8828 24.163C23.8328 24.138 22.8078 24.138 21.7578 24.163C21.5328 24.163 21.4828 24.113 21.4828 23.888C21.4828 22.038 21.4828 20.163 21.4828 18.313C21.4828 17.888 21.4578 17.463 21.3328 17.063C20.9578 15.763 19.4578 15.288 18.3828 16.163C17.8078 16.613 17.5828 17.238 17.5828 17.988C17.5828 19.738 17.5828 21.488 17.5828 23.238C17.5828 23.463 17.5578 23.688 17.5828 23.938C17.6078 24.138 17.5078 24.188 17.3328 24.163C16.2578 24.163 15.2078 24.163 14.1328 24.163C13.9328 24.163 13.8828 24.113 13.8828 23.913C13.9078 22.338 13.9078 20.763 13.9078 19.163C13.9078 17.213 13.9078 15.263 13.8828 13.338C13.8828 13.113 13.9328 13.063 14.1328 13.063C15.2078 13.063 16.2578 13.063 17.3328 13.063C17.5328 13.063 17.5828 13.113 17.5828 13.313C17.5828 13.713 17.5828 14.113 17.5828 14.588C17.6578 14.513 17.6828 14.488 17.7078 14.463C18.6828 13.038 20.0578 12.638 21.6828 12.888C23.5578 13.188 24.7578 14.488 25.0578 16.488C25.1328 16.963 25.1578 17.438 25.1578 17.913C25.1578 19.913 25.1578 21.888 25.1578 23.888C25.1578 24.088 25.1078 24.163 24.8828 24.163Z" fill="#5740A0"></path>
  <path d="M11.882 18.6135C11.882 20.3635 11.882 22.1135 11.882 23.8635C11.882 24.0885 11.832 24.1635 11.607 24.1635C10.557 24.1385 9.50703 24.1635 8.45703 24.1635C8.25703 24.1635 8.20703 24.1135 8.20703 23.9135C8.20703 20.3885 8.20703 16.8385 8.20703 13.3135C8.20703 13.1385 8.25703 13.0635 8.45703 13.0635C9.53203 13.0635 10.607 13.0635 11.682 13.0635C11.907 13.0635 11.932 13.1385 11.932 13.3385C11.882 15.0885 11.882 16.8385 11.882 18.6135Z" fill="#5740A0"></path>
  <path d="M12.0576 10.1633C11.8076 11.1633 10.7826 11.7383 9.60765 11.5383C8.35765 11.3383 7.65765 10.1133 8.10765 8.91329C8.40765 8.16329 9.13265 7.71329 10.0576 7.73829C11.4576 7.71329 12.3826 8.83829 12.0576 10.1633Z" fill="#5740A0"></path>
</symbol>

<symbol id="instagram" viewBox="0 0 32 33">
  <path d="M12.6672 16C12.6672 14.1591 14.1591 12.6664 16 12.6664C17.8409 12.6664 19.3336 14.1591 19.3336 16C19.3336 17.8409 17.8409 19.3336 16 19.3336C14.1591 19.3336 12.6672 17.8409 12.6672 16ZM10.8651 16C10.8651 18.836 13.164 21.1349 16 21.1349C18.836 21.1349 21.1349 18.836 21.1349 16C21.1349 13.164 18.836 10.8651 16 10.8651C13.164 10.8651 10.8651 13.164 10.8651 16ZM20.1382 10.6615C20.1381 10.8989 20.2084 11.1309 20.3401 11.3283C20.4719 11.5257 20.6593 11.6796 20.8785 11.7705C21.0977 11.8614 21.339 11.8852 21.5718 11.839C21.8046 11.7928 22.0185 11.6786 22.1863 11.5109C22.3542 11.3431 22.4686 11.1293 22.515 10.8966C22.5614 10.6638 22.5377 10.4225 22.447 10.2032C22.3563 9.98392 22.2025 9.79644 22.0052 9.6645C21.808 9.53257 21.576 9.4621 21.3386 9.462H21.3382C21.02 9.46215 20.715 9.58856 20.49 9.81347C20.265 10.0384 20.1384 10.3434 20.1382 10.6615ZM11.96 24.1398C10.985 24.0954 10.4551 23.933 10.103 23.7958C9.63608 23.614 9.30296 23.3975 8.95272 23.0478C8.60248 22.698 8.38568 22.3652 8.20472 21.8983C8.06744 21.5463 7.90504 21.0162 7.86072 20.0413C7.81224 18.9872 7.80256 18.6706 7.80256 16.0001C7.80256 13.3296 7.81304 13.0138 7.86072 11.9589C7.90512 10.9839 8.06872 10.4549 8.20472 10.1018C8.38648 9.63496 8.60296 9.30184 8.95272 8.9516C9.30248 8.60136 9.63528 8.38456 10.103 8.2036C10.455 8.06632 10.985 7.90392 11.96 7.8596C13.0141 7.81112 13.3307 7.80144 16 7.80144C18.6693 7.80144 18.9862 7.81192 20.0412 7.8596C21.0162 7.904 21.5452 8.0676 21.8982 8.2036C22.3651 8.38456 22.6982 8.60184 23.0485 8.9516C23.3987 9.30136 23.6147 9.63496 23.7965 10.1018C23.9338 10.4538 24.0962 10.9839 24.1405 11.9589C24.189 13.0138 24.1986 13.3296 24.1986 16.0001C24.1986 18.6706 24.189 18.9863 24.1405 20.0413C24.0961 21.0162 23.9329 21.5462 23.7965 21.8983C23.6147 22.3652 23.3982 22.6983 23.0485 23.0478C22.6987 23.3972 22.3651 23.614 21.8982 23.7958C21.5462 23.933 21.0162 24.0954 20.0412 24.1398C18.9871 24.1882 18.6705 24.1979 16 24.1979C13.3295 24.1979 13.0138 24.1882 11.96 24.1398ZM11.8772 6.06056C10.8126 6.10904 10.0852 6.27784 9.44992 6.52504C8.792 6.78032 8.23504 7.1228 7.67848 7.67848C7.12192 8.23416 6.78032 8.792 6.52504 9.44992C6.27784 10.0856 6.10904 10.8126 6.06056 11.8772C6.01128 12.9434 6 13.2843 6 16C6 18.7157 6.01128 19.0566 6.06056 20.1228C6.10904 21.1874 6.27784 21.9144 6.52504 22.5501C6.78032 23.2076 7.122 23.7661 7.67848 24.3215C8.23496 24.877 8.792 25.219 9.44992 25.475C10.0864 25.7222 10.8126 25.891 11.8772 25.9394C12.944 25.9879 13.2843 26 16 26C18.7157 26 19.0566 25.9887 20.1228 25.9394C21.1874 25.891 21.9144 25.7222 22.5501 25.475C23.2076 25.219 23.765 24.8772 24.3215 24.3215C24.8781 23.7658 25.219 23.2076 25.475 22.5501C25.7222 21.9144 25.8918 21.1874 25.9394 20.1228C25.9879 19.0558 25.9992 18.7157 25.9992 16C25.9992 13.2843 25.9879 12.9434 25.9394 11.8772C25.891 10.8126 25.7222 10.0852 25.475 9.44992C25.219 8.7924 24.8772 8.23504 24.3215 7.67848C23.7658 7.12192 23.2076 6.78032 22.5509 6.52504C21.9144 6.27784 21.1874 6.10824 20.1236 6.06056C19.0574 6.01208 18.7165 6 16.0008 6C13.2851 6 12.944 6.01128 11.8772 6.06056Z" />
</symbol>

<symbol id="youtube" viewBox="0 0 32 33">
  <rect y="0.613281" width="32" height="32" rx="16" fill="none"></rect>
  <path fill-rule="evenodd" clip-rule="evenodd" d="M24.5656 16.7262C24.3595 15.9608 23.756 15.3573 22.9906 15.1513C21.5923 14.7686 15.999 14.7686 15.999 14.7686C15.999 14.7686 10.4057 14.7686 9.00739 15.1365C8.25671 15.3426 7.6385 15.9608 7.43243 16.7262C7.06445 18.1245 7.06445 21.0242 7.06445 21.0242C7.06445 21.0242 7.06445 23.9386 7.43243 25.3222C7.6385 26.0876 8.24199 26.6911 9.00739 26.8972C10.4204 27.2799 15.999 27.2799 15.999 27.2799C15.999 27.2799 21.5923 27.2799 22.9906 26.9119C23.756 26.7058 24.3595 26.1023 24.5656 25.3369C24.9336 23.9386 24.9336 21.0389 24.9336 21.0389C24.9336 21.0389 24.9483 18.1245 24.5656 16.7262ZM20.9168 22.4403V22.7004C20.9168 23.0279 20.9265 23.2784 20.9457 23.4422C20.965 23.6059 21.0035 23.7312 21.071 23.7986C21.1288 23.8757 21.2251 23.9142 21.36 23.9142C21.5334 23.9142 21.649 23.8468 21.7164 23.7119C21.7838 23.577 21.8127 23.3555 21.8224 23.0376L22.8146 23.0954C22.8242 23.1435 22.8242 23.2013 22.8242 23.2784C22.8242 23.7504 22.699 24.1069 22.4389 24.338C22.1788 24.5692 21.8127 24.6848 21.3407 24.6848C20.7723 24.6848 20.3774 24.5018 20.1462 24.1454C19.915 23.789 19.7994 23.2399 19.7994 22.4885V21.5926C19.7994 20.8219 19.915 20.2632 20.1558 19.9068C20.3967 19.5503 20.8012 19.3769 21.3696 19.3769C21.7646 19.3769 22.0728 19.454 22.2848 19.5985C22.4967 19.743 22.6412 19.9742 22.7279 20.2728C22.8146 20.5811 22.8531 21.005 22.8531 21.5444V22.421H20.9168V22.4403ZM21.0613 20.2825C21.0035 20.3595 20.965 20.4751 20.9457 20.6389C20.9265 20.8027 20.9168 21.0531 20.9168 21.3903V21.7563H21.7646V21.3903C21.7646 21.0628 21.7549 20.8123 21.7357 20.6389C21.7164 20.4655 21.6682 20.3499 21.6104 20.2825C21.5526 20.215 21.4563 20.1765 21.3407 20.1765C21.2058 20.1669 21.1191 20.2054 21.0613 20.2825ZM15.3488 24.627V19.4925H14.1928V23.5674C14.1543 23.6637 14.0869 23.7408 13.9905 23.7986C13.8942 23.866 13.7979 23.8949 13.7015 23.8949C13.5859 23.8949 13.4992 23.8468 13.4511 23.7504C13.4029 23.6541 13.374 23.4903 13.374 23.2591V19.4925H12.218V23.3266C12.218 23.8082 12.2951 24.155 12.4589 24.3766C12.6226 24.5981 12.8731 24.7137 13.2102 24.7137C13.7015 24.7137 14.0772 24.4729 14.3181 24.0009H14.347L14.4433 24.627H15.3488ZM12.5648 18.5292H11.4185V24.6174H10.2914V18.5292H9.14502V17.5948H12.5648V18.5292ZM18.8361 19.6081C18.9902 19.7526 19.1058 19.9838 19.1732 20.3114C19.2407 20.6293 19.2696 21.082 19.2792 21.6696V22.4788C19.2792 23.2399 19.1829 23.8082 18.9998 24.1646C18.8168 24.5211 18.5374 24.7041 18.1425 24.7041C17.9209 24.7041 17.7282 24.6463 17.5452 24.55C17.3622 24.444 17.2273 24.3091 17.1406 24.1357H17.1117L16.9961 24.6174H16.0424V17.3347H17.1599V20.0416H17.1695C17.2658 19.849 17.4103 19.6852 17.5934 19.5696C17.7764 19.4444 17.9787 19.3866 18.1906 19.3866C18.4604 19.3866 18.6819 19.4636 18.8361 19.6081ZM18.0654 23.2784C18.0943 23.0665 18.1136 22.7775 18.1136 22.4018H18.1232V21.7274C18.1232 21.3325 18.1136 21.0242 18.0847 20.8027C18.0558 20.5907 18.0172 20.4366 17.9498 20.3403C17.892 20.2536 17.7957 20.2054 17.6801 20.2054C17.5741 20.2054 17.4681 20.2536 17.3718 20.3403C17.2755 20.4366 17.208 20.5522 17.1695 20.6871V23.5963C17.2177 23.683 17.2851 23.7504 17.3622 23.7986C17.4392 23.8468 17.5259 23.866 17.6223 23.866C17.7379 23.866 17.8342 23.8179 17.9113 23.7312C17.9787 23.6445 18.0365 23.4903 18.0654 23.2784Z" fill="#5740A0"></path>
  <path d="M14.9151 12.8247C14.6839 12.6706 14.5201 12.4298 14.4238 12.0926C14.3275 11.7651 14.2793 11.322 14.2793 10.7825V10.0408C14.2793 9.49166 14.3371 9.04853 14.4431 8.71137C14.5587 8.37421 14.7321 8.13338 14.9633 7.97924C15.2041 7.82511 15.5123 7.74805 15.8977 7.74805C16.2734 7.74805 16.5816 7.82511 16.8128 7.97924C17.044 8.13338 17.2078 8.38384 17.3138 8.71137C17.4197 9.0389 17.4775 9.48202 17.4775 10.0408V10.7825C17.4775 11.3316 17.4294 11.7651 17.3234 12.1023C17.2174 12.4298 17.0537 12.6803 16.8225 12.8344C16.5913 12.9885 16.2734 13.0656 15.8784 13.0656C15.4738 13.0559 15.1463 12.9789 14.9151 12.8247ZM16.2156 12.0156C16.283 11.8518 16.3119 11.5724 16.3119 11.1967V9.59762C16.3119 9.23156 16.283 8.96183 16.2156 8.78843C16.1481 8.61504 16.0422 8.53797 15.8784 8.53797C15.7243 8.53797 15.6087 8.62467 15.5509 8.78843C15.4834 8.96183 15.4545 9.23156 15.4545 9.59762V11.1967C15.4545 11.5724 15.4834 11.8518 15.5509 12.0156C15.6087 12.1793 15.7243 12.266 15.888 12.266C16.0422 12.266 16.1481 12.189 16.2156 12.0156Z" fill="#5740A0"></path>
  <path d="M12.1031 10.6955L10.793 5.94629H11.9393L12.4017 8.0945C12.5173 8.62432 12.604 9.07708 12.6618 9.45278H12.6907C12.7292 9.18305 12.8159 8.73992 12.9508 8.10413L13.4325 5.94629H14.5788L13.2494 10.6955V12.9689H12.1127V10.6955H12.1031Z" fill="#5740A0"></path>
  <path d="M21.207 7.84375V12.9783H20.3014L20.2051 12.3521H20.1762C19.9354 12.8241 19.5597 13.065 19.0684 13.065C18.7312 13.065 18.4808 12.9494 18.317 12.7278C18.1532 12.5062 18.0762 12.1594 18.0762 11.6778V7.84375H19.2322V11.6103C19.2322 11.8415 19.2611 12.0053 19.3092 12.1016C19.3574 12.198 19.4441 12.2461 19.5597 12.2461C19.656 12.2461 19.7524 12.2172 19.8487 12.1498C19.945 12.092 20.0124 12.0149 20.051 11.9186V7.84375H21.207Z" fill="#5740A0"></path>
</symbol>

<symbol id="twitter" viewBox="0 0 32 33">
  <rect y="0.613281" width="32" height="32" rx="16" fill="none"></rect>
  <path d="M23.841 13.1553C23.841 13.3303 23.841 13.5053 23.841 13.6553C23.841 18.8303 19.891 24.8053 12.691 24.8053C10.466 24.8053 8.41602 24.1553 6.66602 23.0553C6.96602 23.0803 7.29102 23.1053 7.59102 23.1053C9.41602 23.1053 11.116 22.4803 12.466 21.4303C10.741 21.4053 9.29102 20.2553 8.81602 18.7053C9.06602 18.7553 9.29102 18.7803 9.56602 18.7803C9.91602 18.7803 10.266 18.7303 10.591 18.6303C8.79102 18.2803 7.44102 16.7053 7.44102 14.8053C7.44102 14.7803 7.44102 14.7803 7.44102 14.7553C7.96602 15.0553 8.56602 15.2303 9.21602 15.2553C8.16602 14.5553 7.46602 13.3553 7.46602 11.9803C7.46602 11.2553 7.66602 10.5803 7.99102 10.0053C9.91602 12.3803 12.816 13.9303 16.066 14.1053C15.991 13.8303 15.966 13.5053 15.966 13.2053C15.966 11.0303 17.716 9.28027 19.891 9.28027C21.016 9.28027 22.041 9.75527 22.741 10.5053C23.641 10.3303 24.466 10.0053 25.241 9.55527C24.941 10.4803 24.316 11.2303 23.516 11.7303C24.316 11.6303 25.066 11.4303 25.766 11.1053C25.266 11.9053 24.616 12.6053 23.841 13.1553Z" fill="#5740A0"></path>
</symbol>

<symbol id="whatsapp" viewBox="0 0 32 33">
  <path d="M22.1667 10.425C21.4027 9.65332 20.4927 9.04144 19.4897 8.62509C18.4867 8.20874 17.4109 7.99627 16.325 8.00005C11.775 8.00005 8.06667 11.7084 8.06667 16.2584C8.06667 17.7167 8.45 19.1334 9.16667 20.3834L8 24.6667L12.375 23.5167C13.5833 24.175 14.9417 24.525 16.325 24.525C20.875 24.525 24.5833 20.8167 24.5833 16.2667C24.5833 14.0584 23.725 11.9834 22.1667 10.425ZM16.325 23.125C15.0917 23.125 13.8833 22.7917 12.825 22.1667L12.575 22.0167L9.975 22.7L10.6667 20.1667L10.5 19.9084C9.81479 18.8142 9.45095 17.5494 9.45 16.2584C9.45 12.475 12.5333 9.39172 16.3167 9.39172C18.15 9.39172 19.875 10.1084 21.1667 11.4084C21.8062 12.045 22.3131 12.8023 22.6578 13.6362C23.0026 14.4702 23.1784 15.3643 23.175 16.2667C23.1917 20.05 20.1083 23.125 16.325 23.125ZM20.0917 17.9917C19.8833 17.8917 18.8667 17.3917 18.6833 17.3167C18.4917 17.25 18.3583 17.2167 18.2167 17.4167C18.075 17.625 17.6833 18.0917 17.5667 18.225C17.45 18.3667 17.325 18.3834 17.1167 18.275C16.9083 18.175 16.2417 17.95 15.4583 17.25C14.8417 16.7 14.4333 16.025 14.3083 15.8167C14.1917 15.6084 14.2917 15.5 14.4 15.3917C14.4917 15.3 14.6083 15.15 14.7083 15.0334C14.8083 14.9167 14.85 14.825 14.9167 14.6917C14.9833 14.55 14.95 14.4334 14.9 14.3334C14.85 14.2334 14.4333 13.2167 14.2667 12.8C14.1 12.4 13.925 12.45 13.8 12.4417H13.4C13.2583 12.4417 13.0417 12.4917 12.85 12.7C12.6667 12.9084 12.1333 13.4084 12.1333 14.425C12.1333 15.4417 12.875 16.425 12.975 16.5584C13.075 16.7 14.4333 18.7834 16.5 19.675C16.9917 19.8917 17.375 20.0167 17.675 20.1084C18.1667 20.2667 18.6167 20.2417 18.975 20.1917C19.375 20.1334 20.2 19.6917 20.3667 19.2084C20.5417 18.725 20.5417 18.3167 20.4833 18.225C20.425 18.1334 20.3 18.0917 20.0917 17.9917Z" />
</symbol>
<!-- social end -->



<!-- process -->
<symbol id="process1" viewBox="0 0 120 120" fill="none">
  
  <path d="M37 78.5C37 76.015 39.015 74 41.5 74H72L78.429 78.5L72 83H41.5C39.015 83 37 80.985 37 78.5Z" stroke="#5740A0" stroke-width="3" stroke-miterlimit="10"/>
  <path d="M72 74V83" stroke="#5740A0" stroke-width="3" stroke-miterlimit="10"/>
  <path d="M43 74V80" stroke="#5740A0" stroke-width="3" stroke-miterlimit="10"/>
  <path d="M57.754 38H87V43" stroke="#5740A0" stroke-width="3" stroke-miterlimit="10"/>
  <path d="M49 74V56.959" stroke="#5740A0" stroke-width="3" stroke-miterlimit="10"/>
  <path d="M87 57V87H49V83" stroke="#5740A0" stroke-width="3" stroke-miterlimit="10"/>
  <path d="M87 45V47" stroke="#5740A0" stroke-width="3" stroke-miterlimit="10"/>
  <path d="M87 49V51" stroke="#5740A0" stroke-width="3" stroke-miterlimit="10"/>
  <path d="M87 53V55" stroke="#5740A0" stroke-width="3" stroke-miterlimit="10"/>
  <path d="M52.601 49.601L48 45V37" stroke="#5740A0" stroke-width="3" stroke-miterlimit="10"/>
  <path d="M37 55H35V57H37V55Z" fill="#5740A0"/>
  <path d="M33 44H31V46H33V44Z" fill="#5740A0"/>
  <path d="M34 50H32V52H34V50Z" fill="#5740A0"/>
  <path d="M34 38H32V40H34V38Z" fill="#5740A0"/>
  <path d="M37 33H35V35H37V33Z" fill="#5740A0"/>
  <path d="M61 34H73" stroke="#5740A0" stroke-width="3" stroke-miterlimit="10"/>
  <path d="M75 34H78" stroke="#5740A0" stroke-width="3" stroke-miterlimit="10"/>
  <path d="M75 51V51.5C75 52.881 76.119 54 77.5 54H80.5C81.881 54 83 52.881 83 51.5C83 50.119 81.881 49 80.5 49H77.5C76.119 49 75 47.881 75 46.5C75 45.119 76.119 44 77.5 44H80.5C81.881 44 83 45.119 83 46.5V47" stroke="#5740A0" stroke-width="3" stroke-miterlimit="10"/>
  <path d="M79 54V57" stroke="#5740A0" stroke-width="3" stroke-miterlimit="10"/>
  <path d="M79 44V41" stroke="#5740A0" stroke-width="3" stroke-miterlimit="10"/>
  <path d="M60 56H70" stroke="#5740A0" stroke-width="3" stroke-miterlimit="10"/>
  <path d="M60 60H70" stroke="#5740A0" stroke-width="3" stroke-miterlimit="10"/>
  <path d="M55 66H73" stroke="#5740A0" stroke-width="3" stroke-miterlimit="10"/>
  <path d="M76.3994 65.399L79.0004 68L83.6014 63.399" stroke="#5740A0" stroke-width="3" stroke-miterlimit="10"/>
  <path d="M48 57C54.6274 57 60 51.6274 60 45C60 38.3726 54.6274 33 48 33C41.3726 33 36 38.3726 36 45C36 51.6274 41.3726 57 48 57Z" stroke="#5740A0" stroke-width="3" stroke-miterlimit="10"/>


</symbol>

<symbol id="process2" viewBox="0 0 120 120" fill="none">
 
  <path d="M74 35V71" stroke="#5740A0" stroke-width="3" stroke-miterlimit="10"/>
  <path d="M49 36H54.001" stroke="#5740A0" stroke-width="3" stroke-miterlimit="10"/>
  <path d="M74 80V86H37V36H46.001" stroke="#5740A0" stroke-width="3" stroke-miterlimit="10"/>
  <path d="M63 71H83V72C83 74.761 80.761 77 78 77H46" stroke="#5740A0" stroke-width="3" stroke-miterlimit="10"/>
  <path d="M41 47V72C41 74.761 43.239 77 46 77C48.761 77 51 74.761 51 72V71H64.004" stroke="#5740A0" stroke-width="3" stroke-miterlimit="10"/>
  <path d="M41 36V45" stroke="#5740A0" stroke-width="3" stroke-miterlimit="10"/>
  <path d="M46 33V39" stroke="#5740A0" stroke-width="3" stroke-miterlimit="10"/>
  <path d="M54 33V39" stroke="#5740A0" stroke-width="3" stroke-miterlimit="10"/>
  <path d="M57 36H62.004" stroke="#5740A0" stroke-width="3" stroke-miterlimit="10"/>
  <path d="M62.003 33V39" stroke="#5740A0" stroke-width="3" stroke-miterlimit="10"/>
  <path d="M65 36H70" stroke="#5740A0" stroke-width="3" stroke-miterlimit="10"/>
  <path d="M70 33V39" stroke="#5740A0" stroke-width="3" stroke-miterlimit="10"/>
  <path d="M62.729 47.568C61.229 46.577 59.432 46 57.5 46C52.253 46 48 50.253 48 55.5C48 60.747 52.253 65 57.5 65C62.747 65 67 60.747 67 55.5C67 54.7 66.901 53.923 66.715 53.181" stroke="#5740A0" stroke-width="3" stroke-miterlimit="10"/>

</symbol>

<symbol id="process3" viewBox="0 0 120 120" fill="none">
  
  <path d="M82.0161 77.0164C85.9806 73.0519 83.8146 64.458 77.1781 57.8215C70.5416 51.185 61.9477 49.0189 57.9832 52.9835C54.0186 56.9481 56.1846 65.5419 62.8211 72.1784C69.4576 78.8149 78.0515 80.981 82.0161 77.0164Z" stroke="#5740A0" stroke-width="3" stroke-miterlimit="10"/>
  <path d="M57.9827 52.9829L52.9827 57.9829C49.0187 61.9479 51.1847 70.5419 57.8207 77.1789C64.4567 83.8159 73.0517 85.9819 77.0167 82.0169L82.0167 77.0169" stroke="#5740A0" stroke-width="3" stroke-miterlimit="10"/>
  <path d="M34 70V76C34 79.866 40.268 83 48 83C51.335 83 54.397 82.417 56.802 81.444" stroke="#5740A0" stroke-width="3" stroke-miterlimit="10"/>
  <path d="M60.4219 55.422L63.3179 58.318" stroke="#5740A0" stroke-width="3" stroke-miterlimit="10"/>
  <path d="M76.6816 71.682L79.5936 74.594" stroke="#5740A0" stroke-width="3" stroke-miterlimit="10"/>
  <path d="M52.84 76.57C51.331 76.848 49.701 77 48 77C40.268 77 34 73.866 34 70C34 66.134 40.268 63 48 63" stroke="#5740A0" stroke-width="3" stroke-miterlimit="10"/>
  <path d="M70.15 71.505C70.974 72.423 72.169 73 73.5 73C75.985 73 78 70.985 78 68.5C78 66.015 75.985 64 73.5 64C72.948 64 72.419 64.099 71.93 64.281L68.07 65.718C67.581 65.901 67.052 66 66.5 66C64.015 66 62 63.985 62 61.5C62 59.015 64.015 57 66.5 57C67.831 57 69.026 57.577 69.85 58.495" stroke="#5740A0" stroke-width="3" stroke-miterlimit="10"/>
  <path d="M45.6009 38.7851L44.5879 36.2061" stroke="#5740A0" stroke-width="3" stroke-miterlimit="10"/>
  <path d="M48.3579 45.798L46.5859 41.29" stroke="#5740A0" stroke-width="3" stroke-miterlimit="10"/>
  <path d="M39.5942 51.594L32.4062 44.406" stroke="#5740A0" stroke-width="3" stroke-miterlimit="10"/>
  <path d="M59 44V34" stroke="#5740A0" stroke-width="3" stroke-miterlimit="10"/>
  <path d="M72.3994 38.7851L73.4124 36.2061" stroke="#5740A0" stroke-width="3" stroke-miterlimit="10"/>
  <path d="M69.6426 45.798L71.4146 41.29" stroke="#5740A0" stroke-width="3" stroke-miterlimit="10"/>
  <path d="M78.4062 51.594L85.5943 44.406" stroke="#5740A0" stroke-width="3" stroke-miterlimit="10"/>


</symbol>

<symbol id="process4" viewBox="0 0 120 120" fill="none">

  <path d="M42 73V73.5C42 74.881 43.119 76 44.5 76H47.5C48.881 76 50 74.881 50 73.5C50 72.119 48.881 71 47.5 71H44.5C43.119 71 42 69.881 42 68.5C42 67.119 43.119 66 44.5 66H47.5C48.881 66 50 67.119 50 68.5V69" stroke="#5740A0" stroke-width="3" stroke-miterlimit="10"/>
  <path d="M46 63V66" stroke="#5740A0" stroke-width="3" stroke-miterlimit="10"/>
  <path d="M46 76V79" stroke="#5740A0" stroke-width="3" stroke-miterlimit="10"/>
  <path d="M34.1885 68.879C35.1885 63.263 40.0965 59 46.0005 59C52.6275 59 58.0005 64.373 58.0005 71C58.0005 77.627 52.6275 83 46.0005 83C40.8405 83 36.4405 79.743 34.7455 75.173" stroke="#5740A0" stroke-width="3" stroke-miterlimit="10"/>
  <path d="M34.139 72.832C34.047 72.234 34 71.623 34 71" stroke="#5740A0" stroke-width="3" stroke-miterlimit="10"/>
  <path d="M75 86H74C72.896 86 72 85.104 72 84V61L74.5 57.708L77 61V84C77 85.104 76.104 86 75 86Z" stroke="#5740A0" stroke-width="3" stroke-miterlimit="10"/>
  <path d="M72 81H77" stroke="#5740A0" stroke-width="3" stroke-miterlimit="10"/>
  <path d="M71.9997 78.908L56.7677 83.092L55.4707 78.369" stroke="#5740A0" stroke-width="3" stroke-miterlimit="10"/>
  <path d="M50.3775 59.825L48.1035 51.547L53.7555 41.61L74.9115 35.801L85.7165 75.141L76.9995 77.535" stroke="#5740A0" stroke-width="3" stroke-miterlimit="10"/>
  <path d="M59.291 61.167L68.693 58.584" stroke="#5740A0" stroke-width="3" stroke-miterlimit="10"/>
  <path d="M68.6926 62.733L60.3516 65.024" stroke="#5740A0" stroke-width="3" stroke-miterlimit="10"/>
  <path d="M65.737 67.693L61.411 68.882" stroke="#5740A0" stroke-width="3" stroke-miterlimit="10"/>
  <path d="M53.7555 41.611L55.8955 49.404L48.1035 51.544" stroke="#5740A0" stroke-width="3" stroke-miterlimit="10"/>
  <path d="M71 43L64 53L60 51L55.506 57.706" stroke="#5740A0" stroke-width="3" stroke-miterlimit="10"/>
  <path d="M66.375 44L71 43L72.166 47.158" stroke="#5740A0" stroke-width="3" stroke-miterlimit="10"/>
  <path d="M37 55V34H65V38.522" stroke="#5740A0" stroke-width="3" stroke-miterlimit="10"/>
  <path d="M37 57V59" stroke="#5740A0" stroke-width="3" stroke-miterlimit="10"/>


</symbol>

<symbol id="process5" viewBox="0 0 120 120" fill="none">
  
  <path d="M62.6795 38.697C61.1165 36.127 58.8485 34.032 56.1445 32.68" stroke="#5740A0" stroke-width="3" stroke-miterlimit="10"/>
  <path d="M45 50C45 51.657 46.791 53 49 53C51.209 53 53 51.657 53 50C53 48.343 51.209 47 49 47C46.791 47 45 45.657 45 44C45 42.343 46.791 41 49 41C51.209 41 53 42.343 53 44" stroke="#5740A0" stroke-width="3" stroke-miterlimit="10"/>
  <path d="M49 41V38" stroke="#5740A0" stroke-width="3" stroke-miterlimit="10"/>
  <path d="M49 56V53" stroke="#5740A0" stroke-width="3" stroke-miterlimit="10"/>
  <path d="M87 62H81C79.895 62 79 62.895 79 64V85C79 86.105 79.895 87 81 87H87" stroke="#5740A0" stroke-width="3" stroke-miterlimit="10"/>
  <path d="M84 65H82V67H84V65Z" fill="#5740A0"/>
  <path d="M79 66H76.243C75.447 66 74.684 65.684 74.122 65.121L62.243 53.243C61.447 52.447 60.368 52 59.243 52C56.9 52 55 53.9 55 56.243C55 57.368 55.447 58.447 56.243 59.243L61.172 64.172C61.702 64.702 62 65.422 62 66.172C62 67.734 60.734 69 59.172 69H54.721C53.596 69 52.495 68.684 51.541 68.088L46.579 64.987C45.561 64.351 44.806 63.369 44.451 62.222L40.821 50.46C40.369 48.997 39.018 48 37.488 48C35.562 48 34 49.562 34 51.488C34 51.766 34.032 52.043 34.095 52.314L37.555 67.1C37.847 68.349 38.436 69.51 39.271 70.484L47.606 80.208C49.125 81.979 51.344 83 53.679 83H79" stroke="#5740A0" stroke-width="3" stroke-miterlimit="10"/>
  <path d="M59.889 52.049C60.602 50.514 61 48.804 61 47C61 40.373 55.627 35 49 35C42.373 35 37 40.373 37 47C37 47.347 37.015 47.69 37.043 48.029" stroke="#5740A0" stroke-width="3" stroke-miterlimit="10"/>
  <path d="M42.953 57.367C44.728 58.405 46.795 59 49 59C51.243 59 53.342 58.385 55.138 57.314" stroke="#5740A0" stroke-width="3" stroke-miterlimit="10"/>

</symbol>

<symbol id="process6" viewBox="0 0 120 120" fill="none">

  <path d="M80.8957 61.204L73.9287 64.239" stroke="#5740A0" stroke-width="3" stroke-miterlimit="10"/>
  <path d="M66.207 62.104L73.612 64C73.835 64.059 74 64.252 74 64.481V73" stroke="#5740A0" stroke-width="3" stroke-miterlimit="10"/>
  <path d="M72.725 59.052C72.797 59.019 72.879 59 72.964 59C73.015 59 73.064 59.007 73.112 59.019L80.611 61.019C80.835 61.078 81 61.271 81 61.5V69.5C81 69.696 80.879 69.865 80.703 69.947L74.275 72.947C74.203 72.981 74.122 73 74.036 73C73.985 73 73.936 72.993 73.888 72.981L66.389 70.981C66.165 70.922 66 70.729 66 70.5V62.5C66 62.311 66.11 62.142 66.278 62.062C67.919 61.279 71.118 59.802 72.725 59.052V59.052Z" stroke="#5740A0" stroke-width="3" stroke-miterlimit="10"/>
  <path d="M37.014 60.771C37.005 60.515 37 60.258 37 60C37 48.402 46.402 39 58 39C69.598 39 79 48.402 79 60C79 60.197 78.997 60.393 78.992 60.588" stroke="#5740A0" stroke-width="3" stroke-miterlimit="10"/>
  <path d="M72.5503 75.143C68.7753 78.77 63.6483 81 58.0003 81C48.3703 81 40.2533 74.517 37.7773 65.678" stroke="#5740A0" stroke-width="3" stroke-miterlimit="10"/>
  <path d="M62.893 67.968C61.941 67.989 60.976 68 60 68C43.984 68 31 65.09 31 61.5C31 59.99 33.296 58.601 37.148 57.498" stroke="#5740A0" stroke-width="3" stroke-miterlimit="10"/>
  <path d="M82.368 57.363C86.511 58.487 89 59.928 89 61.5C89 62.813 87.264 64.034 84.278 65.056" stroke="#5740A0" stroke-width="3" stroke-miterlimit="10"/>
  <path d="M54.703 71.859C54.201 71.832 53.703 71.801 53.208 71.767" stroke="#5740A0" stroke-width="3" stroke-miterlimit="10"/>
  <path d="M58.822 71.993C58.292 71.987 57.765 71.976 57.242 71.962" stroke="#5740A0" stroke-width="3" stroke-miterlimit="10"/>
  <path d="M62.7566 71.962C62.2356 71.976 61.7106 71.987 61.1826 71.993" stroke="#5740A0" stroke-width="3" stroke-miterlimit="10"/>
  <path d="M68.784 82.71C65.5 84.18 61.849 85 58.003 85" stroke="#5740A0" stroke-width="3" stroke-miterlimit="10"/>
  <path d="M72.7787 80.4821C72.2727 80.8261 71.7527 81.1521 71.2217 81.4611" stroke="#5740A0" stroke-width="3" stroke-miterlimit="10"/>
  <path d="M77.3555 42.473C77.7475 42.901 78.1245 43.342 78.4855 43.795" stroke="#5740A0" stroke-width="3" stroke-miterlimit="10"/>
  <path d="M58 34C64.189 34 69.874 36.121 74.338 39.663" stroke="#5740A0" stroke-width="3" stroke-miterlimit="10"/>
  <path d="M49.2404 71.223C47.1964 73.601 45.0904 75.45 44.2764 75.896" stroke="#5740A0" stroke-width="3" stroke-miterlimit="10"/>
  <path d="M37.673 54.705C38.5 53.667 40.085 53 41 53C43.583 53 45 54.182 45 57C45 58 45.25 61 47 61C50.413 61 48.375 58 52 58C53.563 58 54 60.938 54 62C54 63.754 53.112 65.779 51.864 67.734" stroke="#5740A0" stroke-width="3" stroke-miterlimit="10"/>
  <path d="M70.331 43C64.741 43 64.83 44.904 63 46C60.949 47.228 57 46.271 57 49C57 52.292 61.214 53 64 53C66.23 53 68.123 54.735 69.683 56.339" stroke="#5740A0" stroke-width="3" stroke-miterlimit="10"/>

</symbol>
<!-- process end -->







 





</svg>
