<svg width="80" height="80" viewBox="0 0 80 80" fill="none" xmlns="http://www.w3.org/2000/svg">
<path d="M20.2083 23.4083C20.2083 22.2882 20.2083 21.7282 20.4263 21.3004C20.6181 20.924 20.924 20.6181 21.3004 20.4263C21.7282 20.2083 22.2882 20.2083 23.4083 20.2083H56.5917C57.7118 20.2083 58.2718 20.2083 58.6997 20.4263C59.076 20.6181 59.3819 20.924 59.5737 21.3004C59.7917 21.7282 59.7917 22.2882 59.7917 23.4083V56.5917C59.7917 57.7118 59.7917 58.2718 59.5737 58.6997C59.3819 59.076 59.076 59.3819 58.6997 59.5737C58.2718 59.7917 57.7118 59.7917 56.5917 59.7917H23.4083C22.2882 59.7917 21.7282 59.7917 21.3004 59.5737C20.924 59.3819 20.6181 59.076 20.4263 58.6997C20.2083 58.2718 20.2083 57.7118 20.2083 56.5917V23.4083Z" stroke="white" stroke-width="3" stroke-linecap="round"/>
<path d="M41.0417 46.3113C41.0417 51.215 35.7402 54.5278 34.1781 55.3974C33.9088 55.5474 33.5912 55.5474 33.3219 55.3974C31.7598 54.5278 26.4583 51.215 26.4583 46.3113C26.4583 41.8995 29.9914 38.9583 33.75 38.9583C37.6389 38.9583 41.0417 41.8995 41.0417 46.3113Z" stroke="white" stroke-width="2"/>
<path d="M53.5417 59.7917L41.0417 28.5417" stroke="white" stroke-width="3"/>
<path d="M59.7917 24.375L20.2083 32.7083" stroke="white" stroke-width="3"/>
<ellipse cx="33.75" cy="46.25" rx="2.08333" ry="2.08333" fill="white"/>
</svg>
