<svg width="448" height="362" viewBox="0 0 448 362" fill="none" xmlns="http://www.w3.org/2000/svg">
<g filter="url(#filter0_b_148_1525)">
<ellipse cx="206.123" cy="180.937" rx="206.123" ry="180.937" fill="url(#paint0_radial_148_1525)" fill-opacity="0.8"/>
</g>
<g clip-path="url(#clip0_148_1525)">
<path d="M3.30225 261.983L59.2754 261.812L115.242 261.751L227.174 261.642L339.107 261.751L395.08 261.812L451.046 261.983L395.08 262.146L339.107 262.207L227.174 262.317L115.242 262.207L59.2754 262.146L3.30225 261.983Z" fill="#263238"/>
<path d="M195.491 327.47C297.696 327.47 380.55 320 380.55 310.786C380.55 301.572 297.696 294.103 195.491 294.103C93.2849 294.103 10.4309 301.572 10.4309 310.786C10.4309 320 93.2849 327.47 195.491 327.47Z" fill="#EBEBEB"/>
<path d="M324.918 291.547C396.639 291.547 454.781 285.005 454.781 276.935C454.781 268.865 396.639 262.323 324.918 262.323C253.196 262.323 195.054 268.865 195.054 276.935C195.054 285.005 253.196 291.547 324.918 291.547Z" fill="#EBEBEB"/>
<path d="M275.562 273.391C277.137 273.861 321.667 272.389 323.33 271.258C323.964 270.836 324.127 264.334 324.1 256.476V256.231C324.1 254.609 319.037 227.491 319.037 227.491L289.241 228.384L295.374 256.858V257.341C295.374 257.341 278.582 265.52 276.885 266.971C275.188 268.423 274.022 272.921 275.562 273.391Z" fill="#F7A9A0"/>
<path d="M323.351 271.258C321.701 272.389 277.164 273.868 275.597 273.391C274.029 272.914 275.249 268.403 276.925 266.971C277.88 266.16 283.611 263.216 288.443 260.797C285.192 262.514 278.513 268.402 298.789 264.961C312.508 262.63 320.393 260.667 324.127 259.611C324.1 265.997 323.903 270.897 323.351 271.258Z" fill="#263238"/>
<path d="M289.363 256.265L327.399 253.096C327.399 253.096 315.881 207.216 317.953 204.115C318.859 202.752 353.733 209.199 366.975 194.86C379.085 181.741 366.975 155.257 366.975 155.257H334.262C334.262 155.257 334.609 166.761 332.612 170.973C331.754 172.779 292.403 169.33 285.894 181.195C277.239 197.041 289.363 256.265 289.363 256.265Z" fill="#37474F"/>
<path d="M322.894 245.769C318.703 245.967 314.491 246.13 310.299 246.451C306.108 246.771 301.903 247.132 297.719 247.63L294.175 248.046C293.609 248.114 293.05 248.182 292.484 248.264C291.914 248.318 291.347 248.407 290.787 248.529C290.726 248.529 290.747 248.625 290.787 248.632C291.861 248.672 292.936 248.638 294.004 248.529L297.044 248.359C299.129 248.236 301.215 248.1 303.3 247.95C307.478 247.65 311.635 247.221 315.799 246.771L322.887 245.987C323.037 245.967 323.037 245.762 322.894 245.769Z" fill="#263238"/>
<path d="M363.301 161.929C363.185 160.832 363.097 159.728 363.049 158.623C363.044 158.61 363.036 158.598 363.024 158.59C363.012 158.581 362.999 158.577 362.984 158.577C362.97 158.577 362.956 158.581 362.944 158.59C362.933 158.598 362.924 158.61 362.919 158.623C362.919 166.999 365.829 175.457 363.553 183.765C362.583 187.404 360.369 190.589 357.297 192.768C354.065 194.931 350.369 196.301 346.508 196.768C342.126 197.402 337.649 197.279 333.253 197.252L319.493 197.184H316.085C315.014 197.119 313.94 197.119 312.869 197.184C312.485 197.198 312.117 197.34 311.824 197.587C311.53 197.834 311.327 198.172 311.247 198.547C311.11 199.523 311.097 200.512 311.206 201.491C311.338 205.916 311.651 210.326 312.146 214.719C313.138 223.476 314.843 232.137 317.244 240.617C317.544 241.667 317.857 242.716 318.178 243.759C318.186 243.785 318.204 243.807 318.228 243.82C318.253 243.832 318.281 243.835 318.307 243.827C318.333 243.819 318.355 243.801 318.368 243.776C318.381 243.752 318.383 243.724 318.375 243.697C315.966 235.145 314.185 226.428 313.046 217.616C312.487 213.234 312.105 208.824 311.867 204.408C311.808 203.317 311.76 202.227 311.724 201.137C311.724 200.605 311.683 200.067 311.676 199.535C311.631 199.081 311.714 198.623 311.915 198.213C312.079 198.016 312.289 197.864 312.528 197.77C312.766 197.676 313.023 197.643 313.278 197.674C313.877 197.674 314.477 197.674 315.077 197.674H318.484L332.244 197.763C336.654 197.763 341.104 197.933 345.479 197.422C349.314 197.071 353.031 195.909 356.384 194.015C359.513 192.213 361.976 189.447 363.403 186.13C366.647 178.353 364.16 169.943 363.301 161.929Z" fill="#263238"/>
<path d="M366.974 194.86C358.796 203.72 342.269 204.646 330.684 204.401L343.939 155.284H366.974C366.974 155.284 379.085 181.741 366.974 194.86Z" fill="#263238"/>
<path d="M434.309 271.49C434.131 269.861 415.376 229.44 413.686 228.356C413.052 227.934 407 230.326 399.776 233.42L399.551 233.522C398.059 234.156 370.566 241.544 370.566 241.544L382.752 267.994L411.376 259.734L411.812 259.516C411.812 259.516 425.905 271.783 427.896 272.771C429.886 273.759 434.499 273.119 434.309 271.49Z" fill="#F7A9A0"/>
<path d="M403.374 231.873C408.922 229.563 413.161 227.982 413.686 228.336C415.383 229.42 434.131 269.834 434.309 271.463C434.486 273.091 429.858 273.732 427.882 272.744C426.676 272.137 420.964 267.346 416.684 263.7C419.744 266.099 426.423 269.036 416.425 252.189C410.258 241.816 405.923 235.431 403.374 231.873Z" fill="#263238"/>
<path d="M334.487 155.257C334.487 155.257 334.991 171.102 337.369 178.905C337.369 178.905 339.959 180.268 340.736 180.752C340.736 180.752 321.054 227.879 322.171 246.015C322.539 251.957 329.273 261.724 336.074 265.956C348.11 273.453 406.843 266.876 406.843 266.876L398.324 231.56C398.324 231.56 361.188 233.604 360.248 231.621C359.055 229.072 366.45 209.247 372.359 193.142C372.951 191.514 378.894 185.516 378.199 174.653C377.67 167.934 375.939 161.364 373.088 155.257H334.487Z" fill="#37474F"/>
<path d="M340.668 175.212C340.593 174.087 340.511 172.963 340.409 171.845C340.184 169.289 339.918 166.727 339.468 164.198C339.468 164.001 339.155 164.076 339.175 164.266C339.346 166.25 339.571 168.233 339.762 170.216C339.952 172.199 340.184 174.176 340.218 176.152C340.218 176.745 340.218 177.754 339.455 177.917C338.473 178.142 338.01 176.847 337.778 176.145C337.214 174.38 336.801 172.57 336.545 170.734C336.218 168.689 336.047 166.543 335.863 164.444C335.863 164.369 335.727 164.382 335.727 164.444C335.727 168.608 335.775 172.963 337.328 176.895C337.44 177.299 337.66 177.665 337.963 177.955C338.267 178.244 338.644 178.445 339.053 178.537C339.053 178.537 339.053 178.537 339.094 178.537C339.134 178.537 339.094 178.585 339.094 178.612C339.094 178.64 339.141 178.844 339.162 178.96C339.175 179.059 339.196 179.157 339.223 179.253C339.264 179.457 339.291 179.662 339.339 179.86C339.346 179.895 339.366 179.926 339.394 179.949C339.422 179.971 339.456 179.984 339.492 179.984C339.528 179.984 339.563 179.971 339.591 179.949C339.619 179.926 339.638 179.895 339.646 179.86C339.671 179.851 339.692 179.834 339.707 179.812C339.722 179.79 339.729 179.763 339.727 179.737C339.71 179.331 339.62 178.932 339.462 178.558C339.702 178.508 339.925 178.399 340.112 178.241C340.299 178.083 340.443 177.88 340.532 177.651C340.771 176.861 340.818 176.024 340.668 175.212Z" fill="#263238"/>
<path d="M337.669 178.919C340.856 180.242 343.923 181.838 346.836 183.69C346.951 183.758 346.836 183.942 346.74 183.881C343.646 182.374 340.484 180.93 337.478 179.253C337.451 179.221 337.434 179.181 337.43 179.139C337.427 179.098 337.436 179.056 337.457 179.019C337.477 178.983 337.509 178.953 337.547 178.935C337.585 178.918 337.628 178.912 337.669 178.919Z" fill="#263238"/>
<path d="M363.928 171.675C363.125 171.676 362.322 171.612 361.529 171.484C360.848 171.354 360.125 171.157 359.444 170.959C358.156 170.577 356.588 170.127 355.648 169.105C354.737 167.992 354.01 166.74 353.494 165.398C352.849 163.994 352.422 162.5 352.226 160.968C352.23 160.96 352.231 160.951 352.229 160.942C352.228 160.933 352.225 160.925 352.22 160.918C352.215 160.911 352.208 160.905 352.201 160.901C352.193 160.897 352.184 160.894 352.175 160.894C352.167 160.894 352.158 160.897 352.15 160.901C352.142 160.905 352.136 160.911 352.131 160.918C352.126 160.925 352.122 160.933 352.121 160.942C352.12 160.951 352.121 160.96 352.124 160.968C352.221 162.552 352.484 164.121 352.908 165.65C353.145 166.411 353.439 167.154 353.787 167.872C354.102 168.591 354.522 169.259 355.034 169.855C356.07 170.979 357.76 171.525 359.226 171.818C360.789 172.104 362.392 172.104 363.955 171.818C364.058 171.831 364.024 171.675 363.928 171.675Z" fill="#263238"/>
<path d="M388.694 235.676C380.598 235.526 376.829 236.024 368.726 236.03H359.56C358.85 236.049 358.141 235.985 357.447 235.84C356.803 235.729 356.223 235.384 355.818 234.872C355.28 234.068 355.566 233.045 355.757 232.146C356.159 230.244 356.622 228.35 357.12 226.469C359.164 218.815 361.822 211.339 364.33 203.829L368.201 192.243C368.521 191.302 368.835 190.362 369.23 189.449C369.605 188.614 370.03 187.804 370.505 187.022C371.416 185.521 372.153 183.921 372.699 182.252C374.894 175.048 372.788 167.592 370.225 160.797C369.878 159.884 369.544 158.978 369.149 158.071C369.149 158.01 369.026 158.071 369.053 158.105C371.384 165.282 374.171 172.745 372.604 180.398C372.239 182.199 371.607 183.936 370.73 185.55C370.28 186.375 369.789 187.172 369.367 187.997C368.928 188.839 368.55 189.711 368.235 190.607C366.872 194.41 365.645 198.274 364.364 202.111C361.802 209.731 359.11 217.336 356.977 225.092C356.445 227.021 355.954 228.963 355.518 230.919C355.198 232.364 354.475 234.327 355.729 235.519C356.649 236.392 358.101 236.501 359.301 236.507C361.345 236.507 363.342 236.507 365.359 236.507C373.578 236.507 387.706 235.989 388.722 235.969C388.761 235.965 388.796 235.946 388.821 235.916C388.846 235.886 388.858 235.848 388.855 235.809C388.851 235.77 388.832 235.734 388.802 235.709C388.772 235.684 388.733 235.672 388.694 235.676Z" fill="#263238"/>
<path d="M400.607 265.267C399.81 261.144 399.054 257.001 398.14 252.898C397.227 248.795 396.232 244.686 395.169 240.631C394.869 239.479 394.556 238.334 394.249 237.182C394.108 236.637 393.958 236.092 393.799 235.546C393.662 234.988 393.494 234.437 393.295 233.897C393.295 233.843 393.193 233.897 393.193 233.931C393.308 234.997 393.494 236.053 393.751 237.094C393.956 238.095 394.147 239.09 394.351 240.085C394.774 242.13 395.208 244.174 395.653 246.219C396.546 250.308 397.568 254.397 398.604 258.425C399.199 260.729 399.796 263.03 400.396 265.329C400.43 265.397 400.635 265.37 400.607 265.267Z" fill="#263238"/>
<path d="M313.898 138.198L319.479 138.341C321.119 135.201 321.745 131.63 321.272 128.119C321.176 127.308 323.078 131.942 322.315 138.437C328.21 138.587 336.224 138.784 343.23 138.887C343.367 136.161 343.619 133.625 343.619 133.625C343.84 135.418 344.219 137.188 344.75 138.914L347.551 138.955C347.513 135.066 347.688 131.178 348.076 127.308C348.581 131.364 349.748 135.31 351.531 138.989C355.975 138.989 358.905 138.941 358.714 138.73C351.995 131.008 356.922 126.572 355.021 119.777C352.731 111.64 345.718 110.338 345.929 104.225C346.093 99.2495 346.72 90.2262 340.436 88.2907C338.738 86.6255 336.586 85.4976 334.251 85.0479C331.915 84.5982 329.499 84.8467 327.303 85.7623C317.367 89.5515 321.285 104.899 320.604 108.021C319.636 112.471 317.51 114.045 315.922 119.123C314.334 124.2 316.603 127.682 316.903 131.172C317.203 134.661 312.78 138.192 313.898 138.198Z" fill="#263238"/>
<path d="M358.912 137.599C357.995 136.254 357.271 134.788 356.759 133.244C356.254 131.731 356.472 130.177 356.759 128.575C357.115 126.952 357.388 125.312 357.576 123.662C357.762 121.938 357.597 120.195 357.092 118.537C356.552 116.879 355.638 115.368 354.421 114.12C353.241 112.935 351.964 111.85 350.604 110.876C349.289 109.943 348.102 108.841 347.074 107.598C346.089 106.306 345.474 104.77 345.295 103.155C345.232 104.838 345.678 106.501 346.577 107.925C347.524 109.318 348.673 110.562 349.984 111.619C351.238 112.641 352.424 113.743 353.535 114.918C354.586 116.069 355.377 117.433 355.852 118.918C356.288 120.422 356.445 121.992 356.316 123.552C356.22 125.14 355.92 126.742 355.709 128.391C355.589 129.231 355.534 130.078 355.545 130.927C355.579 131.796 355.768 132.652 356.104 133.455C356.784 134.993 357.735 136.397 358.912 137.599Z" fill="#263238"/>
<path d="M321.681 91.4325C320.986 93.348 320.528 95.3416 320.318 97.3685C320.066 99.4131 319.909 101.41 319.773 103.427L319.554 106.44C319.495 107.411 319.342 108.374 319.098 109.316C318.505 111.178 317.582 112.919 316.372 114.454C315.772 115.3 315.23 116.186 314.75 117.105C314.269 118.051 313.896 119.048 313.639 120.077C313.413 121.098 313.268 122.134 313.203 123.178C313.128 124.228 313.182 125.283 313.366 126.319C313.55 127.362 313.837 128.364 314.082 129.305C314.331 130.259 314.486 131.236 314.545 132.221C314.575 133.21 314.368 134.191 313.942 135.083C313.517 135.976 312.885 136.754 312.099 137.353C312.997 136.819 313.748 136.069 314.284 135.172C314.821 134.275 315.126 133.259 315.172 132.215C315.195 131.18 315.11 130.145 314.92 129.127C314.743 128.112 314.491 127.137 314.382 126.17C314.181 124.229 314.338 122.268 314.845 120.383C315.103 119.455 315.454 118.555 315.895 117.698C316.359 116.829 316.883 115.994 317.462 115.197C318.028 114.366 318.614 113.514 319.118 112.587C319.633 111.656 320.029 110.665 320.297 109.636C320.534 108.611 320.668 107.566 320.699 106.515C320.754 105.499 320.774 104.47 320.795 103.475C320.836 101.43 320.856 99.4335 320.952 97.4231C320.99 95.4066 321.234 93.3993 321.681 91.4325Z" fill="#263238"/>
<path d="M340.716 120.915C340.818 132.106 338.944 150.507 334.166 158.399C330.356 164.723 312.746 174.755 303.259 177.372C299.913 178.292 298.243 164.362 299.852 160.947C300.84 158.903 320.515 150.868 322.342 148.135C325.116 143.991 328.898 130.347 333.048 120.274C335.27 114.993 340.654 113.97 340.716 120.915Z" fill="#F7A9A0"/>
<path d="M305.74 157.785C305.74 157.785 300.486 157.151 298.114 157.383C295.742 157.615 287.21 161.724 288.021 163.612C289.029 166.052 294.413 164.648 296.955 163.612C296.955 163.612 299.293 169.255 303.375 169.064C307.457 168.873 305.74 157.785 305.74 157.785Z" fill="#F7A9A0"/>
<path d="M306.374 176.207C304.52 177.038 295.701 180.091 293.05 180.391C290.399 180.691 282.732 180.998 282.296 179.028C281.86 177.059 284.102 176.752 284.102 176.752C284.102 176.752 280.837 176.37 280.585 174.312C280.333 172.254 283.829 171.954 283.829 171.954C283.829 171.954 280.51 171.313 280.422 169.228C280.333 167.142 283.884 167.442 283.884 167.442C283.884 167.442 280.817 166.999 281.451 165.255C282.207 163.162 287.762 164.614 290.658 164.062C291.34 163.939 303.805 160.579 303.805 160.579L306.374 176.207Z" fill="#F7A9A0"/>
<path d="M312.814 173.617C309.747 175.142 306.555 176.403 303.273 177.386C299.865 178.592 294.931 180.173 293.05 180.384C290.406 180.684 282.732 180.991 282.296 179.021C281.86 177.052 284.102 176.745 284.102 176.745C284.102 176.745 280.837 176.363 280.585 174.305C280.387 172.71 282.452 172.172 283.386 172.008C283.332 171.947 283.352 171.865 283.454 171.852C282.589 171.62 280.49 170.877 280.401 169.242C280.313 167.606 282.446 167.442 283.42 167.442C283.439 167.433 283.46 167.428 283.482 167.428C283.503 167.428 283.524 167.433 283.543 167.442H283.584H283.85C283.85 167.442 280.783 166.999 281.417 165.255C282.003 163.626 285.506 164.144 288.389 164.191C288.226 164.027 288.096 163.833 288.007 163.619C287.223 161.731 295.735 157.622 298.1 157.39C300.413 157.321 302.728 157.43 305.024 157.717C305.706 157.363 306.421 157.001 307.164 156.627L312.814 173.617Z" fill="#DBDBDB"/>
<path d="M283.557 167.415C287.646 168.471 289.615 168.226 293.575 166.958C293.65 166.958 293.704 167.04 293.629 167.074C289.867 168.669 287.434 169.337 283.495 167.613C283.304 167.524 283.359 167.367 283.557 167.415Z" fill="#263238"/>
<path d="M283.509 171.838C287.85 172.561 289.99 172.315 294.229 171.293C294.291 171.293 294.325 171.375 294.263 171.395C290.174 172.758 287.748 173.358 283.502 172.077C283.311 172.002 283.304 171.804 283.509 171.838Z" fill="#263238"/>
<path d="M284.313 176.67C288.573 177.072 290.931 176.902 294.924 175.375C294.943 175.367 294.965 175.367 294.984 175.374C295.003 175.382 295.018 175.397 295.027 175.416C295.035 175.435 295.035 175.456 295.027 175.476C295.02 175.495 295.005 175.51 294.986 175.518C291.067 177.474 288.123 177.706 284.32 176.8C284.061 176.731 284.047 176.67 284.313 176.67Z" fill="#263238"/>
<path d="M288.511 164.191C291.04 165.752 294.29 164.191 296.833 163.36C296.87 163.347 296.91 163.343 296.949 163.349C296.988 163.354 297.026 163.369 297.058 163.391C297.091 163.414 297.117 163.444 297.136 163.479C297.155 163.513 297.165 163.552 297.166 163.592C298.305 165.895 300.574 168.805 303.252 169.207C303.269 169.207 303.284 169.214 303.296 169.225C303.307 169.237 303.314 169.253 303.314 169.269C303.314 169.285 303.307 169.301 303.296 169.312C303.284 169.324 303.269 169.33 303.252 169.33C300.322 169.289 297.855 166.604 296.771 164.007C294.175 164.887 290.842 166.325 288.498 164.219C288.511 164.205 288.511 164.185 288.511 164.191Z" fill="#263238"/>
<path d="M324.707 138.253L340.934 140.495C340.934 140.495 341.861 128.064 341.418 121.528C340.975 114.993 337.165 111.306 332.292 120.056C328.155 127.464 324.707 138.253 324.707 138.253Z" fill="#37474F"/>
<path d="M330.765 148.898L331.297 171.94C331.297 171.94 368.031 166.291 377.02 164.11C377.02 164.11 362.497 123.328 350.918 114.359C345.077 109.881 339.421 111.244 336.388 115.572C335.618 116.669 327.038 133.148 326.847 138.921C326.629 144.019 330.765 148.898 330.765 148.898Z" fill="#5740A0"/>
<path d="M345.2 113.289C345.2 114.038 342.699 119.375 339.393 119.886C338.317 120.049 337.165 114.209 337.165 114.209L336.981 113.8L334.411 108.041L340.545 102.064L341.452 101.253C341.452 101.253 342.051 102.875 342.774 104.906C342.808 105.002 342.842 105.09 342.876 105.192C342.91 105.295 342.965 105.41 342.999 105.519C343.115 105.819 343.224 106.133 343.333 106.44C343.442 106.746 343.496 106.903 343.571 107.155C343.646 107.407 343.735 107.646 343.816 107.898C344.4 109.661 344.862 111.462 345.2 113.289Z" fill="#F7A9A0"/>
<path d="M342.801 104.906C342.529 106.716 341.867 108.445 340.863 109.974C339.858 111.504 338.534 112.797 336.981 113.766L334.411 108.007L340.545 102.03L341.452 101.219C341.452 101.219 342.079 102.875 342.801 104.906Z" fill="#263238"/>
<path d="M323.166 102.385C326.615 112.894 333.301 112.014 335.57 111.244C337.615 110.563 344.546 107.993 342.201 97.1777C339.857 86.362 333.873 84.665 329.089 85.9872C324.305 87.3093 319.711 91.8823 323.166 102.385Z" fill="#F7A9A0"/>
<path d="M324.359 99.2836C324.598 99.1746 324.795 99.0314 325.041 98.902C325.292 98.7995 325.502 98.6176 325.64 98.384C325.669 98.302 325.67 98.2128 325.643 98.1303C325.616 98.0477 325.562 97.9764 325.49 97.9274C325.334 97.8513 325.159 97.8188 324.985 97.8332C324.811 97.8476 324.645 97.9084 324.502 98.0092C324.189 98.1714 323.947 98.4431 323.821 98.7725C323.801 98.8459 323.802 98.9232 323.822 98.9964C323.843 99.0695 323.883 99.1357 323.938 99.1881C323.993 99.2404 324.061 99.2769 324.135 99.2937C324.21 99.3105 324.287 99.307 324.359 99.2836Z" fill="#263238"/>
<path d="M331.311 97.0823C331.06 97.1257 330.808 97.1552 330.554 97.1709C330.291 97.238 330.012 97.214 329.764 97.1027C329.692 97.0537 329.638 96.9824 329.611 96.8998C329.584 96.8173 329.585 96.7281 329.614 96.6461C329.696 96.4929 329.817 96.3646 329.966 96.2746C330.115 96.1847 330.285 96.1365 330.459 96.135C330.808 96.0724 331.168 96.1429 331.467 96.3326C331.535 96.3792 331.587 96.4445 331.617 96.5204C331.647 96.5963 331.654 96.6794 331.638 96.7594C331.621 96.8394 331.581 96.9127 331.523 96.9701C331.465 97.0276 331.391 97.0666 331.311 97.0823Z" fill="#263238"/>
<path d="M330.765 100.197C330.765 100.197 330.834 100.197 330.84 100.245C331.038 100.974 331.386 101.771 332.108 101.819V101.86C331.297 101.989 330.847 100.919 330.765 100.197Z" fill="#263238"/>
<path d="M331.195 99.2495C332.333 98.8133 333.123 101.11 332.074 101.519C331.024 101.928 330.247 99.6175 331.195 99.2495Z" fill="#263238"/>
<path d="M331.692 99.2155C331.938 99.2768 332.21 99.4403 332.462 99.379C332.715 99.3177 332.878 98.9974 332.987 98.6975C332.987 98.6975 332.987 98.6975 333.035 98.6975C333.143 98.8963 333.171 99.1286 333.114 99.3474C333.057 99.5663 332.919 99.7554 332.728 99.8765C332.319 100.088 331.876 99.8016 331.611 99.3995C331.563 99.3381 331.59 99.1882 331.692 99.2155Z" fill="#263238"/>
<path d="M326.601 101.451C326.601 101.451 326.56 101.505 326.601 101.533C326.881 102.214 327.072 103.086 326.513 103.577C326.513 103.577 326.513 103.625 326.513 103.611C327.242 103.202 326.976 102.071 326.601 101.451Z" fill="#263238"/>
<path d="M325.709 100.933C324.53 101.253 325.252 103.577 326.342 103.277C327.433 102.977 326.676 100.667 325.709 100.933Z" fill="#263238"/>
<path d="M325.272 101.24C325.122 101.417 325.013 101.696 324.795 101.778C324.577 101.86 324.284 101.683 324.046 101.492C324.168 101.942 324.461 102.357 324.911 102.31C325.361 102.262 325.49 101.798 325.463 101.321C325.429 101.267 325.313 101.165 325.272 101.24Z" fill="#263238"/>
<path d="M328.666 104.429C328.764 104.976 328.889 105.517 329.041 106.051C329.041 106.099 329.184 106.051 329.355 106.051C329.816 105.989 330.252 105.8 330.613 105.505C330.974 105.21 331.246 104.821 331.399 104.381C331.399 104.32 331.338 104.293 331.304 104.334C330.808 104.991 330.112 105.47 329.321 105.697C329.239 105.567 329.034 103.768 328.953 103.788C328.573 103.953 328.217 104.168 327.896 104.429C327.392 102.119 327.269 99.7402 326.744 97.4435C326.74 97.4283 326.73 97.4149 326.717 97.4055C326.704 97.396 326.689 97.3909 326.673 97.3909C326.657 97.3909 326.641 97.396 326.628 97.4055C326.616 97.4149 326.606 97.4283 326.601 97.4435C326.653 99.9941 326.962 102.533 327.521 105.022C327.583 105.274 328.489 104.552 328.666 104.429Z" fill="#263238"/>
<path d="M341.349 97.682C338.835 98.6907 334.739 91.3848 334.248 90.4852C334.527 91.0713 336.006 94.1722 335.822 94.3971C335.554 94.5121 335.268 94.579 334.977 94.5948C334.811 94.2184 334.615 93.8561 334.391 93.5111C334.296 93.3408 334.493 93.9132 334.698 94.6356L334.18 94.7106C333.852 93.8964 333.419 93.1288 332.892 92.4275C332.687 92.1685 333.198 93.5316 333.43 94.8265C331.04 95.14 328.693 95.7183 326.431 96.5507C325.797 96.8029 325.266 97.0414 324.809 97.2731C324.597 96.6889 324.356 96.1157 324.086 95.5557C324.153 96.1974 324.278 96.8317 324.461 97.4503L323.78 97.8183C323.139 96.5371 322.839 94.1722 322.771 94.5811C322.585 95.8405 322.638 97.1239 322.928 98.3636C322.117 98.936 321.947 99.2155 321.817 98.9974C320.948 96.301 321.063 93.3835 322.144 90.7646C323.957 86.471 329.818 83.0021 335.291 85.994C335.291 85.994 338.991 86.6005 340.743 89.4016C342.494 92.2026 342.808 97.0959 341.349 97.682Z" fill="#263238"/>
<path d="M338.746 98.7043C338.746 98.7043 339.427 94.5402 341.193 94.6152C342.958 94.6902 343.53 100.006 342.174 101.43C342.013 101.631 341.813 101.795 341.586 101.914C341.358 102.033 341.109 102.104 340.853 102.122C340.597 102.14 340.34 102.105 340.098 102.019C339.856 101.932 339.635 101.797 339.448 101.621L338.746 98.7043Z" fill="#F7A9A0"/>
<path d="M341.315 96.1554C341.315 96.1554 341.363 96.1554 341.315 96.1963C340.382 97.2254 340.293 98.6021 340.402 99.9242C340.413 99.7752 340.456 99.6302 340.528 99.4995C340.601 99.3687 340.701 99.2553 340.821 99.1671C340.942 99.0789 341.08 99.018 341.227 98.9887C341.373 98.9594 341.524 98.9623 341.67 98.9974C341.711 98.9974 341.704 99.0655 341.67 99.0723C341.435 99.1061 341.216 99.2121 341.044 99.3757C340.871 99.5393 340.754 99.7525 340.709 99.9856C340.631 100.376 340.596 100.774 340.607 101.171C340.607 101.301 340.389 101.342 340.368 101.171C339.625 99.7061 339.802 97.0755 341.315 96.1554Z" fill="#263238"/>
<path d="M329.729 141.613H285.07V191.064H329.729V141.613Z" fill="#5740A0"/>
<path opacity="0.1" d="M329.729 141.613H285.07V191.064H329.729V141.613Z" fill="black"/>
<path d="M262.014 191.07H285.07V141.619H262.014V191.07Z" fill="#5740A0"/>
<path d="M303.607 152.299H304.554H305.263L305.672 151.474L306.238 152.299L307.008 150.609L307.737 152.299H309.829H310.783L311.131 151.168L311.451 152.299H312.071V141.613H303.607V152.299Z" fill="white"/>
<g opacity="0.1">
<path d="M263.602 187.663C265.305 184.146 266.998 180.618 268.679 177.079L273.681 166.447L278.616 155.767C280.256 152.196 281.878 148.616 283.482 145.027C281.773 148.543 280.081 152.071 278.404 155.611L273.402 166.249L268.461 176.929C266.834 180.495 265.215 184.073 263.602 187.663Z" fill="black"/>
<path d="M263.602 145.02C265.206 148.614 266.825 152.192 268.461 155.754L273.402 166.447L278.404 177.086C280.081 180.621 281.773 184.149 283.482 187.67C281.873 184.08 280.251 180.5 278.616 176.929L273.681 166.25L268.679 155.611C267.002 152.072 265.31 148.542 263.602 145.02Z" fill="black"/>
</g>
<path d="M337.138 152.306H292.485L285.076 141.613H329.73L337.138 152.306Z" fill="#5740A0"/>
<g opacity="0.2">
<path d="M337.138 152.306H292.485L285.076 141.613H329.73L337.138 152.306Z" fill="black"/>
</g>
<path d="M277.661 152.313H254.674L262.082 141.613H285.076L277.661 152.313Z" fill="#5740A0"/>
<path opacity="0.1" d="M277.661 152.313H254.674L262.082 141.613H285.076L277.661 152.313Z" fill="black"/>
<path d="M354.619 121.174C359.185 131.349 367.077 152.837 364.487 160.702C361.079 171 345.452 181.686 340.838 184.869C338.794 186.232 328.823 173.433 329.436 170.891C330.05 168.349 346.42 158.003 347.429 156.334C348.437 154.664 346.577 133.257 345.854 123.818C344.914 111.926 350.72 112.566 354.619 121.174Z" fill="#F7A9A0"/>
<path d="M324.782 177.747C325.327 176.622 324.741 176.329 322.737 177.297C320.733 178.265 313.687 183.792 311.969 181.161C310.252 178.531 320.325 170.891 323.759 169.535C327.194 168.178 333.239 167.183 333.239 167.183C331.59 169.064 327.992 174.012 324.782 177.747Z" fill="#F7A9A0"/>
<path d="M345.677 180.861C340.804 185.993 335.045 192.672 327.372 194.867C326.526 195.131 325.617 195.105 324.789 194.792C321.381 195.834 319.841 194.533 319.841 194.533C316.358 194.533 314.988 192.986 314.988 192.986C314.988 192.986 310.954 194.171 309.836 191.854C308.568 189.258 314.477 188.106 317.333 185.482C323.889 179.478 331.529 169.126 333.246 167.183L345.677 180.861Z" fill="#F7A9A0"/>
<path d="M347.238 180.221C346.113 181.08 345.05 181.856 344.096 182.545C339.564 187.356 334.234 192.904 327.372 194.867C326.538 195.122 325.643 195.1 324.823 194.805C321.415 195.848 319.882 194.546 319.882 194.546C316.747 194.546 315.322 193.292 315.07 193.04C315.06 193.037 315.052 193.032 315.045 193.025C315.037 193.018 315.032 193.009 315.029 192.999C315.029 192.999 310.995 194.185 309.877 191.868C308.609 189.271 314.518 188.12 317.374 185.496C320.051 182.966 322.577 180.28 324.938 177.454C325.232 176.588 324.577 176.438 322.785 177.311C320.74 178.285 313.734 183.806 312.017 181.175C310.299 178.544 320.372 170.904 323.807 169.548C326.806 168.349 331.801 167.449 333.014 167.245C333.512 166.843 334.044 166.427 334.602 166.004L347.238 180.221Z" fill="#DBDBDB"/>
<path d="M328.632 184.017C326.732 185.794 324.713 187.438 322.587 188.937C320.165 190.439 317.634 191.758 315.015 192.883C314.998 192.89 314.984 192.903 314.977 192.919C314.969 192.936 314.968 192.955 314.975 192.972C314.981 192.989 314.994 193.003 315.01 193.011C315.027 193.018 315.046 193.019 315.063 193.013C320.336 191.34 325.051 188.255 328.694 184.092C328.796 184.01 328.721 183.928 328.632 184.017Z" fill="#263238"/>
<path d="M332.81 187.445C330.806 189.019 327.262 191.773 319.786 194.458C319.786 194.458 319.786 194.512 319.786 194.505C324.719 193.457 329.264 191.057 332.912 187.574C333.028 187.431 332.967 187.343 332.81 187.445Z" fill="#263238"/>
<path d="M335.059 189.333C331.549 191.882 329.007 193.047 324.795 194.785C324.795 194.785 324.795 194.839 324.795 194.826C329.791 193.374 331.44 192.277 335.148 189.455C335.291 189.34 335.195 189.23 335.059 189.333Z" fill="#263238"/>
<path d="M361.938 137.101L345.718 139.405C345.718 139.405 344.743 126.981 345.166 120.445C345.588 113.909 349.385 110.222 354.285 118.932C358.449 126.333 361.938 137.101 361.938 137.101Z" fill="#37474F"/>
<path d="M252.486 245.912H196.213V299.159H252.486V245.912Z" fill="#5740A0"/>
<path d="M278.023 245.912H252.486V299.166H278.023V245.912Z" fill="#5740A0"/>
<path opacity="0.1" d="M278.023 245.912H252.486V299.166H278.023V245.912Z" fill="black"/>
<path d="M276.244 295.5C274.349 291.71 272.475 287.912 270.621 284.105L265.081 272.648L259.628 261.144C257.811 257.31 256.014 253.448 254.238 249.558C256.132 253.343 258.006 257.142 259.86 260.953L265.401 272.403L270.853 283.907C272.684 287.769 274.481 291.633 276.244 295.5Z" fill="#5740A0"/>
<path d="M276.244 249.593C274.467 253.454 272.673 257.316 270.86 261.178L265.408 272.682L259.887 284.105C258.034 287.917 256.16 291.715 254.265 295.5C256.041 291.629 257.838 287.767 259.656 283.914L265.108 272.41L270.649 260.96C272.498 257.157 274.363 253.368 276.244 249.593Z" fill="#5740A0"/>
<path d="M215.255 282.817V293.039H233.445V282.817C233.445 279.729 232.831 272.28 227.311 270.345C226.363 270.023 225.368 269.864 224.367 269.875C216.08 269.875 215.255 279.245 215.255 282.817Z" fill="white"/>
<g style="mix-blend-mode:multiply">
<path d="M215.255 290.893V293.033H233.445V282.81C233.445 279.722 232.831 272.274 227.311 270.338C230.487 275.913 231.032 282.817 225.893 287.621C222.704 290.6 218.996 291.302 215.255 290.893Z" fill="#EBEBEB"/>
</g>
<path d="M214.737 294.348H233.99C234.112 294.348 234.233 294.324 234.346 294.277C234.459 294.23 234.561 294.161 234.648 294.074C234.734 293.987 234.802 293.884 234.848 293.771C234.894 293.658 234.918 293.537 234.917 293.414C234.917 293.168 234.819 292.933 234.645 292.759C234.471 292.585 234.236 292.487 233.99 292.487H214.737C214.615 292.486 214.493 292.51 214.38 292.556C214.267 292.602 214.164 292.67 214.077 292.756C213.99 292.843 213.921 292.945 213.874 293.058C213.827 293.171 213.803 293.292 213.803 293.414C213.803 293.537 213.827 293.658 213.874 293.772C213.921 293.885 213.99 293.988 214.077 294.074C214.163 294.161 214.266 294.23 214.38 294.277C214.493 294.324 214.614 294.348 214.737 294.348Z" fill="white"/>
<path d="M221.484 272.192H227.222V267.796H221.484V272.192Z" fill="white"/>
<path d="M220.816 268.518H227.897V265.676H220.816V268.518Z" fill="#455A64"/>
<path d="M223.065 266.153H225.648V262.882H223.065V266.153Z" fill="#455A64"/>
<path d="M227.079 261.717C227.267 261.83 227.421 261.992 227.526 262.185C227.63 262.378 227.68 262.595 227.672 262.814C227.664 263.034 227.597 263.247 227.478 263.431C227.359 263.616 227.193 263.765 226.997 263.864C226.118 264.382 221.47 263.243 220.98 263.291C220.489 263.339 219.323 263.864 219.167 263.864C219.01 263.864 218.485 263.605 218.519 263.373C218.553 263.141 220.121 261.976 221.341 261.69C222.561 261.403 226.084 260.953 227.079 261.717Z" fill="#455A64"/>
<path d="M228.912 257.423H227.89H227.127L226.691 256.537L226.077 257.423L225.246 255.597L224.462 257.423H222.206H221.184L220.809 256.203L220.462 257.423H219.794V245.912H228.912V257.423Z" fill="white"/>
<path d="M318.702 245.912H270.621V299.159H318.702V245.912Z" fill="#5740A0"/>
<path d="M343.53 245.912H318.703V299.159H343.53V245.912Z" fill="#5740A0"/>
<path opacity="0.1" d="M343.53 245.912H318.703V299.159H343.53V245.912Z" fill="black"/>
<path d="M298.741 257.423H297.725H296.955L296.519 256.537L295.913 257.423L295.081 255.597L294.291 257.423H292.042H291.012L290.644 256.203L290.297 257.423H289.622V245.912H298.741V257.423Z" fill="white"/>
<path d="M341.82 295.493C339.979 291.708 338.162 287.91 336.367 284.098L330.983 272.648L325.647 261.178C323.889 257.335 322.144 253.473 320.413 249.593C322.253 253.377 324.071 257.176 325.865 260.988L331.249 272.437L336.572 283.941C338.339 287.78 340.089 291.631 341.82 295.493Z" fill="#5740A0"/>
<path d="M341.82 249.593C340.089 253.454 338.344 257.316 336.586 261.178L331.263 272.682L325.879 284.132C324.062 287.948 322.244 291.747 320.427 295.527C322.158 291.665 323.903 287.803 325.661 283.941L330.983 272.437L336.367 260.988C338.162 257.167 339.98 253.368 341.82 249.593Z" fill="#5740A0"/>
<path d="M289.261 192.665H241.18V245.912H289.261V192.665Z" fill="#5740A0"/>
<path d="M314.089 192.665H289.261V245.912H314.089V192.665Z" fill="#5740A0"/>
<path opacity="0.1" d="M314.089 192.665H289.261V245.912H314.089V192.665Z" fill="black"/>
<path d="M269.299 204.176H268.284H267.514L267.078 203.29L266.471 204.176L265.64 202.35L264.849 204.176H262.6H261.571L261.203 202.956L260.855 204.176H260.187V192.665H269.299V204.176Z" fill="white"/>
<path d="M312.364 242.246C310.547 238.461 308.73 234.663 306.912 230.851L301.528 219.401L296.206 207.897C294.447 204.053 292.703 200.192 290.972 196.311C292.789 200.096 294.606 203.894 296.424 207.706L301.808 219.156L307.13 230.66C308.898 234.522 310.642 238.384 312.364 242.246Z" fill="#5740A0"/>
<path d="M312.364 196.339C310.633 200.201 308.889 204.063 307.13 207.924L301.808 219.429L296.424 230.878C294.606 234.695 292.789 238.493 290.972 242.273C292.703 238.411 294.447 234.549 296.206 230.687L301.528 219.183L306.912 207.734C308.73 203.917 310.547 200.119 312.364 196.339Z" fill="#5740A0"/>
<path d="M233.192 204.183H281.274L289.254 192.665H241.18L233.192 204.183Z" fill="#5740A0"/>
<path opacity="0.1" d="M233.192 204.183H281.274L289.254 192.665H241.18L233.192 204.183Z" fill="black"/>
<path d="M297.235 204.183H321.994L314.014 192.665H289.254L297.235 204.183Z" fill="#5740A0"/>
<path d="M146.626 245.919H98.5447V299.166H146.626V245.919Z" fill="#DBDBDB"/>
<path d="M171.454 245.919H146.626V299.166H171.454V245.919Z" fill="#C7C7C7"/>
<path d="M126.664 257.423H125.649H124.885L124.449 256.537L123.836 257.423L123.004 255.597L122.221 257.423H119.965H118.943L118.568 256.203L118.22 257.423H117.552V245.919H126.664V257.423Z" fill="white"/>
<path d="M169.743 295.5C167.926 291.71 166.108 287.912 164.291 284.105L158.907 272.648L153.57 261.178C151.808 257.344 150.061 253.482 148.33 249.593C150.17 253.377 151.987 257.176 153.782 260.988L159.173 272.437L164.488 283.941C166.265 287.78 168.016 291.633 169.743 295.5Z" fill="#DBDBDB"/>
<path d="M169.743 249.593C168.016 253.454 166.272 257.316 164.509 261.178L159.193 272.682L153.802 284.139C151.985 287.951 150.167 291.749 148.35 295.534C150.081 291.663 151.828 287.801 153.591 283.948L158.907 272.444L164.291 260.994C166.09 257.178 167.907 253.377 169.743 249.593Z" fill="#DBDBDB"/>
<path d="M137.705 192.658H89.6235V245.906H137.705V192.658Z" fill="#DBDBDB"/>
<path d="M162.533 192.665H137.705V245.912H162.533V192.665Z" fill="#C7C7C7"/>
<path d="M117.743 204.169H116.728H115.964L115.528 203.283L114.915 204.169L114.083 202.35L113.3 204.169H111.044H110.021L109.647 202.956L109.299 204.169H108.631V192.665H117.743V204.169Z" fill="white"/>
<path d="M160.829 242.246C159.011 238.457 157.194 234.658 155.377 230.851L149.993 219.394L144.677 207.89C142.914 204.056 141.167 200.194 139.436 196.305C141.276 200.094 143.093 203.892 144.888 207.7L150.272 219.156L155.588 230.66C157.355 234.517 159.102 238.379 160.829 242.246Z" fill="#DBDBDB"/>
<path d="M160.829 196.332C159.098 200.194 157.351 204.056 155.588 207.918L150.272 219.422L144.888 230.878C143.071 234.685 141.253 238.484 139.436 242.273C141.167 238.411 142.914 234.549 144.677 230.687L149.993 219.183L155.377 207.727C157.167 203.919 158.984 200.121 160.829 196.332Z" fill="#DBDBDB"/>
<path d="M81.6431 204.176H129.717L137.705 192.658H89.6236L81.6431 204.176Z" fill="#C7C7C7"/>
<path d="M145.685 204.183H170.438L162.458 192.665H137.705L145.685 204.183Z" fill="#DBDBDB"/>
<path d="M204.132 285.713V291.745C204.132 297.353 204.085 302.274 203.805 304.816V304.796C203.735 305.388 203.597 305.971 203.396 306.533L203.362 306.568C201.699 307.706 156.855 309.246 155.274 308.769C153.693 308.292 154.913 303.753 156.603 302.301C158.293 300.85 175.215 292.59 175.215 292.59L175.127 286.456L204.132 285.713Z" fill="#C7C7C7"/>
<path d="M155.267 308.796C156.855 309.273 201.699 307.74 203.369 306.595C204.01 306.172 204.166 299.623 204.126 291.71V291.458L175.181 292.14V292.63C175.181 292.63 158.28 300.897 156.576 302.349C154.872 303.801 153.686 308.333 155.267 308.796Z" fill="#37474F"/>
<path d="M155.717 307.045C163.268 306.595 193.773 305.518 201.277 305.682C201.338 305.682 201.338 305.722 201.277 305.729C193.78 306.329 163.289 307.167 155.724 307.195C155.56 307.167 155.56 307.051 155.717 307.045Z" fill="#263238"/>
<path d="M172.783 292.787C175.74 292.106 179.393 292.46 181.738 294.505C181.826 294.586 181.738 294.709 181.615 294.682C178.743 293.863 175.791 293.353 172.81 293.162C172.765 293.157 172.724 293.137 172.692 293.105C172.661 293.073 172.642 293.031 172.639 292.986C172.636 292.941 172.648 292.897 172.675 292.861C172.701 292.824 172.739 292.798 172.783 292.787Z" fill="#263238"/>
<path d="M170.683 294.157C173.634 293.476 177.287 293.83 179.639 295.875C179.727 295.949 179.639 296.079 179.516 296.052C176.641 295.232 173.687 294.722 170.704 294.532C170.66 294.526 170.619 294.505 170.588 294.473C170.558 294.44 170.54 294.398 170.537 294.353C170.535 294.308 170.548 294.264 170.575 294.229C170.602 294.193 170.64 294.168 170.683 294.157Z" fill="#263238"/>
<path d="M168.564 295.52C171.522 294.839 175.175 295.2 177.519 297.238C177.608 297.319 177.519 297.449 177.396 297.422C174.524 296.6 171.572 296.088 168.591 295.895C168.547 295.89 168.505 295.87 168.474 295.838C168.442 295.806 168.424 295.764 168.42 295.719C168.417 295.674 168.43 295.63 168.456 295.593C168.482 295.557 168.52 295.531 168.564 295.52Z" fill="#263238"/>
<path d="M206.708 153.519L206.681 155.461L205.584 241.237L205.577 241.564L204.93 292.944L173.539 292.317L179.598 153.621L179.679 151.767L179.986 135.677H206.497L206.708 153.519Z" fill="#455A64"/>
<path d="M174.847 287.076C179.748 287.028 178.344 286.974 183.244 286.988C185.643 286.988 201.406 287.049 203.642 287.444C203.689 287.444 203.689 287.54 203.642 287.546C201.393 287.887 185.636 287.546 183.237 287.505C178.337 287.403 179.748 287.376 174.847 287.219C174.759 287.219 174.759 287.076 174.847 287.076Z" fill="#263238"/>
<path d="M188.914 162.542C188.914 162.528 188.908 162.514 188.898 162.504C188.888 162.493 188.874 162.488 188.859 162.488C188.845 162.488 188.831 162.493 188.821 162.504C188.811 162.514 188.805 162.528 188.805 162.542C188.805 170.72 188.471 175.355 188.273 183.56C188.076 191.766 187.83 199.971 187.592 208.17C187.149 224.574 186.488 240.965 185.881 257.362C185.54 266.558 185.116 275.749 184.607 284.936C184.607 284.949 184.612 284.961 184.621 284.97C184.63 284.979 184.642 284.984 184.655 284.984C184.667 284.984 184.679 284.979 184.688 284.97C184.697 284.961 184.702 284.949 184.702 284.936C185.895 268.58 187.033 252.169 187.68 235.765C188.328 219.36 188.805 202.963 188.88 186.559C188.941 177.352 188.894 171.749 188.914 162.542Z" fill="#263238"/>
<path d="M206.702 153.519L205.584 241.237L184.545 135.677H206.49L206.702 153.519Z" fill="#263238"/>
<path d="M242.488 283.88C242.488 283.88 243.299 289.829 243.299 289.85C244.083 295.411 244.662 300.298 244.744 302.853C244.744 302.853 244.744 302.853 244.744 302.894C244.76 303.49 244.703 304.085 244.574 304.666C244.574 304.666 244.574 304.7 244.574 304.707C243.081 306.07 198.85 313.635 197.222 313.376C195.593 313.117 196.186 308.455 197.671 306.786C199.157 305.116 214.798 294.655 214.798 294.655L213.892 288.603L242.488 283.88Z" fill="#C7C7C7"/>
<path d="M197.188 313.376C198.816 313.635 243.047 306.063 244.546 304.707C245.126 304.196 244.396 297.687 243.292 289.85L243.251 289.605L214.669 294.171L214.764 294.655C214.764 294.655 199.13 305.123 197.637 306.792C196.145 308.462 195.559 313.131 197.188 313.376Z" fill="#37474F"/>
<path d="M197.399 311.611C204.821 310.152 234.882 304.966 242.379 304.114C242.441 304.114 242.447 304.114 242.379 304.162C235.053 305.77 204.937 310.711 197.44 311.761C197.263 311.72 197.242 311.611 197.399 311.611Z" fill="#263238"/>
<path d="M212.385 295.152C215.227 294.103 218.887 293.939 221.491 295.643C221.593 295.711 221.491 295.854 221.395 295.84C218.437 295.41 215.442 295.303 212.46 295.52C212.416 295.521 212.372 295.506 212.337 295.478C212.302 295.451 212.278 295.411 212.269 295.367C212.26 295.324 212.267 295.278 212.288 295.239C212.31 295.199 212.344 295.169 212.385 295.152Z" fill="#263238"/>
<path d="M210.484 296.788C213.326 295.739 216.993 295.575 219.589 297.286C219.691 297.347 219.589 297.49 219.494 297.476C216.535 297.053 213.54 296.946 210.559 297.156C210.514 297.157 210.471 297.142 210.436 297.114C210.401 297.087 210.377 297.047 210.368 297.003C210.359 296.96 210.366 296.914 210.387 296.875C210.408 296.835 210.442 296.805 210.484 296.788Z" fill="#263238"/>
<path d="M208.589 298.43C211.425 297.381 215.091 297.217 217.695 298.921C217.79 298.989 217.695 299.132 217.599 299.119C214.641 298.688 211.645 298.581 208.664 298.798C208.62 298.799 208.576 298.785 208.541 298.757C208.506 298.729 208.482 298.689 208.473 298.646C208.464 298.602 208.471 298.556 208.492 298.517C208.514 298.477 208.548 298.447 208.589 298.43Z" fill="#263238"/>
<path d="M182.678 135.649C182.794 136.195 184.648 144.795 186.57 152.183C187.967 157.581 189.405 162.324 190.229 162.815C191.163 163.367 195.716 165.384 197.242 166.018L204.207 232.636L213.64 294.368L244.458 289.598L222.527 154.548L218.955 135.649H182.678Z" fill="#455A64"/>
<path d="M213.83 288.228C218.669 287.451 217.238 287.601 222.118 286.865C224.489 286.51 240.076 284.2 242.352 284.261C242.4 284.261 242.413 284.343 242.352 284.357C240.178 285.038 224.551 287.083 222.172 287.383C217.313 288.01 218.703 287.778 213.837 288.351C213.827 288.356 213.816 288.359 213.804 288.359C213.793 288.359 213.781 288.356 213.771 288.35C213.761 288.345 213.753 288.337 213.747 288.327C213.74 288.317 213.737 288.306 213.736 288.295C213.736 288.283 213.738 288.272 213.743 288.261C213.748 288.251 213.755 288.242 213.765 288.235C213.774 288.229 213.785 288.224 213.797 288.223C213.808 288.222 213.82 288.223 213.83 288.228Z" fill="#263238"/>
<path d="M231.666 269.793C230.902 265.513 230.139 261.233 229.348 256.953C227.776 248.393 226.186 239.835 224.578 231.28C221.361 214.156 218.181 197.018 215.037 179.866C213.278 170.189 213.326 171.095 211.786 161.37C211.786 161.309 211.67 161.315 211.683 161.37C213.156 170.012 212.46 168.117 213.851 176.772C215.241 185.428 216.699 193.899 218.233 202.438C221.313 219.608 224.505 236.755 227.808 253.879C228.717 258.682 229.646 263.482 230.596 268.28C231.55 273.173 232.64 278.039 233.649 282.919C233.649 283.028 233.84 283.021 233.826 282.919C233.09 278.55 232.449 274.161 231.666 269.793Z" fill="#263238"/>
<path d="M223.181 162.011C222.363 161.799 221.484 161.731 220.652 161.602C219.971 161.493 219.289 161.37 218.608 161.227C217.325 160.997 216.11 160.485 215.05 159.727C213.892 158.828 213.299 157.458 212.74 156.143C212.404 155.366 212.063 154.589 211.718 153.812L211.206 152.687C210.968 152.246 210.757 151.791 210.573 151.324C210.573 151.256 210.443 151.29 210.47 151.324C210.583 151.644 210.679 151.969 210.757 152.299C210.866 152.674 210.975 153.049 211.091 153.423C211.302 154.105 211.506 154.786 211.724 155.434C212.056 156.663 212.534 157.849 213.149 158.964C214.389 160.927 216.597 161.69 218.805 162.004C219.439 162.079 220.08 162.126 220.714 162.161C221.519 162.232 222.328 162.232 223.133 162.161C223.146 162.154 223.158 162.145 223.168 162.134C223.177 162.123 223.184 162.11 223.189 162.096C223.193 162.082 223.195 162.067 223.194 162.052C223.192 162.038 223.188 162.023 223.181 162.011Z" fill="#263238"/>
<path d="M187.817 161.636C191.062 162.817 194.198 164.281 197.188 166.011C197.213 166.023 197.233 166.044 197.242 166.07C197.252 166.097 197.251 166.125 197.239 166.151C197.227 166.176 197.206 166.196 197.18 166.205C197.153 166.215 197.124 166.214 197.099 166.202C193.937 164.839 190.713 163.544 187.633 162.017C187.608 162.005 187.585 161.988 187.567 161.968C187.548 161.947 187.534 161.923 187.525 161.896C187.516 161.87 187.512 161.842 187.513 161.815C187.515 161.787 187.522 161.76 187.534 161.735C187.546 161.71 187.563 161.687 187.584 161.669C187.604 161.65 187.629 161.636 187.655 161.627C187.681 161.617 187.709 161.613 187.737 161.615C187.765 161.617 187.792 161.624 187.817 161.636Z" fill="#263238"/>
<path d="M186.863 139.984C186.863 139.875 187.067 139.848 187.067 139.984C187.067 143.732 187.278 147.038 187.592 150.547C187.742 152.176 189.05 161.172 191.872 160.518C192.349 160.409 192.587 159.939 192.662 159.23C192.649 158.309 192.523 157.394 192.287 156.504C191.974 154.616 191.722 152.728 191.565 150.827C191.233 147.284 191.27 143.717 191.674 140.182C191.68 140.161 191.692 140.144 191.708 140.131C191.725 140.118 191.745 140.111 191.766 140.111C191.787 140.111 191.807 140.118 191.824 140.131C191.841 140.144 191.853 140.161 191.858 140.182C191.773 145.09 192.06 149.997 192.717 154.861C193.071 157.199 194.25 160.723 191.804 161.084C189.357 161.445 187.715 155.55 187.394 153.935C186.612 149.327 186.434 144.637 186.863 139.984Z" fill="#263238"/>
<path d="M191.797 160.743C192.051 161.351 192.265 161.975 192.437 162.61C192.621 163.1 192.709 163.621 192.696 164.144C192.696 164.246 192.553 164.253 192.506 164.185C192.206 163.724 191.976 163.221 191.824 162.692C191.613 162.12 191.388 161.54 191.183 160.961C191.155 160.88 191.159 160.79 191.196 160.712C191.233 160.634 191.3 160.574 191.381 160.545C191.462 160.516 191.552 160.521 191.63 160.558C191.708 160.595 191.768 160.662 191.797 160.743Z" fill="#263238"/>
<path d="M192.063 104.32C187.973 118.577 180.79 133.38 178.671 136.31C172.987 144.202 155.438 152.34 150.047 153.485C147.716 153.982 141.617 139.002 143.014 136.869C144.411 134.736 166.247 125.617 167.296 124.459C168.025 123.655 178.33 111.708 184.171 104.081C191.735 94.2063 193.133 100.572 192.063 104.32Z" fill="#EB9481"/>
<path d="M152.03 152.926C149.938 154.173 139.763 159.148 136.641 159.871C133.52 160.593 124.429 162.011 123.631 159.687C122.834 157.363 125.471 156.729 125.471 156.729C125.471 156.729 121.532 156.729 120.946 154.309C120.36 151.89 124.49 151.052 124.49 151.052C124.49 151.052 120.442 150.745 120.033 148.326C119.624 145.906 123.911 145.715 123.911 145.715C123.911 145.715 120.196 145.613 120.708 143.453C121.321 140.856 128.143 141.817 131.516 140.768C132.287 140.529 146.708 134.811 146.708 134.811L152.03 152.926Z" fill="#EB9481"/>
<path d="M123.543 145.709C128.559 146.39 130.876 145.845 135.415 143.794C135.503 143.753 135.585 143.875 135.497 143.923C131.23 146.342 128.429 147.467 123.495 145.968C123.256 145.879 123.304 145.681 123.543 145.709Z" fill="#263238"/>
<path d="M124.088 150.984C129.363 151.256 131.878 150.67 136.798 148.864C136.813 148.862 136.828 148.866 136.841 148.874C136.854 148.881 136.864 148.893 136.869 148.907C136.875 148.921 136.875 148.936 136.871 148.951C136.867 148.965 136.858 148.978 136.846 148.987C132.171 151.161 129.349 152.217 124.115 151.256C123.884 151.209 123.849 150.977 124.088 150.984Z" fill="#263238"/>
<path d="M125.717 156.633C130.842 156.524 133.629 156 138.175 153.635C138.197 153.621 138.223 153.617 138.248 153.623C138.273 153.628 138.294 153.644 138.308 153.665C138.321 153.687 138.326 153.713 138.32 153.738C138.314 153.763 138.299 153.785 138.277 153.798C133.875 156.661 130.399 157.342 125.737 156.79C125.417 156.749 125.397 156.64 125.717 156.633Z" fill="#263238"/>
<path d="M149.584 133.421C149.584 133.421 143.566 131.376 140.724 131.097C137.882 130.817 126.889 133.544 127.346 135.956C127.939 139.064 134.604 138.723 137.848 138.13C137.848 138.13 139.211 145.327 144.05 146.118C148.888 146.908 149.584 133.421 149.584 133.421Z" fill="#EB9481"/>
<path d="M127.795 136.753C130.385 139.2 134.611 138.117 137.78 137.81C137.826 137.802 137.874 137.805 137.919 137.82C137.964 137.835 138.004 137.861 138.037 137.896C138.069 137.93 138.092 137.972 138.105 138.018C138.117 138.063 138.118 138.111 138.107 138.157C138.884 141.136 140.833 145.109 143.893 146.233C143.91 146.241 143.923 146.254 143.931 146.27C143.939 146.287 143.941 146.305 143.936 146.323C143.931 146.341 143.92 146.356 143.904 146.366C143.889 146.376 143.87 146.379 143.852 146.377C140.444 145.613 138.175 141.865 137.534 138.553C134.27 138.948 130.038 139.82 127.775 136.781C127.761 136.76 127.782 136.74 127.795 136.753Z" fill="#263238"/>
<path d="M149.679 132.542L158.464 150.943C158.464 150.943 176.02 143.139 178.787 137.442C179.645 135.704 189.009 117.732 191.463 107.278C193.916 96.8233 191.204 95.9305 184.123 103.25C177.042 110.57 167.589 122.878 166.635 123.736C165.681 124.595 149.679 132.542 149.679 132.542Z" fill="#EBEBEB"/>
<path d="M222.717 156.477L178.787 156.224C178.603 156.013 174.698 153.403 175.583 146.997C177.587 132.392 183.694 106.106 187.169 100.735C187.819 99.6446 188.68 98.6946 189.702 97.941C190.723 97.1873 191.885 96.6451 193.119 96.3462C194.353 96.0472 195.634 95.9975 196.887 96.2C198.141 96.4025 199.341 96.853 200.418 97.5253C202.94 99.3108 205.23 101.614 208.003 106.29C214.819 117.828 221.681 137.912 223.726 148.85C224.585 153.396 222.826 156.354 222.717 156.477Z" fill="#5740A0"/>
<g opacity="0.1">
<path d="M177.192 137.34V154.541C177.042 154.33 176.885 154.098 176.735 153.86C176.46 153.385 176.232 152.886 176.054 152.367V143.957C176.115 143.569 176.176 143.167 176.245 142.764C176.245 142.669 176.279 142.567 176.299 142.465C176.381 141.926 176.476 141.388 176.572 140.829C176.633 140.454 176.701 140.072 176.769 139.684C176.865 139.146 176.967 138.6 177.069 138.048C177.069 137.953 177.069 137.851 177.124 137.749C177.178 137.646 177.165 137.483 177.192 137.34Z" fill="black"/>
<path d="M179.134 127.778V156.224H178.828V129.202L178.95 128.623C178.95 128.521 178.998 128.419 179.018 128.323C179.039 128.228 179.1 127.962 179.134 127.778Z" fill="black"/>
<path d="M181.908 116.192V156.224H180.77V120.704C180.892 120.199 181.015 119.688 181.145 119.191C181.145 119.089 181.192 118.986 181.22 118.884C181.356 118.332 181.492 117.787 181.635 117.248C181.724 116.894 181.812 116.54 181.908 116.192Z" fill="black"/>
<path d="M183.85 109.281V156.265H183.557V110.297L183.721 109.759C183.721 109.656 183.782 109.554 183.809 109.452C183.837 109.35 183.83 109.336 183.85 109.281Z" fill="black"/>
<path d="M186.624 101.751V156.272H185.486V104.429C185.663 103.959 185.834 103.516 186.011 103.107C186.188 102.698 186.352 102.31 186.522 101.969C186.549 101.893 186.583 101.82 186.624 101.751Z" fill="black"/>
<path d="M188.566 98.9769V156.293H188.26V99.3245L188.566 98.9769Z" fill="black"/>
<path d="M191.34 96.9801V156.306H190.202V97.6139C190.413 97.4776 190.625 97.3481 190.836 97.2322C191.047 97.1164 191.17 97.0618 191.34 96.9801Z" fill="black"/>
<path d="M193.283 96.3258V156.299H192.976V96.3939L193.283 96.3258Z" fill="black"/>
<path d="M196.056 96.135V156.334H194.918V96.1213C195.297 96.1019 195.678 96.1065 196.056 96.135Z" fill="black"/>
<path d="M197.999 96.4621V156.34H197.692V96.3667L197.999 96.4621Z" fill="black"/>
<path d="M200.772 97.7842V156.361H199.634V97.0686L199.948 97.2322C200.115 97.322 200.277 97.4221 200.432 97.5321L200.772 97.7842Z" fill="black"/>
<path d="M202.715 99.3858V156.368H202.408V99.12L202.715 99.3858Z" fill="black"/>
<path d="M205.495 102.494V156.381H204.35V101.083C204.596 101.355 204.841 101.655 205.086 101.962C205.223 102.135 205.359 102.312 205.495 102.494Z" fill="black"/>
<path d="M207.254 105.042C207.308 105.138 207.37 105.233 207.431 105.329V156.395H207.131V104.852L207.254 105.042Z" fill="black"/>
<path d="M210.211 110.304V156.408H209.066V108.157C209.305 108.579 209.537 109.009 209.748 109.452L209.912 109.759L210.211 110.304Z" fill="black"/>
<path d="M212.181 114.168V156.422H211.881V113.623C211.963 113.8 212.045 113.984 212.133 114.168H212.181Z" fill="black"/>
<path d="M214.907 120.663V156.436H213.762V117.937C213.898 118.25 214.035 118.564 214.164 118.884C214.212 118.986 214.253 119.089 214.294 119.191C214.512 119.677 214.716 120.168 214.907 120.663Z" fill="black"/>
<path d="M216.863 125.556V156.456H216.563V124.834L216.829 125.556H216.863Z" fill="black"/>
<path d="M219.678 133.571V156.463H218.533V130.163C218.533 130.197 218.533 130.231 218.567 130.259C218.696 130.64 218.833 131.029 218.955 131.404C219.146 131.956 219.323 132.501 219.5 133.039L219.603 133.339C219.596 133.421 219.616 133.496 219.678 133.571Z" fill="black"/>
<path d="M221.511 139.691H221.579V156.47H221.279V138.88C221.361 139.187 221.436 139.425 221.511 139.691Z" fill="black"/>
<path d="M223.924 150.268C223.957 150.813 223.957 151.359 223.924 151.904V152.204C223.885 152.753 223.807 153.3 223.692 153.839C223.607 154.226 223.502 154.608 223.378 154.984C223.317 155.161 223.263 155.318 223.201 155.461V146.322C223.269 146.615 223.331 146.901 223.392 147.188L223.453 147.487C223.549 147.958 223.644 148.421 223.726 148.85C223.726 148.939 223.76 149.021 223.767 149.109C223.844 149.514 223.896 149.9 223.924 150.268Z" fill="black"/>
<path d="M177.192 137.34V154.541C177.042 154.33 176.885 154.098 176.735 153.86C176.46 153.385 176.232 152.886 176.054 152.367V143.957C176.115 143.569 176.176 143.167 176.245 142.764C176.245 142.669 176.279 142.567 176.299 142.465C176.381 141.926 176.476 141.388 176.572 140.829C176.633 140.454 176.701 140.072 176.769 139.684C176.865 139.146 176.967 138.6 177.069 138.048C177.069 137.953 177.069 137.851 177.124 137.749C177.178 137.646 177.165 137.483 177.192 137.34Z" fill="black"/>
<path d="M179.134 127.778V156.224H178.828V129.202L178.95 128.623C178.95 128.521 178.998 128.419 179.018 128.323C179.039 128.228 179.1 127.962 179.134 127.778Z" fill="black"/>
<path d="M181.908 116.192V156.224H180.77V120.704C180.892 120.199 181.015 119.688 181.145 119.191C181.145 119.089 181.192 118.986 181.22 118.884C181.356 118.332 181.492 117.787 181.635 117.248C181.724 116.894 181.812 116.54 181.908 116.192Z" fill="black"/>
<path d="M183.85 109.281V156.265H183.557V110.297L183.721 109.759C183.721 109.656 183.782 109.554 183.809 109.452C183.837 109.35 183.83 109.336 183.85 109.281Z" fill="black"/>
<path d="M186.624 101.751V156.272H185.486V104.429C185.663 103.959 185.834 103.516 186.011 103.107C186.188 102.698 186.352 102.31 186.522 101.969C186.549 101.893 186.583 101.82 186.624 101.751Z" fill="black"/>
<path d="M188.566 98.9769V156.293H188.26V99.3245L188.566 98.9769Z" fill="black"/>
<path d="M191.34 96.9801V156.306H190.202V97.6139C190.413 97.4776 190.625 97.3481 190.836 97.2322C191.047 97.1164 191.17 97.0618 191.34 96.9801Z" fill="black"/>
<path d="M193.283 96.3258V156.299H192.976V96.3939L193.283 96.3258Z" fill="black"/>
<path d="M196.056 96.135V156.334H194.918V96.1213C195.297 96.1019 195.678 96.1065 196.056 96.135Z" fill="black"/>
<path d="M197.999 96.4621V156.34H197.692V96.3667L197.999 96.4621Z" fill="black"/>
<path d="M200.772 97.7842V156.361H199.634V97.0686L199.948 97.2322C200.115 97.322 200.277 97.4221 200.432 97.5321L200.772 97.7842Z" fill="black"/>
<path d="M202.715 99.3858V156.368H202.408V99.12L202.715 99.3858Z" fill="black"/>
<path d="M205.495 102.494V156.381H204.35V101.083C204.596 101.355 204.841 101.655 205.086 101.962C205.223 102.135 205.359 102.312 205.495 102.494Z" fill="black"/>
<path d="M207.254 105.042C207.308 105.138 207.37 105.233 207.431 105.329V156.395H207.131V104.852L207.254 105.042Z" fill="black"/>
<path d="M210.211 110.304V156.408H209.066V108.157C209.305 108.579 209.537 109.009 209.748 109.452L209.912 109.759L210.211 110.304Z" fill="black"/>
<path d="M212.181 114.168V156.422H211.881V113.623C211.963 113.8 212.045 113.984 212.133 114.168H212.181Z" fill="black"/>
<path d="M214.907 120.663V156.436H213.762V117.937C213.898 118.25 214.035 118.564 214.164 118.884C214.212 118.986 214.253 119.089 214.294 119.191C214.512 119.677 214.716 120.168 214.907 120.663Z" fill="black"/>
<path d="M216.863 125.556V156.456H216.563V124.834L216.829 125.556H216.863Z" fill="black"/>
<path d="M219.678 133.571V156.463H218.533V130.163C218.533 130.197 218.533 130.231 218.567 130.259C218.696 130.64 218.833 131.029 218.955 131.404C219.146 131.956 219.323 132.501 219.5 133.039L219.603 133.339C219.596 133.421 219.616 133.496 219.678 133.571Z" fill="black"/>
<path d="M221.511 139.691H221.579V156.47H221.279V138.88C221.361 139.187 221.436 139.425 221.511 139.691Z" fill="black"/>
<path d="M223.924 150.268C223.957 150.813 223.957 151.359 223.924 151.904V152.204C223.885 152.753 223.807 153.3 223.692 153.839C223.607 154.226 223.502 154.608 223.378 154.984C223.317 155.161 223.263 155.318 223.201 155.461V146.322C223.269 146.615 223.331 146.901 223.392 147.188L223.453 147.487C223.549 147.958 223.644 148.421 223.726 148.85C223.726 148.939 223.76 149.021 223.767 149.109C223.844 149.514 223.896 149.9 223.924 150.268Z" fill="black"/>
<path d="M201.549 98.384H189.2C189.518 98.1092 189.853 97.8543 190.202 97.6207C190.413 97.4844 190.625 97.3549 190.836 97.239H199.948C200.115 97.3288 200.277 97.4289 200.432 97.5389L200.772 97.7842C201.031 97.9751 201.277 98.1727 201.549 98.384Z" fill="black"/>
<path d="M203.669 100.34H187.469C187.546 100.231 187.621 100.129 187.694 100.033H203.369L203.669 100.34Z" fill="black"/>
<path d="M205.945 103.1H186.011C186.181 102.684 186.352 102.303 186.522 101.962H205.086C205.223 102.135 205.359 102.312 205.495 102.494C205.645 102.691 205.795 102.889 205.945 103.1Z" fill="black"/>
<path d="M207.254 105.042H185.254C185.288 104.94 185.329 104.838 185.37 104.736H207.056L207.131 104.852L207.254 105.042Z" fill="black"/>
<path d="M208.882 107.837H184.314C184.436 107.448 184.559 107.067 184.682 106.699H208.235C208.453 107.046 208.671 107.428 208.882 107.837Z" fill="black"/>
<path d="M209.932 109.759H183.707C183.707 109.656 183.768 109.554 183.796 109.452H209.768L209.932 109.759Z" fill="black"/>
<path d="M211.322 112.532H182.876C182.978 112.144 183.087 111.769 183.196 111.394H210.736C210.954 111.769 211.138 112.151 211.322 112.532Z" fill="black"/>
<path d="M212.242 114.475H182.365L182.446 114.168H212.181V114.27L212.242 114.475Z" fill="black"/>
<path d="M213.483 117.248H181.635C181.724 116.894 181.813 116.567 181.908 116.192V116.11H212.978C213.149 116.485 213.319 116.867 213.483 117.248Z" fill="black"/>
<path d="M214.314 119.191H181.145C181.145 119.089 181.192 118.986 181.22 118.884H214.185C214.226 118.986 214.273 119.089 214.314 119.191Z" fill="black"/>
<path d="M215.446 121.965H180.463C180.559 121.583 180.647 121.208 180.743 120.826H214.989C215.146 121.201 215.302 121.583 215.446 121.965Z" fill="black"/>
<path d="M216.209 123.907H180.013C180.013 123.805 180.054 123.702 180.081 123.6H216.093C216.134 123.702 216.175 123.805 216.209 123.907Z" fill="black"/>
<path d="M217.258 126.687H179.373C179.461 126.306 179.55 125.924 179.632 125.542H216.863V125.624C216.999 125.979 217.129 126.333 217.258 126.687Z" fill="black"/>
<path d="M217.96 128.623H178.95C178.95 128.521 178.998 128.419 179.018 128.323H217.865C217.892 128.425 217.926 128.528 217.96 128.623Z" fill="black"/>
<path d="M218.921 131.404H178.364C178.446 131.022 178.521 130.64 178.603 130.259H218.533C218.662 130.64 218.799 131.008 218.921 131.404Z" fill="black"/>
<path d="M219.569 133.339H177.996L178.057 133.039H219.494L219.569 133.339Z" fill="black"/>
<path d="M220.448 136.12H177.424C177.499 135.738 177.567 135.356 177.648 134.975H220.093C220.216 135.356 220.359 135.738 220.448 136.12Z" fill="black"/>
<path d="M221.041 138.055H177.062C177.062 137.96 177.062 137.858 177.117 137.755H220.945C220.979 137.858 221.041 137.96 221.041 138.055Z" fill="black"/>
<path d="M221.831 140.836H176.565C176.626 140.461 176.694 140.079 176.762 139.691H221.579V139.929C221.668 140.236 221.722 140.55 221.831 140.836Z" fill="black"/>
<path d="M222.349 142.771H176.238C176.238 142.676 176.272 142.574 176.292 142.471H222.267C222.3 142.57 222.327 142.67 222.349 142.771Z" fill="black"/>
<path d="M223.044 145.552H175.802C175.863 145.177 175.917 144.795 175.979 144.407H222.765C222.86 144.795 222.949 145.177 223.044 145.552Z" fill="black"/>
<path d="M223.467 147.487H175.543C175.543 147.392 175.543 147.29 175.577 147.188H223.406L223.467 147.487Z" fill="black"/>
<path d="M223.924 150.268H175.536C175.481 149.889 175.451 149.506 175.447 149.123H223.767C223.844 149.518 223.896 149.9 223.924 150.268Z" fill="black"/>
<path d="M223.958 151.904V152.204H175.999C175.965 152.108 175.931 152.006 175.904 151.904H223.958Z" fill="black"/>
<path d="M223.706 153.839C223.621 154.226 223.516 154.608 223.392 154.984H177.533C177.424 154.848 177.308 154.705 177.192 154.541C177.076 154.378 176.885 154.098 176.735 153.86L223.706 153.839Z" fill="black"/>
</g>
<path d="M192.56 106.044C193.317 105.86 197.569 100.872 198.496 97.4776C198.557 97.239 197.726 95.1468 196.833 92.5502C196.295 90.9759 195.736 89.2039 195.341 87.5546C195.266 87.2139 194.257 88.1135 194.257 88.1135L192.247 89.1358L185.588 92.5434C186.676 94.4766 187.52 96.5367 188.103 98.677C188.154 98.9009 188.184 99.1291 188.192 99.3585C188.192 99.3585 188.192 99.4335 188.192 99.4744C188.328 100.783 191.327 106.344 192.56 106.044Z" fill="#EB9481"/>
<path d="M188.192 99.3313C188.192 99.3313 188.192 99.4063 188.192 99.4471C188.556 99.4135 188.916 99.3473 189.268 99.2495C196.206 97.4298 194.959 88.3452 194.959 88.3452L192.233 89.1221L185.575 92.5297C186.662 94.4629 187.507 96.5231 188.089 98.6634C188.144 98.8823 188.179 99.1059 188.192 99.3313Z" fill="#263238"/>
<path d="M194.353 75.5735C196.145 79.0902 196.07 90.1717 193.848 93.034C190.631 97.1777 184.416 98.6157 180.654 94.5334C177.008 90.5669 177.355 76.1324 179.925 73.4063C183.707 69.4603 191.736 70.3531 194.353 75.5735Z" fill="#EB9481"/>
<path d="M185.016 83.8472C185.016 83.8472 185.07 83.8472 185.07 83.9153C185.07 84.6582 185.145 85.5169 185.82 85.7691V85.81C184.988 85.6941 184.873 84.5491 185.016 83.8472Z" fill="#263238"/>
<path d="M185.677 83.0703C186.883 82.9817 186.972 85.3874 185.861 85.4692C184.75 85.551 184.675 83.1452 185.677 83.0703Z" fill="#263238"/>
<path d="M180.702 84.1334C180.702 84.1334 180.64 84.1334 180.64 84.2016C180.695 84.9444 180.64 85.81 179.959 86.0826V86.1235C180.79 85.9735 180.865 84.8286 180.702 84.1334Z" fill="#263238"/>
<path d="M180.007 83.3769C178.8 83.3292 178.793 85.7418 179.911 85.7827C181.029 85.8236 181.015 83.4178 180.007 83.3769Z" fill="#263238"/>
<path d="M186.59 81.9389C186.269 81.8588 185.953 81.7609 185.643 81.6459C185.295 81.59 184.976 81.4197 184.736 81.162C184.678 81.066 184.652 80.9535 184.663 80.8416C184.674 80.7298 184.722 80.6245 184.798 80.5418C184.974 80.4018 185.184 80.3115 185.407 80.2804C185.63 80.2492 185.857 80.2783 186.065 80.3646C186.512 80.4761 186.903 80.7477 187.163 81.1279C187.215 81.2183 187.241 81.3219 187.237 81.4265C187.232 81.5311 187.198 81.6322 187.137 81.7177C187.077 81.8033 186.993 81.8696 186.896 81.9088C186.799 81.948 186.693 81.9585 186.59 81.9389Z" fill="#263238"/>
<path d="M179.025 82.1979C179.346 82.1224 179.662 82.0291 179.972 81.9185C180.32 81.8625 180.641 81.6951 180.886 81.4414C180.947 81.3469 180.975 81.2344 180.966 81.1219C180.956 81.0095 180.908 80.9036 180.831 80.8212C180.655 80.6809 180.445 80.5894 180.223 80.5559C180 80.5224 179.773 80.5481 179.564 80.6304C179.117 80.7381 178.724 81.0046 178.459 81.3801C178.405 81.47 178.378 81.5737 178.381 81.6787C178.385 81.7837 178.418 81.8855 178.478 81.9719C178.538 82.0583 178.621 82.1255 178.718 82.1656C178.815 82.2057 178.922 82.2169 179.025 82.1979Z" fill="#263238"/>
<path d="M185.963 90.7441C185.793 90.9281 185.622 91.1735 185.35 91.2076C185.073 91.2137 184.799 91.1603 184.545 91.0508C184.545 91.0508 184.498 91.0508 184.511 91.0917C184.623 91.2342 184.772 91.3437 184.941 91.4085C185.11 91.4733 185.294 91.491 185.472 91.4597C185.623 91.4132 185.756 91.324 185.856 91.203C185.957 91.082 186.02 90.9344 186.038 90.7782C186.042 90.7683 186.043 90.7569 186.039 90.7467C186.035 90.7365 186.027 90.7282 186.018 90.7237C186.008 90.7192 185.996 90.7188 185.986 90.7226C185.976 90.7265 185.968 90.7342 185.963 90.7441Z" fill="#263238"/>
<path d="M185.097 88.5429C184.918 88.8445 184.678 89.106 184.393 89.3112C184.108 89.5163 183.784 89.6608 183.441 89.7355C183.142 89.8049 182.835 89.8302 182.528 89.8105C182.469 89.8175 182.41 89.8175 182.351 89.8105H182.187C182.148 89.8049 182.111 89.7866 182.083 89.7584C182.054 89.7301 182.036 89.6933 182.031 89.6537C182.027 89.6289 182.027 89.6036 182.031 89.5788V89.4356C181.99 88.8632 182.031 87.9908 182.031 87.9908C181.826 88.0999 180.77 88.6246 180.777 88.3248C180.742 85.7322 180.97 83.1428 181.458 80.5963C181.458 80.5783 181.465 80.5609 181.478 80.5482C181.491 80.5354 181.508 80.5282 181.526 80.5282C181.544 80.5282 181.562 80.5354 181.575 80.5482C181.587 80.5609 181.594 80.5783 181.594 80.5963C181.635 82.9953 181.261 85.367 181.261 87.7864C181.635 87.596 182.034 87.4584 182.446 87.3775C182.528 87.3775 182.371 89.0676 182.412 89.3266C182.885 89.3551 183.358 89.2884 183.804 89.1303C184.25 88.9722 184.66 88.7261 185.009 88.4066C185.077 88.4338 185.138 88.4815 185.097 88.5429Z" fill="#263238"/>
<path d="M182.876 89.5106C183.207 89.9072 183.634 90.2122 184.116 90.3966C184.386 90.4832 184.677 90.4832 184.948 90.3966C185.534 90.2194 185.527 89.6742 185.404 89.2039C185.332 88.9665 185.234 88.7379 185.111 88.5224C184.489 89.0793 183.706 89.4252 182.876 89.5106Z" fill="#263238"/>
<path d="M184.096 90.3966C184.366 90.4832 184.657 90.4832 184.927 90.3966C185.513 90.2194 185.506 89.6742 185.384 89.2039C185.066 89.2291 184.767 89.3605 184.533 89.5769C184.299 89.7932 184.145 90.082 184.096 90.3966Z" fill="#FF99BA"/>
<path d="M178.473 77.1683C178.848 76.2074 179.121 74.34 180.082 73.9856C180.763 73.7334 181.145 75.1101 182.446 75.151C184.205 75.1987 185.22 73.604 187.66 73.3382C191.163 72.9565 192.281 76.8616 192.56 81.8435C192.805 86.3006 195.518 86.6141 195.518 86.6141C195.518 86.6141 196.765 76.7253 193.869 73.5835C190.972 70.4417 184.566 69.249 180.422 72.5203C178.909 73.6926 178.473 77.1683 178.473 77.1683Z" fill="#C95F50"/>
<path d="M193.664 84.7877C193.664 84.7877 195.545 80.9235 197.263 81.5368C198.98 82.1502 197.944 87.4933 196.206 88.4815C195.991 88.623 195.749 88.7196 195.495 88.7653C195.241 88.8111 194.981 88.8052 194.73 88.7479C194.478 88.6906 194.241 88.5832 194.032 88.432C193.823 88.2808 193.647 88.089 193.514 87.8681L193.664 84.7877Z" fill="#EB9481"/>
<path d="M196.929 83.0634V83.1111C195.709 83.8404 195.218 85.1557 194.939 86.5187C194.993 86.376 195.078 86.2469 195.187 86.1403C195.296 86.0337 195.428 85.9523 195.572 85.9017C195.716 85.851 195.869 85.8325 196.021 85.8472C196.173 85.862 196.32 85.9098 196.452 85.9871C196.486 85.9871 196.452 86.0621 196.452 86.0621C196.212 86.026 195.966 86.0649 195.749 86.1735C195.532 86.2821 195.354 86.455 195.238 86.6687C195.05 87.0291 194.899 87.4082 194.789 87.8C194.748 87.9227 194.53 87.8954 194.55 87.7523C194.257 86.028 195.177 83.5132 196.929 83.0634Z" fill="#263238"/>
<path d="M188.212 99.5903L191.988 105.261L198.039 95.8964L200.718 97.941C200.718 97.941 195.784 111.864 195.62 111.312L191.988 106.542L189.091 110.992L187.476 101.655L188.212 99.5903Z" fill="#EBEBEB"/>
<path d="M188.028 106.412C187.817 104.865 187.558 103.311 187.415 101.751C187.415 101.696 187.49 101.655 187.517 101.751C188.123 103.161 188.914 109.097 189.207 110.495C189.33 110.304 191.933 106.549 191.974 106.589C192.703 107.319 195.382 110.801 195.559 111.128C196.336 108.913 199.403 100.837 200.418 98.6838C200.452 98.6225 200.541 98.6838 200.52 98.7179C199.907 101.015 195.886 111.871 195.75 111.864C194.394 110.242 193.123 108.552 191.94 106.801C191.531 107.584 188.975 111.749 188.921 111.524C188.533 109.837 188.235 108.131 188.028 106.412Z" fill="#263238"/>
<path d="M195.477 140.856C195.477 140.856 187.128 143.984 181.813 145.245C178.848 145.927 173.88 147.61 171.937 149.123C169.034 151.386 158.341 162.706 161.033 165.357C163.466 167.763 171.419 156.865 171.419 156.865C171.419 156.865 162.43 167.129 165.879 169.5C169.327 171.872 176.688 158.351 176.688 158.351C176.688 158.351 167.685 169.126 171.638 170.986C174.623 172.39 181.969 160.538 181.969 160.538C181.969 160.538 174.295 169.848 177.301 171.443C180.627 173.187 188.096 162.672 188.096 162.672C196.424 165.398 202.769 161.363 206.204 159.428C207.036 158.951 195.477 140.856 195.477 140.856Z" fill="#EB9481"/>
<path d="M173.764 153.716C169.613 158.03 166.465 163.333 165.586 165.684C165.477 165.97 165.388 166.229 165.402 166.209C167.16 163.483 172.844 155.011 173.832 153.751C173.839 153.716 173.791 153.689 173.764 153.716Z" fill="#263238"/>
<path d="M178.923 156.613C175.318 159.428 172.598 164.519 171.426 166.209C171.338 166.338 171.426 166.338 171.528 166.209C172.748 164.566 177.662 158.214 178.943 156.667C178.984 156.62 178.95 156.592 178.923 156.613Z" fill="#263238"/>
<path d="M183.108 159.305C180.872 161.307 179.085 163.759 177.867 166.502C177.798 166.645 177.908 166.624 178.003 166.502C179.809 163.946 180.879 162.324 183.189 159.394C183.223 159.339 183.162 159.264 183.108 159.305Z" fill="#263238"/>
<path d="M200.991 107.012C202.354 112.648 212.883 132.126 212.876 133.237C212.869 134.348 193.03 141.415 189.112 143.76C186.447 145.327 196.411 164.348 201.604 161.813C209.646 157.887 232.586 147.324 233.785 139.166C234.985 131.008 211.5 106.76 206.933 102.466C202.367 98.1727 198.769 97.7433 200.991 107.012Z" fill="#EB9481"/>
<path d="M189.078 142.063L205.959 162.644C205.959 162.644 231.993 148.871 234.446 140.154C236.709 132.126 210.511 104.818 206.395 101.376C202.394 98.0364 198.217 97.2867 201.249 108.689C204.282 120.09 212.733 132.18 212.154 133.019C211.574 133.857 189.078 142.063 189.078 142.063Z" fill="#EBEBEB"/>
<path d="M106.307 312.735C104.74 313.246 60.1887 312.667 58.5122 311.563C57.8307 311.161 57.5717 304.659 57.4422 296.801C57.4422 296.72 57.4422 296.638 57.4422 296.556C57.4422 294.934 57.3945 293.264 57.3877 291.574C57.3877 291.342 57.3877 291.111 57.3877 290.893L59.5208 267.769L89.3237 268.069L86.3863 290.961L86.3522 291.867L86.1682 296.638V297.128C86.1682 297.128 103.118 304.98 104.842 306.384C106.566 307.787 107.868 312.238 106.307 312.735Z" fill="#AD6359"/>
<path d="M106.307 312.735C104.74 313.246 60.1887 312.667 58.5122 311.563C57.8307 311.161 57.5717 304.659 57.4422 296.801C57.4422 296.72 57.4422 296.638 57.4422 296.556C57.4422 294.934 57.3945 293.264 57.3877 291.574C57.3877 291.342 57.3877 291.111 57.3877 290.893L86.4136 290.974L86.3795 291.881L86.1955 296.651V297.142C86.1955 297.142 103.145 304.993 104.869 306.397C106.593 307.801 107.868 312.238 106.307 312.735Z" fill="#EBEBEB"/>
<path d="M106.307 312.735C105.503 312.994 93.3991 312.967 81.5679 312.735C79.1894 312.688 76.7973 312.633 74.5687 312.572C66.1315 312.34 59.1596 311.992 58.5121 311.57C57.8647 311.147 57.5785 304.85 57.449 297.135C57.449 297.026 57.449 296.917 57.449 296.808C57.449 296.699 57.449 296.638 57.449 296.556L86.1614 296.611V297.101C86.1614 297.101 103.118 304.945 104.835 306.349C106.552 307.753 107.868 312.238 106.307 312.735Z" fill="#5740A0"/>
<path d="M105.823 311.004C98.3265 310.725 68.0058 310.323 60.5636 310.589C60.5022 310.589 60.5022 310.629 60.5636 310.636C67.999 311.079 98.3061 311.256 105.823 311.127C105.98 311.127 105.98 311.011 105.823 311.004Z" fill="#263238"/>
<path d="M89.385 296.733C86.434 296.14 82.8151 296.549 80.5252 298.621C80.4366 298.703 80.5252 298.825 80.6547 298.798C83.4899 297.926 86.4095 297.358 89.3645 297.101C89.4133 297.104 89.4612 297.087 89.4976 297.055C89.5341 297.022 89.5561 296.976 89.5588 296.927C89.5615 296.879 89.5447 296.831 89.5121 296.794C89.4795 296.758 89.4338 296.736 89.385 296.733Z" fill="#263238"/>
<path d="M91.4977 298.042C88.5535 297.456 84.9278 297.858 82.6379 299.936C82.5493 300.018 82.6379 300.141 82.7606 300.114C85.5973 299.239 88.5195 298.67 91.4772 298.417C91.5215 298.411 91.5624 298.39 91.5928 298.357C91.6232 298.325 91.6412 298.282 91.6436 298.238C91.6461 298.193 91.6328 298.149 91.6061 298.113C91.5795 298.077 91.5411 298.052 91.4977 298.042Z" fill="#263238"/>
<path d="M93.5968 299.343C90.6458 298.75 87.027 299.159 84.7371 301.238C84.6485 301.32 84.7371 301.442 84.8597 301.415C87.7026 300.54 90.6321 299.975 93.5968 299.732C93.6483 299.732 93.6977 299.711 93.7341 299.675C93.7706 299.639 93.791 299.589 93.791 299.538C93.791 299.486 93.7706 299.437 93.7341 299.4C93.6977 299.364 93.6483 299.343 93.5968 299.343Z" fill="#263238"/>
<path d="M81.5679 312.728C79.1894 312.681 76.7973 312.626 74.5687 312.565C66.1315 312.333 59.1596 311.986 58.5121 311.563C57.8647 311.141 57.5785 304.843 57.449 297.129C57.449 297.019 57.449 296.91 57.449 296.801C57.449 296.692 57.449 296.631 57.449 296.549C61.4018 299.343 75.2639 308.537 81.5679 312.728Z" fill="#263238"/>
<path d="M88.1447 296.706H56.052C56.052 296.706 62.5128 221.739 62.2606 220.458C61.9403 218.781 60.0457 211.196 57.49 201.286C56.6994 198.186 55.8475 194.86 54.9616 191.411C52.6035 182.122 49.9797 171.899 47.6693 163.04C44.2208 149.757 41.5356 139.439 41.5356 139.439H68.7282C68.7282 139.439 71.8973 149.484 75.891 162.556C82.3995 183.799 91.0957 213.036 91.9544 220.144C93.3379 231.614 88.1447 296.706 88.1447 296.706Z" fill="#37474F"/>
<path d="M86.7203 291.233C81.8202 291.131 83.2241 291.09 78.324 291.043C75.9251 291.043 60.1684 290.879 57.9262 291.254C57.8785 291.254 57.8785 291.342 57.9262 291.356C60.1684 291.724 75.9251 291.588 78.324 291.56C83.2241 291.52 81.8202 291.479 86.7203 291.376C86.7817 291.37 86.7817 291.233 86.7203 291.233Z" fill="#263238"/>
<path d="M68.2988 215.878C67.2493 211.237 65.675 206.691 64.3051 202.138C61.5245 192.883 58.728 183.64 55.9156 174.407C54.5117 169.787 53.1009 165.166 51.6834 160.545C50.961 158.214 50.2454 155.884 49.5161 153.56C48.7869 151.236 47.9895 149.021 47.3489 146.745C47.0831 145.811 46.94 146.322 47.274 147.515C47.9555 149.907 48.637 152.285 49.3185 154.684C50.6815 159.414 52.0718 164.139 53.4894 168.86C56.27 178.265 59.0756 187.658 61.9062 197.041L66.1588 211.162C66.8742 213.396 67.4523 215.672 67.8899 217.977C68.2678 220.393 68.3638 222.845 68.1761 225.283C67.8626 230.196 67.297 235.097 66.8472 239.997C66.3974 244.897 65.9339 249.811 65.4841 254.718C64.5754 264.486 63.6781 274.254 62.7921 284.023C62.6831 285.256 62.574 286.497 62.4786 287.737C62.4446 288.153 63.0716 288.119 63.1193 287.737C64.1756 278.08 64.9866 268.389 65.893 258.711C66.7995 249.034 67.6991 239.465 68.6191 229.842C68.844 227.423 69.0962 225.003 69.103 222.57C69.0863 220.316 68.8166 218.071 68.2988 215.878Z" fill="#263238"/>
<path d="M65.6546 139.432C63.7668 154.037 60.1684 181.42 57.5446 201.286C51.4109 177.215 41.5493 139.432 41.5493 139.432H65.6546Z" fill="#263238"/>
<path d="M72.3129 313.165C70.7523 313.676 26.2014 313.26 24.518 312.17C23.8365 311.761 23.5503 305.266 23.3935 297.408C23.3935 297.326 23.3935 297.244 23.3935 297.163C23.3935 295.541 23.3322 293.878 23.3254 292.187C23.3254 291.956 23.3254 291.717 23.3254 291.506C23.2231 280.165 24.0069 268.396 24.0069 268.396L53.1282 268.586L52.3172 291.485V292.392L52.1536 297.163V297.653C52.1536 297.653 69.1371 305.436 70.8613 306.84C72.5855 308.244 73.8736 312.667 72.3129 313.165Z" fill="#AD6359"/>
<path d="M72.313 313.165C70.7523 313.676 26.2014 313.26 24.5181 312.17C23.8366 311.761 23.5503 305.266 23.3936 297.408C23.3936 297.326 23.3936 297.244 23.3936 297.163C23.3936 295.541 23.3323 293.878 23.3254 292.187C23.3254 291.956 23.3254 291.717 23.3254 291.506H52.3513V292.412L52.1878 297.183V297.674C52.1878 297.674 69.1712 305.457 70.8955 306.861C72.6197 308.264 73.8737 312.667 72.313 313.165Z" fill="#EBEBEB"/>
<path d="M72.313 313.165C70.7523 313.676 26.2014 313.26 24.5181 312.17C23.8365 311.761 23.5503 305.266 23.3936 297.408C23.3936 297.326 23.3936 297.244 23.3936 297.163L52.14 297.108V297.599C52.14 297.599 69.1235 305.382 70.8477 306.786C72.5719 308.19 73.8737 312.667 72.313 313.165Z" fill="#5740A0"/>
<path d="M71.8291 311.434C64.3324 311.181 34.0116 310.861 26.5694 311.181C26.5081 311.181 26.5081 311.229 26.5694 311.229C34.0048 311.645 64.3119 311.72 71.8223 311.556C71.9858 311.556 71.9858 311.44 71.8291 311.434Z" fill="#263238"/>
<path d="M55.3363 297.224C52.3853 296.645 48.7665 297.06 46.4766 299.146C46.388 299.228 46.4766 299.35 46.5992 299.323C49.4302 298.437 52.3478 297.857 55.3022 297.592C55.3264 297.594 55.3508 297.592 55.3739 297.584C55.3971 297.577 55.4187 297.566 55.4373 297.55C55.456 297.535 55.4714 297.516 55.4828 297.494C55.4941 297.473 55.501 297.449 55.5033 297.425C55.5055 297.401 55.503 297.376 55.4958 297.353C55.4886 297.33 55.4769 297.309 55.4614 297.29C55.4459 297.271 55.4269 297.256 55.4054 297.244C55.384 297.233 55.3605 297.226 55.3363 297.224Z" fill="#263238"/>
<path d="M57.4764 298.526C54.5255 297.946 50.9066 298.369 48.6167 300.454C48.5281 300.536 48.6167 300.659 48.7394 300.632C51.5812 299.743 54.5104 299.163 57.4764 298.9C57.52 298.892 57.5593 298.869 57.5876 298.835C57.6159 298.8 57.6314 298.757 57.6314 298.713C57.6314 298.669 57.6159 298.626 57.5876 298.591C57.5593 298.557 57.52 298.534 57.4764 298.526Z" fill="#263238"/>
<path d="M59.5753 299.834C56.6243 299.255 53.0055 299.671 50.7156 301.756C50.627 301.838 50.7156 301.96 50.8383 301.933C53.6709 301.046 56.5911 300.468 59.5481 300.209C59.5927 300.204 59.6343 300.184 59.6655 300.152C59.6967 300.12 59.7156 300.078 59.7189 300.033C59.7221 299.988 59.7095 299.944 59.6833 299.907C59.657 299.871 59.6188 299.845 59.5753 299.834Z" fill="#263238"/>
<path d="M67.8422 139.432C67.8422 139.432 67.2152 152.442 64.237 162.747C63.9985 163.598 63.7395 164.437 63.4601 165.241C60.7305 166.342 58.1072 167.691 55.6226 169.269C55.6226 169.269 55.3091 179.737 54.9956 191.411C54.648 204.462 54.3141 219.02 54.3618 222.08C54.6344 233.631 52.917 297.149 52.917 297.149L20.8379 297.299C20.8379 297.299 26.6376 226.366 26.5967 222.134C26.5354 215.319 28.1506 185.271 29.3978 163.346C30.1611 149.839 30.7608 139.425 30.7608 139.425L67.8422 139.432Z" fill="#37474F"/>
<path d="M51.8197 291.472C46.9196 291.39 48.3235 291.342 43.4234 291.315C41.0244 291.315 25.2677 291.233 23.0255 291.615C22.9778 291.615 22.9778 291.704 23.0255 291.717C25.2677 292.078 41.0313 291.874 43.4302 291.84C48.3303 291.772 46.9196 291.738 51.8197 291.615C51.9083 291.608 51.9083 291.472 51.8197 291.472Z" fill="#263238"/>
<path d="M33.4868 144.08C32.8939 161.976 32.2669 179.88 31.4423 197.77C30.6176 215.66 29.5545 233.659 28.0347 251.569C27.1964 261.574 26.4058 275.647 25.3086 285.645C25.3086 285.713 25.404 285.74 25.4108 285.645C27.7484 267.891 29.0501 245.94 30.1814 228.07C31.3128 210.201 32.1919 192.345 32.7985 174.435C33.1392 164.314 33.405 154.187 33.7049 144.066C33.7117 143.957 33.4868 143.957 33.4868 144.08Z" fill="#263238"/>
<path d="M64.7957 164.464C61.6056 165.786 58.5364 167.382 55.6225 169.235C55.5066 169.303 55.6225 169.487 55.7179 169.425C58.812 167.919 61.9742 166.475 64.9797 164.798C65.0062 164.766 65.0225 164.727 65.0265 164.686C65.0305 164.645 65.022 164.604 65.0021 164.568C64.9822 164.532 64.9518 164.503 64.915 164.484C64.8782 164.465 64.8366 164.459 64.7957 164.464Z" fill="#263238"/>
<path d="M54.8252 98.4521C55.8952 114.522 61.7563 131.506 64.1961 134.184C67.9717 138.335 86.3863 143.555 93.6173 144.407C95.9821 144.686 98.9467 128.514 97.1543 126.687C95.3619 124.861 75.4003 121.392 74.1258 120.492C73.4443 120.015 66.9153 107.407 62.2742 99.2495C57.9466 91.671 54.4981 93.5793 54.8252 98.4521Z" fill="#DD6A57"/>
<path d="M90.6868 124.806C90.6868 124.806 95.9754 121.303 98.6401 120.274C101.305 119.245 112.638 119.068 112.816 121.515C113.041 124.67 106.518 126.067 103.234 126.326C103.234 126.326 103.772 133.632 99.308 135.649C94.844 137.667 90.6868 124.806 90.6868 124.806Z" fill="#DD6A57"/>
<path d="M93.481 144.393C95.8254 145.075 106.832 147.119 110.021 147.017C113.211 146.915 122.377 145.934 122.541 143.48C122.704 141.027 119.999 141.102 119.999 141.102C119.999 141.102 123.802 140.072 123.747 137.592C123.693 135.111 119.481 135.356 119.481 135.356C119.481 135.356 123.311 133.993 123.079 131.547C122.848 129.1 118.656 130.034 118.656 130.034C118.656 130.034 122.214 128.971 121.164 127.015C119.897 124.663 113.559 127.355 110.028 127.212C109.224 127.178 93.8149 125.386 93.8149 125.386L93.481 144.393Z" fill="#DD6A57"/>
<path d="M119.999 141.102C119.999 141.102 122.725 141.027 122.541 143.48C122.357 145.934 113.211 146.888 110.022 147.017C106.832 147.147 95.9209 145.068 93.5152 144.4C90.9513 144.042 88.4098 143.539 85.9026 142.894L88.1857 123.907C89.1602 124.139 90.1144 124.363 91.014 124.588C92.2066 123.811 96.3707 121.14 98.6402 120.268C101.298 119.238 112.639 119.061 112.816 121.508C112.851 122.092 112.66 122.668 112.284 123.116C110.73 125.801 107.139 126.183 104.201 126.572C107.18 126.912 109.715 127.192 110.028 127.205C113.559 127.349 119.897 124.657 121.164 127.008C122.153 128.848 119.058 129.897 118.69 130.02L118.997 129.959C119.024 129.946 119.053 129.939 119.082 129.939C119.112 129.939 119.141 129.946 119.168 129.959C120.306 129.788 122.875 129.638 123.059 131.56C123.243 133.482 120.912 134.743 119.91 135.193C120.019 135.193 120.047 135.281 119.992 135.37C121.123 135.37 123.679 135.67 123.727 137.605C123.802 140.072 119.999 141.102 119.999 141.102Z" fill="#DBDBDB"/>
<path d="M119.017 129.959C114.349 131.928 111.97 132.003 107.05 131.172C106.955 131.172 106.907 131.295 107.002 131.315C111.773 132.548 114.751 132.917 119.12 130.177C119.338 130.041 119.235 129.863 119.017 129.959Z" fill="#263238"/>
<path d="M119.849 135.193C114.826 136.815 112.243 136.897 107.03 136.426C106.955 136.426 106.934 136.542 107.03 136.556C112.107 137.449 115.106 137.742 119.91 135.459C120.108 135.356 120.081 135.097 119.849 135.193Z" fill="#263238"/>
<path d="M119.733 141.067C114.758 142.287 111.93 142.499 106.927 141.395C106.906 141.393 106.885 141.399 106.867 141.411C106.85 141.424 106.837 141.441 106.83 141.462C106.824 141.482 106.825 141.504 106.833 141.524C106.84 141.544 106.854 141.561 106.873 141.572C111.868 143.201 115.399 142.935 119.753 141.224C120.053 141.102 120.046 140.993 119.733 141.067Z" fill="#263238"/>
<path d="M112.591 122.401C110.723 125.433 106.389 125.502 103.22 125.999C103.173 126.003 103.127 126.019 103.088 126.046C103.048 126.072 103.016 126.108 102.993 126.15C102.971 126.192 102.96 126.238 102.96 126.286C102.96 126.333 102.972 126.38 102.995 126.422C102.995 129.495 102.143 133.843 99.4921 135.718C99.4762 135.728 99.465 135.744 99.4607 135.763C99.4564 135.781 99.4593 135.801 99.4688 135.817C99.4784 135.834 99.4938 135.846 99.5121 135.852C99.5303 135.857 99.55 135.856 99.567 135.847C102.688 134.225 103.888 130.02 103.656 126.653C106.914 126.197 111.255 125.938 112.632 122.421L112.591 122.401Z" fill="#263238"/>
<path d="M56.1132 120.527L71.2975 114.393C71.2975 114.393 65.9066 103.155 62.2673 97.7093C58.628 92.2639 53.4962 90.9759 53.6189 100.974C53.7143 109.452 56.1132 120.527 56.1132 120.527Z" fill="#37474F"/>
<path d="M28.1711 152.367C28.1711 152.367 74.4803 152.142 74.4803 152.149C74.4803 153.055 64.4348 100.354 59.596 94.0768C58.5601 92.7137 51.4859 91.0167 48.2896 93.995C34.3048 107.026 28.1711 152.953 28.1711 152.367Z" fill="#5740A0"/>
<path d="M57.824 98.7997C55.6159 99.3313 51.0088 96.7551 49.4209 93.6065C49.3187 93.3884 49.7139 91.1735 50.1024 88.4474C50.3069 86.7981 50.5045 84.9512 50.559 83.2542C50.559 82.9067 61.1157 86.1984 61.1157 86.1984C60.4372 88.2975 60.0184 90.4719 59.8686 92.6728C59.8644 92.901 59.8804 93.129 59.9163 93.3543C59.9204 93.3929 59.9204 93.4317 59.9163 93.4702C60.073 94.8196 60.2025 98.2272 57.824 98.7997Z" fill="#DD6A57"/>
<path d="M59.8957 93.3748C59.8957 93.3748 59.8957 93.4498 59.8957 93.4907C59.5328 93.5185 59.1682 93.5185 58.8053 93.4907C52.549 93.1431 51.1587 85.2511 50.9065 83.2679C52.7875 83.6018 61.0816 86.1916 61.0816 86.1916C60.4034 88.2931 59.9846 90.4697 59.8344 92.6728C59.833 92.9082 59.8535 93.1432 59.8957 93.3748Z" fill="#263238"/>
<path d="M49.0051 69.9851C47.8465 73.7607 49.8161 84.665 52.5013 87.098C56.3859 90.6283 62.7241 90.9758 65.7568 86.3074C68.6669 81.7753 65.8386 67.6066 62.8467 65.3985C58.4373 62.134 50.7157 64.4171 49.0051 69.9851Z" fill="#DD6A57"/>
<path d="M59.6231 76.5345C59.6231 76.5345 59.5754 76.5753 59.5822 76.6094C59.7322 77.3386 59.7867 78.1974 59.1665 78.5586C59.1665 78.5586 59.1665 78.6063 59.1665 78.5995C59.9707 78.3473 59.8889 77.2023 59.6231 76.5345Z" fill="#263238"/>
<path d="M58.8394 75.8802C57.6467 75.9961 57.967 78.3882 59.0779 78.2791C60.1888 78.1701 59.8412 75.8052 58.8394 75.8802Z" fill="#263238"/>
<path d="M63.9234 76.071C63.9234 76.071 63.9848 76.071 63.9916 76.1256C64.0666 76.8684 64.2778 77.7067 64.9866 77.8634V77.9043C64.1483 77.8975 63.8757 76.7866 63.9234 76.071Z" fill="#263238"/>
<path d="M64.4825 75.2055C65.6547 74.9534 66.0772 77.3319 64.9868 77.5636C63.8964 77.7953 63.4943 75.4168 64.4825 75.2055Z" fill="#263238"/>
<path d="M57.7421 74.9125C58.0439 74.7804 58.3375 74.6302 58.6212 74.4627C58.962 74.2855 59.2482 74.1832 59.4323 73.8357C59.4752 73.7306 59.4825 73.6143 59.4529 73.5048C59.4234 73.3952 59.3586 73.2983 59.2687 73.2291C59.0702 73.1225 58.8468 73.0706 58.6216 73.079C58.3964 73.0874 58.1775 73.1557 57.9874 73.2768C57.5655 73.4612 57.2276 73.7967 57.0401 74.2173C57.002 74.3151 56.9934 74.422 57.0152 74.5246C57.037 74.6273 57.0884 74.7214 57.163 74.7953C57.2376 74.8691 57.3321 74.9196 57.435 74.9404C57.5379 74.9612 57.6446 74.9515 57.7421 74.9125Z" fill="#263238"/>
<path d="M65.2388 73.8765C64.921 73.8567 64.6047 73.8181 64.2915 73.7607C63.9397 73.7681 63.5951 73.6604 63.3101 73.454C63.234 73.3711 63.1874 73.2653 63.1775 73.1532C63.1676 73.041 63.1951 72.9288 63.2556 72.8338C63.4028 72.6636 63.593 72.5358 63.8063 72.4639C64.0197 72.392 64.2484 72.3786 64.4687 72.4249C64.9297 72.4511 65.3645 72.6479 65.6886 72.9769C65.7622 73.0573 65.8098 73.1581 65.8249 73.2661C65.84 73.374 65.822 73.484 65.7733 73.5815C65.7245 73.679 65.6473 73.7594 65.5519 73.8121C65.4564 73.8648 65.3473 73.8872 65.2388 73.8765Z" fill="#263238"/>
<path d="M60.3524 81.1688C60.5803 81.4355 60.8607 81.6524 61.1761 81.806C61.4915 81.9595 61.8352 82.0466 62.1857 82.0616C62.4924 82.0785 62.8 82.0509 63.0989 81.9798C63.1566 81.9702 63.2135 81.9565 63.2693 81.9389L63.426 81.8912C63.4655 81.8779 63.4995 81.852 63.5228 81.8176C63.5462 81.7831 63.5577 81.742 63.5555 81.7004C63.5593 81.6755 63.5593 81.6503 63.5555 81.6254V81.5573C63.4942 80.9916 63.3238 80.1329 63.3238 80.1329C63.5419 80.2079 64.6868 80.5418 64.6119 80.2419C64.1959 77.6817 63.5223 75.17 62.6014 72.7452C62.5923 72.7323 62.5795 72.7226 62.5646 72.7175C62.5497 72.7123 62.5336 72.712 62.5185 72.7165C62.5034 72.721 62.4901 72.7302 62.4805 72.7427C62.4709 72.7552 62.4655 72.7704 62.4651 72.7861C62.8399 75.151 63.6237 77.4341 64.0326 79.8058C63.6306 79.6812 63.213 79.6147 62.7922 79.6081C62.7172 79.6081 63.1602 81.2642 63.167 81.5232C62.7053 81.6348 62.2258 81.6518 61.7574 81.5734C61.2889 81.4949 60.8411 81.3225 60.441 81.0666C60.3524 81.0598 60.2978 81.1143 60.3524 81.1688Z" fill="#263238"/>
<path d="M62.7241 81.7345C62.4654 82.1825 62.0973 82.5577 61.6541 82.8249C61.4073 82.9621 61.1239 83.0193 60.8431 82.9884C60.2298 82.9135 60.1616 82.3751 60.1616 81.898C60.1872 81.642 60.2444 81.3902 60.332 81.1483C61.0451 81.5971 61.8844 81.8027 62.7241 81.7345Z" fill="#263238"/>
<path d="M61.6541 82.8249C61.4073 82.9621 61.1239 83.0193 60.8431 82.9885C60.2298 82.9135 60.1616 82.3751 60.1616 81.898C60.4798 81.8517 60.804 81.9193 61.0771 82.0889C61.3503 82.2585 61.5546 82.5192 61.6541 82.8249Z" fill="#FF99BA"/>
<path d="M64.9186 68.806C64.387 67.9269 63.7873 67.0409 63.2012 66.9319C62.6151 66.8228 62.4243 68.2472 61.1566 68.5062C59.4392 68.8606 58.3829 67.3749 55.9294 67.5316C52.4127 67.7633 51.2678 70.8779 51.8403 75.8393C52.3582 80.2624 49.7412 81.0393 49.7412 81.0393C49.7412 81.0393 46.8175 71.498 49.1278 67.9201C51.4382 64.3421 57.5514 62.0522 62.1925 64.5602C63.8963 65.4802 64.9186 68.806 64.9186 68.806Z" fill="#263238"/>
<path d="M51.7449 79.0016C51.7449 79.0016 49.2165 75.519 47.6558 76.4322C46.0951 77.3455 48.0238 82.416 49.9116 83.077C50.1481 83.1796 50.4029 83.2332 50.6606 83.2346C50.9183 83.236 51.1737 83.1852 51.4113 83.0852C51.6488 82.9852 51.8637 82.8381 52.0428 82.6528C52.222 82.4675 52.3617 82.2478 52.4537 82.007L51.7449 79.0016Z" fill="#DD6A57"/>
<path d="M48.228 77.8498V77.8975C49.5911 78.4086 50.2726 79.6149 50.7837 80.8757C50.7046 80.7448 50.598 80.6326 50.4712 80.5468C50.3445 80.4611 50.2006 80.404 50.0496 80.3794C49.8986 80.3548 49.744 80.3632 49.5966 80.4042C49.4492 80.4452 49.3124 80.5177 49.1958 80.6168C49.1958 80.6168 49.1958 80.6917 49.2367 80.6849C49.4672 80.6075 49.7161 80.6033 49.9491 80.6728C50.1821 80.7424 50.388 80.8823 50.5384 81.0734C50.7844 81.3937 50.9968 81.7386 51.1722 82.1025C51.2403 82.2251 51.4516 82.157 51.4039 82.0207V81.9866C51.3766 80.3305 50.0341 78.0065 48.228 77.8498Z" fill="#263238"/>
<path d="M121.13 101.444H73.0491V154.691H121.13V101.444Z" fill="#5740A0"/>
<path d="M145.965 101.444H121.137V154.691H145.965V101.444Z" fill="#5740A0"/>
<path opacity="0.1" d="M145.965 101.444H121.137V154.691H145.965V101.444Z" fill="black"/>
<path d="M101.175 112.948H100.153H99.3898L98.9536 112.062L98.3402 112.948L97.5156 111.128L96.725 112.948H94.476H93.4469L93.0789 111.735L92.7245 112.948H92.0566V101.444H101.175V112.948Z" fill="white"/>
<path d="M144.254 151.024C142.414 147.235 140.597 143.437 138.802 139.629L133.411 128.173L128.082 116.696C126.314 112.853 124.57 108.991 122.848 105.111C124.688 108.9 126.505 112.698 128.3 116.506L133.684 127.962L139 139.466C140.772 143.305 142.523 147.158 144.254 151.024Z" fill="#5740A0"/>
<path d="M144.254 105.111C142.523 108.972 140.776 112.834 139.013 116.696L133.697 128.194L128.313 139.65C126.496 143.462 124.679 147.26 122.861 151.045C124.583 147.178 126.328 143.316 128.095 139.459L133.411 127.955L138.802 116.499C140.592 112.691 142.41 108.895 144.254 105.111Z" fill="#5740A0"/>
<path d="M44.6093 104.736C44.2345 115.879 45.0591 138.757 50.4295 145.034C57.4764 153.273 75.9864 157.26 81.4658 158.46C83.8511 158.978 88.281 143.323 86.7272 141.204C85.1733 139.084 66.1316 135.704 64.5642 134.539C62.9967 133.373 56.6245 112.853 53.7212 103.87C50.0546 92.482 44.9364 95.3035 44.6093 104.736Z" fill="#DD6A57"/>
<path d="M93.5968 145.818C92.6699 144.986 93.0993 144.496 95.3074 144.639C97.5155 144.782 106.144 147.222 106.736 144.141C107.329 141.061 95.1506 137.796 91.4227 137.837C87.6948 137.878 81.7588 139.248 81.7588 139.248C84.0146 140.359 89.2214 143.582 93.5968 145.818Z" fill="#DD6A57"/>
<path d="M75.4412 156.613C81.8951 159.516 89.7531 163.524 97.6859 162.651C98.5696 162.577 99.4026 162.207 100.051 161.602C103.615 161.275 104.528 159.496 104.528 159.496C107.752 158.174 108.44 156.224 108.44 156.224C108.44 156.224 112.618 155.795 112.782 153.226C112.966 150.343 107.064 151.515 103.418 150.166C95.0825 147.085 84.0828 140.379 81.7657 139.261L75.4412 156.613Z" fill="#DD6A57"/>
<path d="M112.782 153.226C112.618 155.795 108.44 156.224 108.44 156.224C108.352 156.443 107.554 158.235 104.535 159.475C104.535 159.475 103.622 161.254 100.058 161.581C100.058 161.581 100.058 161.581 100.058 161.615C99.4115 162.198 98.5934 162.554 97.7268 162.631C90.6322 163.408 83.6058 160.293 77.5812 157.553C76.4566 157.281 75.1958 156.967 73.8464 156.606L79.9256 138.566C80.6753 138.771 81.3977 138.968 82.0724 139.166C83.265 138.907 88.206 137.844 91.4705 137.803C95.1712 137.762 107.391 141.02 106.784 144.107C106.178 147.194 97.5905 144.748 95.3552 144.605C93.3651 144.475 92.8199 144.864 93.406 145.545C96.6638 147.27 100.02 148.802 103.458 150.132C107.064 151.515 112.966 150.343 112.782 153.226Z" fill="#DBDBDB"/>
<path d="M92.411 153.083C94.8413 154.013 97.3324 154.776 99.8669 155.366C102.679 155.837 105.522 156.101 108.372 156.156C108.39 156.156 108.408 156.163 108.42 156.176C108.433 156.189 108.44 156.206 108.44 156.224C108.44 156.243 108.433 156.26 108.42 156.273C108.408 156.285 108.39 156.293 108.372 156.293C102.855 156.745 97.3192 155.672 92.3702 153.192C92.2339 153.137 92.2884 153.042 92.411 153.083Z" fill="#263238"/>
<path d="M89.8212 157.846C92.2746 158.528 96.5886 159.755 104.528 159.407C104.528 159.407 104.562 159.455 104.528 159.455C99.5692 160.338 94.4619 159.821 89.7803 157.962C89.6372 157.908 89.6576 157.799 89.8212 157.846Z" fill="#263238"/>
<path d="M88.4787 160.436C92.6905 161.465 95.4779 161.581 100.03 161.588V161.636C94.8577 162.174 92.9154 161.786 88.4446 160.573C88.2674 160.532 88.3083 160.395 88.4787 160.436Z" fill="#263238"/>
<path d="M43.846 122.258L59.7322 118.25C59.7322 118.25 55.9293 106.385 53.067 100.531C50.2046 94.6765 45.2976 92.6592 44.0573 102.575C42.9873 110.965 43.846 122.258 43.846 122.258Z" fill="#37474F"/>
</g>
<defs>
<filter id="filter0_b_148_1525" x="-23" y="-23" width="458.246" height="407.875" filterUnits="userSpaceOnUse" color-interpolation-filters="sRGB">
<feFlood flood-opacity="0" result="BackgroundImageFix"/>
<feGaussianBlur in="BackgroundImageFix" stdDeviation="11.5"/>
<feComposite in2="SourceAlpha" operator="in" result="effect1_backgroundBlur_148_1525"/>
<feBlend mode="normal" in="SourceGraphic" in2="effect1_backgroundBlur_148_1525" result="shape"/>
</filter>
<radialGradient id="paint0_radial_148_1525" cx="0" cy="0" r="1" gradientUnits="userSpaceOnUse" gradientTransform="translate(206.123 153.101) rotate(90) scale(208.774 237.834)">
<stop stop-color="white" stop-opacity="0.72"/>
<stop offset="1" stop-color="white" stop-opacity="0"/>
</radialGradient>
<clipPath id="clip0_148_1525">
<rect width="445.349" height="310.178" fill="white" transform="translate(2.65112 18.5577)"/>
</clipPath>
</defs>
</svg>
