<svg width="160" height="160" viewBox="0 0 160 160" fill="none" xmlns="http://www.w3.org/2000/svg">
<path d="M114.107 105.558H46V140.752H114.107V105.558Z" fill="#8879B9"/>
<path d="M62.6134 105.558H46V140.752H62.6134V105.558Z" fill="#5740A0"/>
<path d="M94.3938 72.4053H54.3084V105.558H94.3938V72.4053Z" fill="#8879B9"/>
<path d="M64.4268 72.4053H54.3084V105.558H64.4268V72.4053Z" fill="#5740A0"/>
<path d="M54.2042 105.639L64.4252 104.65L85.1548 105.792L54.2042 105.639Z" fill="#5740A0"/>
<path d="M112.078 108.577H98.1645V111.833H112.078V108.577Z" fill="white"/>
<path d="M112.302 113.545H98.3876V116.802H112.302V113.545Z" fill="white"/>
<path d="M92.9408 74.3135H83.2108V77.5698H92.9408V74.3135Z" fill="white"/>
<path d="M92.9408 78.7646H83.2108V82.0208H92.9408V78.7646Z" fill="white"/>
<path d="M58.1518 36.6999C58.1518 27.4716 65.4567 20 74.4693 20C83.4819 20 90.7901 27.4766 90.7901 36.6999C90.7901 45.9233 75.1355 62.8062 75.1355 62.8062C75.1355 62.8062 58.1518 45.9233 58.1518 36.6999Z" fill="#D0D0D0"/>
<path d="M74.4693 45.5328C79.3528 45.5328 83.3116 41.5863 83.3116 36.7181C83.3116 31.8499 79.3528 27.9034 74.4693 27.9034C69.5858 27.9034 65.627 31.8499 65.627 36.7181C65.627 41.5863 69.5858 45.5328 74.4693 45.5328Z" fill="#5740A0"/>
</svg>
