<svg width="160" height="160" viewBox="0 0 160 160" fill="none" xmlns="http://www.w3.org/2000/svg">
<path d="M122.684 73.0043H51.7372L49.4238 67.1011H122.684C122.776 67.1011 122.866 67.1192 122.95 67.1543C123.034 67.1894 123.111 67.2408 123.175 67.3057C123.24 67.3706 123.291 67.4476 123.326 67.5323C123.36 67.6171 123.378 67.7079 123.378 67.7997V72.3057C123.378 72.3975 123.36 72.4883 123.326 72.5731C123.291 72.6578 123.24 72.7348 123.175 72.7997C123.111 72.8646 123.034 72.916 122.95 72.9511C122.866 72.9862 122.776 73.0043 122.684 73.0043Z" fill="#8879B9"/>
<path d="M112.348 104.02H64.1055C63.8701 104.02 63.6403 103.948 63.4468 103.813C63.2533 103.678 63.1053 103.487 63.0225 103.265L51.7372 73.0043H120.214L113.477 103.112C113.419 103.37 113.276 103.6 113.071 103.765C112.866 103.931 112.611 104.02 112.348 104.02Z" fill="#8879B9" fill-opacity="0.7"/>
<path d="M116.744 88.5131C111.809 88.8317 106.874 88.9984 101.938 89.1116C99.4707 89.1826 97.003 89.1983 94.5354 89.24L87.1324 89.2826C82.1971 89.2871 77.2618 89.2309 72.3265 89.1139C67.3912 89.0011 62.4559 88.8336 57.5206 88.5131C62.4559 88.1925 67.3912 88.025 72.3265 87.9122C77.2618 87.8007 82.1971 87.7445 87.1324 87.7436L94.5354 87.7861C97.003 87.8278 99.4707 87.8436 101.938 87.9145C106.874 88.0277 111.809 88.1945 116.744 88.5131Z" fill="#5740A0"/>
<path d="M107.091 73.0043C106.81 75.711 106.38 78.384 105.906 81.0468C105.425 83.7083 104.889 86.3572 104.297 88.9934C103.708 91.6303 103.065 94.2549 102.368 96.8672C102.016 98.1727 101.651 99.4753 101.262 100.772C101.061 101.419 100.869 102.068 100.66 102.714L100.499 103.204C100.436 103.384 100.333 103.547 100.198 103.681C100.071 103.807 99.9182 103.903 99.7499 103.962C99.5816 104.021 99.4024 104.041 99.2254 104.021C99.3852 104.002 99.5391 103.948 99.6765 103.863C99.8138 103.779 99.9313 103.665 100.021 103.531C100.105 103.407 100.16 103.266 100.182 103.117L100.247 102.62C100.332 101.947 100.436 101.278 100.53 100.606C100.73 99.2665 100.956 97.9324 101.194 96.6012C101.675 93.9397 102.212 91.291 102.805 88.6551C103.396 86.0187 104.039 83.3942 104.736 80.7817C105.442 78.1713 106.192 75.5709 107.091 73.0043Z" fill="#5740A0"/>
<path d="M79.5219 104.021C79.3377 104.041 79.1514 104.017 78.9778 103.952C78.8041 103.887 78.6478 103.783 78.5213 103.646C78.3972 103.503 78.2976 103.34 78.2266 103.163L77.998 102.687C77.6934 102.051 77.4062 101.409 77.1095 100.77C76.5287 99.4884 75.9715 98.1977 75.4258 96.9025C74.3393 94.3104 73.3062 91.6981 72.3266 89.0656C71.344 86.4342 70.4134 83.7832 69.535 81.1124C68.664 78.4389 67.8369 75.7488 67.1537 73.0043C68.4334 75.5234 69.5693 78.0969 70.6613 80.6869C71.7477 83.2791 72.7801 85.8916 73.7585 88.5246C74.7392 91.1567 75.6691 93.808 76.5482 96.4784C76.9841 97.8151 77.4084 99.1561 77.809 100.506C78.003 101.183 78.2066 101.857 78.3928 102.537L78.5322 103.048C78.5641 103.208 78.6215 103.362 78.7023 103.503C78.7915 103.646 78.9116 103.767 79.0535 103.856C79.1954 103.946 79.3555 104.002 79.5219 104.021Z" fill="#5740A0"/>
<path d="M76.0845 127.816C78.724 127.816 80.8638 125.662 80.8638 123.005C80.8638 120.348 78.724 118.195 76.0845 118.195C73.4449 118.195 71.3051 120.348 71.3051 123.005C71.3051 125.662 73.4449 127.816 76.0845 127.816Z" fill="#8879B9"/>
<path d="M76.0845 125.226C77.3027 125.226 78.2903 124.231 78.2903 123.005C78.2903 121.779 77.3027 120.785 76.0845 120.785C74.8662 120.785 73.8786 121.779 73.8786 123.005C73.8786 124.231 74.8662 125.226 76.0845 125.226Z" fill="#5740A0"/>
<path d="M103.654 127.816C106.293 127.816 108.433 125.662 108.433 123.005C108.433 120.348 106.293 118.195 103.654 118.195C101.014 118.195 98.8742 120.348 98.8742 123.005C98.8742 125.662 101.014 127.816 103.654 127.816Z" fill="#8879B9"/>
<path d="M103.654 125.226C104.872 125.226 105.859 124.231 105.859 123.005C105.859 121.779 104.872 120.785 103.654 120.785C102.435 120.785 101.448 121.779 101.448 123.005C101.448 124.231 102.435 125.226 103.654 125.226Z" fill="#5740A0"/>
<path d="M87.5557 73.0043C88.0247 75.57 88.3417 78.1449 88.613 80.7225C88.878 83.3004 89.086 85.8818 89.237 88.4666C89.3912 91.0512 89.4899 93.6392 89.5331 96.2304C89.5682 98.8222 89.5567 101.417 89.3916 104.021C88.9206 101.455 88.603 98.8801 88.3322 96.3025C88.0673 93.7245 87.86 91.143 87.7103 88.5582C87.5582 85.9735 87.4602 83.3855 87.4163 80.7942C87.3816 78.2024 87.3927 75.6079 87.5557 73.0043Z" fill="#5740A0"/>
<path d="M111.74 115.753H68.5059C68.3512 115.753 68.2001 115.706 68.0725 115.617C67.945 115.529 67.8471 115.404 67.7917 115.259L42.7522 49.5598H29.4893C29.2864 49.5598 29.0919 49.4786 28.9484 49.3342C28.8049 49.1898 28.7243 48.994 28.7243 48.7898C28.7243 48.5856 28.8049 48.3897 28.9484 48.2453C29.0919 48.1009 29.2864 48.0198 29.4893 48.0198H43.2781C43.4328 48.0198 43.5839 48.0671 43.7114 48.1553C43.8389 48.2436 43.9369 48.3687 43.9923 48.5141L69.0318 114.213H111.74C111.943 114.213 112.138 114.294 112.281 114.438C112.425 114.583 112.505 114.779 112.505 114.983C112.505 115.187 112.425 115.383 112.281 115.527C112.138 115.672 111.943 115.753 111.74 115.753Z" fill="#8879B9"/>
<path d="M36.1411 46.5697H27.0635C26.7818 46.5697 26.5535 46.7995 26.5535 47.083V50.7687C26.5535 51.0521 26.7818 51.282 27.0635 51.282H36.1411C36.4227 51.282 36.6511 51.0521 36.6511 50.7687V47.083C36.6511 46.7995 36.4227 46.5697 36.1411 46.5697Z" fill="#8879B9"/>
</svg>
