<svg width="160" height="160" viewBox="0 0 160 160" fill="none" xmlns="http://www.w3.org/2000/svg">
<g clip-path="url(#clip0_1_89)">
<path d="M26.4185 53.8435V120.924H139.873V53.8435H26.4185ZM131.029 107.531H70.0058V82.4068H131.029V107.531ZM131.029 76.8339H70.0058V71.8456H131.029V76.8339ZM131.029 66.2726H70.0058V61.2843H131.029V66.2726Z" fill="#5740A0" fill-opacity="0.66"/>
<path d="M26.4185 44.4894H139.873V53.8435H26.4185V44.4894Z" fill="#5740A0"/>
<path d="M110.943 110.871H131.029V115.86H110.943V110.871Z" fill="#5740A0"/>
<path d="M58.543 54.6483C58.8837 56.22 59.2925 58.68 59.2547 61.7094C59.2093 65.3691 58.5581 66.2878 58.8156 68.4744C59.232 72.0581 61.4503 73.5918 64.2744 77.3502C66.0309 79.6887 69.9452 84.8896 70.4979 89.5667C71.3458 96.7644 64.4864 105.245 56.3398 108.442C45.4449 112.709 32.8843 107.197 28.0842 98.6778C27.7359 98.0628 23.7005 90.66 26.5321 84.0013C27.1075 82.6574 28.6596 79.0205 31.9228 77.9424C33.4446 77.4413 34.1487 77.9424 34.9664 77.2742C36.9576 75.6342 34.8377 71.6861 35.133 66.3333C35.5191 59.4544 39.8801 53.0767 44.0896 51.6948C45.3692 51.2696 46.9213 50.7609 48.7383 51.2013C50.1087 51.5354 50.6387 52.1731 52.1832 52.2339C53.6747 52.2946 54.0533 51.7328 55.1284 51.8618C55.9764 51.9681 57.2029 52.5072 58.543 54.6483Z" fill="#3E2D71"/>
<path d="M51.5851 73.7058C51.5851 73.7058 62.1847 75.2774 62.745 79.0358C63.063 81.1845 62.0485 93.5832 60.0951 98.0628C58.1417 102.542 60.6554 118.487 62.1847 121.144H35.1254C35.1254 121.144 42.6587 104.357 41.4019 98.3437C40.1451 92.3304 36.2383 81.1389 41.9621 77.2211C47.686 73.3033 51.5851 73.7058 51.5851 73.7058Z" fill="#5740A0"/>
<path d="M46.2853 68.9831L46.4594 74.5561C46.52 76.4391 48.0569 77.9424 49.9422 77.9424C51.8804 77.9424 53.4476 76.3479 53.4249 74.4042L53.334 67.7987L46.2853 68.9831Z" fill="#FCD2B1"/>
<path d="M43.7717 58.4902C43.7717 58.4902 40.4176 71.5342 48.6551 71.5722C52.1454 71.5874 54.0987 70.0309 54.3032 67.867C54.3032 67.867 57.4452 66.8876 57.0212 63.9492C56.5972 61.0109 55.0678 63.1824 55.136 63.8809C55.2041 64.5794 54.2274 64.9287 54.2956 64.1618C54.3637 63.395 54.6741 56.0454 49.6393 55.7644C49.6469 55.7644 46.2853 59.8872 43.7717 58.4902Z" fill="#FFE3CA"/>
<path d="M59.6711 75.9C59.6711 75.9 65.5085 78.9219 71.9515 93.6515C77.4406 106.21 62.4422 121.144 62.4422 121.144H57.3165C57.3165 121.144 66.1596 103.666 66.576 101.707C66.9924 99.7483 58.1569 87.9874 59.6711 75.9Z" fill="#5740A0"/>
<path d="M27.4104 51.9378L28.2053 47.9137L31.8471 48.5894L30.6962 53.0994L27.4104 51.9378Z" fill="#FFE3CA"/>
<path d="M26.8955 46.8811C26.7441 44.2769 29.0079 40.7615 29.8029 40.0857C30.5978 39.41 33.2326 38.9772 33.1872 40.5109C33.1417 42.0446 33.1342 43.753 32.7556 44.8311C32.536 45.4689 31.8774 46.8887 32.6193 46.5091C33.3613 46.1294 34.0427 44.1933 34.6938 44.7856C35.2314 45.2791 34.126 48.468 32.6193 49.5613C31.7865 50.1687 31.7411 50.4344 30.5978 50.4952C29.4546 50.5559 27.1378 51.0115 26.8955 46.8811Z" fill="#FFE3CA"/>
<path d="M27.4179 51.4822C27.4179 51.4822 22.8449 65.3463 23.8216 70.6611C24.7983 75.9759 39.1154 87.4863 39.1154 87.4863L42.7495 76.6896C42.7495 76.6896 33.7929 73.6298 31.1429 70.7446C28.493 67.8594 31.0748 51.915 31.0748 51.915L27.4179 51.4822Z" fill="#5740A0"/>
</g>
<defs>
<clipPath id="clip0_1_89">
<rect width="125" height="82" fill="white" transform="translate(17 39)"/>
</clipPath>
</defs>
</svg>
